G04 #@! TF.GenerationSoftware,KiCad,Pcbnew,(5.1.4)-1*
G04 #@! TF.CreationDate,2020-10-29T02:08:41+01:00*
G04 #@! TF.ProjectId,Delay Line,44656c61-7920-44c6-996e-652e6b696361,rev?*
G04 #@! TF.SameCoordinates,Original*
G04 #@! TF.FileFunction,Copper,L1,Top*
G04 #@! TF.FilePolarity,Positive*
%FSLAX46Y46*%
G04 Gerber Fmt 4.6, Leading zero omitted, Abs format (unit mm)*
G04 Created by KiCad (PCBNEW (5.1.4)-1) date 2020-10-29 02:08:41*
%MOMM*%
%LPD*%
G04 APERTURE LIST*
%ADD10O,1.600000X1.600000*%
%ADD11R,1.600000X1.600000*%
%ADD12R,1.200000X0.750000*%
%ADD13R,1.200000X0.900000*%
%ADD14C,0.800000*%
%ADD15C,0.250000*%
G04 APERTURE END LIST*
D10*
X142476000Y-68758000D03*
X134856000Y-83998000D03*
X142476000Y-71298000D03*
X134856000Y-81458000D03*
X142476000Y-73838000D03*
X134856000Y-78918000D03*
X142476000Y-76378000D03*
X134856000Y-76378000D03*
X142476000Y-78918000D03*
X134856000Y-73838000D03*
X142476000Y-81458000D03*
X134856000Y-71298000D03*
X142476000Y-83998000D03*
D11*
X134856000Y-68758000D03*
D12*
X139060000Y-73787000D03*
X137160000Y-73787000D03*
X137160000Y-75565000D03*
X139060000Y-75565000D03*
X139060000Y-77343000D03*
X137160000Y-77343000D03*
D13*
X139233000Y-69469000D03*
X137033000Y-69469000D03*
X139233000Y-71247000D03*
X137033000Y-71247000D03*
X138135000Y-80518000D03*
X140335000Y-80518000D03*
X138135000Y-82296000D03*
X140335000Y-82296000D03*
X140335000Y-84201000D03*
X138135000Y-84201000D03*
D14*
X140303600Y-75769900D03*
X137729800Y-79335200D03*
X137770400Y-72354600D03*
D15*
X140303600Y-75769900D02*
X140190200Y-75769900D01*
X140190200Y-75769900D02*
X139985300Y-75565000D01*
X139060000Y-75565000D02*
X139985300Y-75565000D01*
X139060000Y-75565000D02*
X139060000Y-76642700D01*
X139060000Y-77343000D02*
X139060000Y-76642700D01*
X139060000Y-73787000D02*
X139060000Y-75565000D01*
X137729800Y-79335200D02*
X138135000Y-79740400D01*
X138135000Y-79740400D02*
X138135000Y-80518000D01*
X137160000Y-73787000D02*
X136234700Y-73787000D01*
X134856000Y-73838000D02*
X136183700Y-73838000D01*
X136183700Y-73838000D02*
X136234700Y-73787000D01*
X134856000Y-78918000D02*
X134856000Y-77792700D01*
X134856000Y-77792700D02*
X135194900Y-77792700D01*
X135194900Y-77792700D02*
X136722300Y-76265300D01*
X136722300Y-76265300D02*
X137160000Y-76265300D01*
X134856000Y-79480600D02*
X134856000Y-78918000D01*
X137160000Y-75565000D02*
X137160000Y-76265300D01*
X134856000Y-79480600D02*
X134856000Y-80043300D01*
X138135000Y-82296000D02*
X138135000Y-81520700D01*
X134856000Y-80043300D02*
X135882300Y-80043300D01*
X135882300Y-80043300D02*
X137359700Y-81520700D01*
X137359700Y-81520700D02*
X138135000Y-81520700D01*
X138135000Y-84201000D02*
X138135000Y-83425700D01*
X138135000Y-84201000D02*
X138135000Y-84976300D01*
X142476000Y-81458000D02*
X142476000Y-82583300D01*
X142476000Y-82583300D02*
X142194600Y-82583300D01*
X142194600Y-82583300D02*
X141350700Y-83427200D01*
X141350700Y-83427200D02*
X141350700Y-84699700D01*
X141350700Y-84699700D02*
X141074100Y-84976300D01*
X141074100Y-84976300D02*
X138135000Y-84976300D01*
X138135000Y-83425700D02*
X138522600Y-83425700D01*
X138522600Y-83425700D02*
X139060400Y-82887900D01*
X139060400Y-82887900D02*
X139060400Y-79640000D01*
X139060400Y-79640000D02*
X137463700Y-78043300D01*
X137463700Y-78043300D02*
X137160000Y-78043300D01*
X137160000Y-77343000D02*
X137160000Y-78043300D01*
X140335000Y-82296000D02*
X140335000Y-81520700D01*
X140335000Y-81520700D02*
X140843800Y-81520700D01*
X140843800Y-81520700D02*
X141263400Y-81101100D01*
X141263400Y-81101100D02*
X141263400Y-75382100D01*
X141263400Y-75382100D02*
X140675000Y-74793700D01*
X140675000Y-74793700D02*
X140675000Y-71154800D01*
X140675000Y-71154800D02*
X139764500Y-70244300D01*
X139764500Y-70244300D02*
X139233000Y-70244300D01*
X140335000Y-84201000D02*
X140335000Y-82296000D01*
X139233000Y-69469000D02*
X139233000Y-70244300D01*
X134856000Y-68758000D02*
X134856000Y-69883300D01*
X134856000Y-69883300D02*
X135862700Y-69883300D01*
X135862700Y-69883300D02*
X136223700Y-70244300D01*
X136223700Y-70244300D02*
X139233000Y-70244300D01*
X137033000Y-69469000D02*
X137033000Y-68693700D01*
X142476000Y-76378000D02*
X142476000Y-75252700D01*
X142476000Y-75252700D02*
X142251200Y-75252700D01*
X142251200Y-75252700D02*
X141125400Y-74126900D01*
X141125400Y-74126900D02*
X141125400Y-69827800D01*
X141125400Y-69827800D02*
X139991300Y-68693700D01*
X139991300Y-68693700D02*
X137033000Y-68693700D01*
X138031900Y-73223400D02*
X138110000Y-73301500D01*
X138110000Y-73301500D02*
X138110000Y-77878600D01*
X138110000Y-77878600D02*
X139974100Y-79742700D01*
X139974100Y-79742700D02*
X140335000Y-79742700D01*
X135981300Y-71298000D02*
X135981300Y-71720000D01*
X135981300Y-71720000D02*
X137341200Y-73079900D01*
X137341200Y-73079900D02*
X137888400Y-73079900D01*
X137888400Y-73079900D02*
X138031900Y-73223400D01*
X138031900Y-73223400D02*
X139233000Y-72022300D01*
X139233000Y-71247000D02*
X139233000Y-72022300D01*
X140335000Y-80518000D02*
X140335000Y-79742700D01*
X134856000Y-71298000D02*
X135981300Y-71298000D01*
X137033000Y-72022300D02*
X137438100Y-72022300D01*
X137438100Y-72022300D02*
X137770400Y-72354600D01*
X137033000Y-71247000D02*
X137033000Y-72022300D01*
M02*
