G04 #@! TF.GenerationSoftware,KiCad,Pcbnew,(5.1.4)-1*
G04 #@! TF.CreationDate,2020-10-29T02:08:41+01:00*
G04 #@! TF.ProjectId,Delay Line,44656c61-7920-44c6-996e-652e6b696361,rev?*
G04 #@! TF.SameCoordinates,Original*
G04 #@! TF.FileFunction,Copper,L2,Bot*
G04 #@! TF.FilePolarity,Positive*
%FSLAX46Y46*%
G04 Gerber Fmt 4.6, Leading zero omitted, Abs format (unit mm)*
G04 Created by KiCad (PCBNEW (5.1.4)-1) date 2020-10-29 02:08:41*
%MOMM*%
%LPD*%
G04 APERTURE LIST*
%ADD10O,1.600000X1.600000*%
%ADD11R,1.600000X1.600000*%
%ADD12C,0.800000*%
%ADD13C,0.250000*%
%ADD14C,0.254000*%
G04 APERTURE END LIST*
D10*
X142476000Y-68758000D03*
X134856000Y-83998000D03*
X142476000Y-71298000D03*
X134856000Y-81458000D03*
X142476000Y-73838000D03*
X134856000Y-78918000D03*
X142476000Y-76378000D03*
X134856000Y-76378000D03*
X142476000Y-78918000D03*
X134856000Y-73838000D03*
X142476000Y-81458000D03*
X134856000Y-71298000D03*
X142476000Y-83998000D03*
D11*
X134856000Y-68758000D03*
D12*
X140303600Y-75769900D03*
X137729800Y-79335200D03*
X137770400Y-72354600D03*
D13*
X134856000Y-73838000D02*
X134856000Y-74963300D01*
X134856000Y-74963300D02*
X135137300Y-74963300D01*
X135137300Y-74963300D02*
X137729800Y-77555800D01*
X137729800Y-77555800D02*
X137729800Y-79335200D01*
X141350700Y-71298000D02*
X140294100Y-72354600D01*
X140294100Y-72354600D02*
X137770400Y-72354600D01*
X142476000Y-71298000D02*
X141350700Y-71298000D01*
D14*
G36*
X141277068Y-67956899D02*
G01*
X141143818Y-68206192D01*
X141061764Y-68476691D01*
X141034057Y-68758000D01*
X141061764Y-69039309D01*
X141143818Y-69309808D01*
X141277068Y-69559101D01*
X141456392Y-69777608D01*
X141674899Y-69956932D01*
X141807858Y-70028000D01*
X141674899Y-70099068D01*
X141456392Y-70278392D01*
X141277068Y-70496899D01*
X141251861Y-70544058D01*
X141201714Y-70548997D01*
X141058453Y-70592454D01*
X140926423Y-70663026D01*
X140842783Y-70731668D01*
X140810699Y-70757999D01*
X140786901Y-70786997D01*
X139979299Y-71594600D01*
X138474111Y-71594600D01*
X138430174Y-71550663D01*
X138260656Y-71437395D01*
X138072298Y-71359374D01*
X137872339Y-71319600D01*
X137668461Y-71319600D01*
X137468502Y-71359374D01*
X137280144Y-71437395D01*
X137110626Y-71550663D01*
X136966463Y-71694826D01*
X136853195Y-71864344D01*
X136775174Y-72052702D01*
X136735400Y-72252661D01*
X136735400Y-72456539D01*
X136775174Y-72656498D01*
X136853195Y-72844856D01*
X136966463Y-73014374D01*
X137110626Y-73158537D01*
X137280144Y-73271805D01*
X137468502Y-73349826D01*
X137668461Y-73389600D01*
X137872339Y-73389600D01*
X138072298Y-73349826D01*
X138260656Y-73271805D01*
X138430174Y-73158537D01*
X138474111Y-73114600D01*
X140256778Y-73114600D01*
X140294100Y-73118276D01*
X140331422Y-73114600D01*
X140331433Y-73114600D01*
X140443086Y-73103603D01*
X140586347Y-73060146D01*
X140718376Y-72989574D01*
X140834101Y-72894601D01*
X140857904Y-72865598D01*
X141433630Y-72289872D01*
X141456392Y-72317608D01*
X141674899Y-72496932D01*
X141807858Y-72568000D01*
X141674899Y-72639068D01*
X141456392Y-72818392D01*
X141277068Y-73036899D01*
X141143818Y-73286192D01*
X141061764Y-73556691D01*
X141034057Y-73838000D01*
X141061764Y-74119309D01*
X141143818Y-74389808D01*
X141277068Y-74639101D01*
X141456392Y-74857608D01*
X141674899Y-75036932D01*
X141807858Y-75108000D01*
X141674899Y-75179068D01*
X141456392Y-75358392D01*
X141277068Y-75576899D01*
X141143818Y-75826192D01*
X141061764Y-76096691D01*
X141034057Y-76378000D01*
X141061764Y-76659309D01*
X141143818Y-76929808D01*
X141277068Y-77179101D01*
X141456392Y-77397608D01*
X141674899Y-77576932D01*
X141807858Y-77648000D01*
X141674899Y-77719068D01*
X141456392Y-77898392D01*
X141277068Y-78116899D01*
X141143818Y-78366192D01*
X141061764Y-78636691D01*
X141034057Y-78918000D01*
X141061764Y-79199309D01*
X141143818Y-79469808D01*
X141277068Y-79719101D01*
X141456392Y-79937608D01*
X141674899Y-80116932D01*
X141807858Y-80188000D01*
X141674899Y-80259068D01*
X141456392Y-80438392D01*
X141277068Y-80656899D01*
X141143818Y-80906192D01*
X141061764Y-81176691D01*
X141034057Y-81458000D01*
X141061764Y-81739309D01*
X141143818Y-82009808D01*
X141277068Y-82259101D01*
X141456392Y-82477608D01*
X141674899Y-82656932D01*
X141807858Y-82728000D01*
X141674899Y-82799068D01*
X141456392Y-82978392D01*
X141277068Y-83196899D01*
X141143818Y-83446192D01*
X141061764Y-83716691D01*
X141034057Y-83998000D01*
X141061764Y-84279309D01*
X141143818Y-84549808D01*
X141277068Y-84799101D01*
X141391059Y-84938000D01*
X135936875Y-84938000D01*
X136087037Y-84735420D01*
X136207246Y-84481087D01*
X136247904Y-84347039D01*
X136125915Y-84125000D01*
X134983000Y-84125000D01*
X134983000Y-84145000D01*
X134729000Y-84145000D01*
X134729000Y-84125000D01*
X134709000Y-84125000D01*
X134709000Y-83871000D01*
X134729000Y-83871000D01*
X134729000Y-83851000D01*
X134983000Y-83851000D01*
X134983000Y-83871000D01*
X136125915Y-83871000D01*
X136247904Y-83648961D01*
X136207246Y-83514913D01*
X136087037Y-83260580D01*
X135919519Y-83034586D01*
X135711131Y-82845615D01*
X135519318Y-82730579D01*
X135657101Y-82656932D01*
X135875608Y-82477608D01*
X136054932Y-82259101D01*
X136188182Y-82009808D01*
X136270236Y-81739309D01*
X136297943Y-81458000D01*
X136270236Y-81176691D01*
X136188182Y-80906192D01*
X136054932Y-80656899D01*
X135875608Y-80438392D01*
X135657101Y-80259068D01*
X135524142Y-80188000D01*
X135657101Y-80116932D01*
X135875608Y-79937608D01*
X136054932Y-79719101D01*
X136188182Y-79469808D01*
X136270236Y-79199309D01*
X136297943Y-78918000D01*
X136270236Y-78636691D01*
X136188182Y-78366192D01*
X136054932Y-78116899D01*
X135875608Y-77898392D01*
X135657101Y-77719068D01*
X135524142Y-77648000D01*
X135657101Y-77576932D01*
X135875608Y-77397608D01*
X136054932Y-77179101D01*
X136132737Y-77033538D01*
X136969800Y-77870602D01*
X136969801Y-78631488D01*
X136925863Y-78675426D01*
X136812595Y-78844944D01*
X136734574Y-79033302D01*
X136694800Y-79233261D01*
X136694800Y-79437139D01*
X136734574Y-79637098D01*
X136812595Y-79825456D01*
X136925863Y-79994974D01*
X137070026Y-80139137D01*
X137239544Y-80252405D01*
X137427902Y-80330426D01*
X137627861Y-80370200D01*
X137831739Y-80370200D01*
X138031698Y-80330426D01*
X138220056Y-80252405D01*
X138389574Y-80139137D01*
X138533737Y-79994974D01*
X138647005Y-79825456D01*
X138725026Y-79637098D01*
X138764800Y-79437139D01*
X138764800Y-79233261D01*
X138725026Y-79033302D01*
X138647005Y-78844944D01*
X138533737Y-78675426D01*
X138489800Y-78631489D01*
X138489800Y-77593125D01*
X138493476Y-77555800D01*
X138489800Y-77518475D01*
X138489800Y-77518467D01*
X138478803Y-77406814D01*
X138435346Y-77263553D01*
X138364774Y-77131524D01*
X138269801Y-77015799D01*
X138240804Y-76992002D01*
X135979643Y-74730841D01*
X136054932Y-74639101D01*
X136188182Y-74389808D01*
X136270236Y-74119309D01*
X136297943Y-73838000D01*
X136270236Y-73556691D01*
X136188182Y-73286192D01*
X136054932Y-73036899D01*
X135875608Y-72818392D01*
X135657101Y-72639068D01*
X135524142Y-72568000D01*
X135657101Y-72496932D01*
X135875608Y-72317608D01*
X136054932Y-72099101D01*
X136188182Y-71849808D01*
X136270236Y-71579309D01*
X136297943Y-71298000D01*
X136270236Y-71016691D01*
X136188182Y-70746192D01*
X136054932Y-70496899D01*
X135875608Y-70278392D01*
X135762518Y-70185581D01*
X135780482Y-70183812D01*
X135900180Y-70147502D01*
X136010494Y-70088537D01*
X136107185Y-70009185D01*
X136186537Y-69912494D01*
X136245502Y-69802180D01*
X136281812Y-69682482D01*
X136294072Y-69558000D01*
X136294072Y-67958000D01*
X136282746Y-67843000D01*
X141370542Y-67843000D01*
X141277068Y-67956899D01*
X141277068Y-67956899D01*
G37*
X141277068Y-67956899D02*
X141143818Y-68206192D01*
X141061764Y-68476691D01*
X141034057Y-68758000D01*
X141061764Y-69039309D01*
X141143818Y-69309808D01*
X141277068Y-69559101D01*
X141456392Y-69777608D01*
X141674899Y-69956932D01*
X141807858Y-70028000D01*
X141674899Y-70099068D01*
X141456392Y-70278392D01*
X141277068Y-70496899D01*
X141251861Y-70544058D01*
X141201714Y-70548997D01*
X141058453Y-70592454D01*
X140926423Y-70663026D01*
X140842783Y-70731668D01*
X140810699Y-70757999D01*
X140786901Y-70786997D01*
X139979299Y-71594600D01*
X138474111Y-71594600D01*
X138430174Y-71550663D01*
X138260656Y-71437395D01*
X138072298Y-71359374D01*
X137872339Y-71319600D01*
X137668461Y-71319600D01*
X137468502Y-71359374D01*
X137280144Y-71437395D01*
X137110626Y-71550663D01*
X136966463Y-71694826D01*
X136853195Y-71864344D01*
X136775174Y-72052702D01*
X136735400Y-72252661D01*
X136735400Y-72456539D01*
X136775174Y-72656498D01*
X136853195Y-72844856D01*
X136966463Y-73014374D01*
X137110626Y-73158537D01*
X137280144Y-73271805D01*
X137468502Y-73349826D01*
X137668461Y-73389600D01*
X137872339Y-73389600D01*
X138072298Y-73349826D01*
X138260656Y-73271805D01*
X138430174Y-73158537D01*
X138474111Y-73114600D01*
X140256778Y-73114600D01*
X140294100Y-73118276D01*
X140331422Y-73114600D01*
X140331433Y-73114600D01*
X140443086Y-73103603D01*
X140586347Y-73060146D01*
X140718376Y-72989574D01*
X140834101Y-72894601D01*
X140857904Y-72865598D01*
X141433630Y-72289872D01*
X141456392Y-72317608D01*
X141674899Y-72496932D01*
X141807858Y-72568000D01*
X141674899Y-72639068D01*
X141456392Y-72818392D01*
X141277068Y-73036899D01*
X141143818Y-73286192D01*
X141061764Y-73556691D01*
X141034057Y-73838000D01*
X141061764Y-74119309D01*
X141143818Y-74389808D01*
X141277068Y-74639101D01*
X141456392Y-74857608D01*
X141674899Y-75036932D01*
X141807858Y-75108000D01*
X141674899Y-75179068D01*
X141456392Y-75358392D01*
X141277068Y-75576899D01*
X141143818Y-75826192D01*
X141061764Y-76096691D01*
X141034057Y-76378000D01*
X141061764Y-76659309D01*
X141143818Y-76929808D01*
X141277068Y-77179101D01*
X141456392Y-77397608D01*
X141674899Y-77576932D01*
X141807858Y-77648000D01*
X141674899Y-77719068D01*
X141456392Y-77898392D01*
X141277068Y-78116899D01*
X141143818Y-78366192D01*
X141061764Y-78636691D01*
X141034057Y-78918000D01*
X141061764Y-79199309D01*
X141143818Y-79469808D01*
X141277068Y-79719101D01*
X141456392Y-79937608D01*
X141674899Y-80116932D01*
X141807858Y-80188000D01*
X141674899Y-80259068D01*
X141456392Y-80438392D01*
X141277068Y-80656899D01*
X141143818Y-80906192D01*
X141061764Y-81176691D01*
X141034057Y-81458000D01*
X141061764Y-81739309D01*
X141143818Y-82009808D01*
X141277068Y-82259101D01*
X141456392Y-82477608D01*
X141674899Y-82656932D01*
X141807858Y-82728000D01*
X141674899Y-82799068D01*
X141456392Y-82978392D01*
X141277068Y-83196899D01*
X141143818Y-83446192D01*
X141061764Y-83716691D01*
X141034057Y-83998000D01*
X141061764Y-84279309D01*
X141143818Y-84549808D01*
X141277068Y-84799101D01*
X141391059Y-84938000D01*
X135936875Y-84938000D01*
X136087037Y-84735420D01*
X136207246Y-84481087D01*
X136247904Y-84347039D01*
X136125915Y-84125000D01*
X134983000Y-84125000D01*
X134983000Y-84145000D01*
X134729000Y-84145000D01*
X134729000Y-84125000D01*
X134709000Y-84125000D01*
X134709000Y-83871000D01*
X134729000Y-83871000D01*
X134729000Y-83851000D01*
X134983000Y-83851000D01*
X134983000Y-83871000D01*
X136125915Y-83871000D01*
X136247904Y-83648961D01*
X136207246Y-83514913D01*
X136087037Y-83260580D01*
X135919519Y-83034586D01*
X135711131Y-82845615D01*
X135519318Y-82730579D01*
X135657101Y-82656932D01*
X135875608Y-82477608D01*
X136054932Y-82259101D01*
X136188182Y-82009808D01*
X136270236Y-81739309D01*
X136297943Y-81458000D01*
X136270236Y-81176691D01*
X136188182Y-80906192D01*
X136054932Y-80656899D01*
X135875608Y-80438392D01*
X135657101Y-80259068D01*
X135524142Y-80188000D01*
X135657101Y-80116932D01*
X135875608Y-79937608D01*
X136054932Y-79719101D01*
X136188182Y-79469808D01*
X136270236Y-79199309D01*
X136297943Y-78918000D01*
X136270236Y-78636691D01*
X136188182Y-78366192D01*
X136054932Y-78116899D01*
X135875608Y-77898392D01*
X135657101Y-77719068D01*
X135524142Y-77648000D01*
X135657101Y-77576932D01*
X135875608Y-77397608D01*
X136054932Y-77179101D01*
X136132737Y-77033538D01*
X136969800Y-77870602D01*
X136969801Y-78631488D01*
X136925863Y-78675426D01*
X136812595Y-78844944D01*
X136734574Y-79033302D01*
X136694800Y-79233261D01*
X136694800Y-79437139D01*
X136734574Y-79637098D01*
X136812595Y-79825456D01*
X136925863Y-79994974D01*
X137070026Y-80139137D01*
X137239544Y-80252405D01*
X137427902Y-80330426D01*
X137627861Y-80370200D01*
X137831739Y-80370200D01*
X138031698Y-80330426D01*
X138220056Y-80252405D01*
X138389574Y-80139137D01*
X138533737Y-79994974D01*
X138647005Y-79825456D01*
X138725026Y-79637098D01*
X138764800Y-79437139D01*
X138764800Y-79233261D01*
X138725026Y-79033302D01*
X138647005Y-78844944D01*
X138533737Y-78675426D01*
X138489800Y-78631489D01*
X138489800Y-77593125D01*
X138493476Y-77555800D01*
X138489800Y-77518475D01*
X138489800Y-77518467D01*
X138478803Y-77406814D01*
X138435346Y-77263553D01*
X138364774Y-77131524D01*
X138269801Y-77015799D01*
X138240804Y-76992002D01*
X135979643Y-74730841D01*
X136054932Y-74639101D01*
X136188182Y-74389808D01*
X136270236Y-74119309D01*
X136297943Y-73838000D01*
X136270236Y-73556691D01*
X136188182Y-73286192D01*
X136054932Y-73036899D01*
X135875608Y-72818392D01*
X135657101Y-72639068D01*
X135524142Y-72568000D01*
X135657101Y-72496932D01*
X135875608Y-72317608D01*
X136054932Y-72099101D01*
X136188182Y-71849808D01*
X136270236Y-71579309D01*
X136297943Y-71298000D01*
X136270236Y-71016691D01*
X136188182Y-70746192D01*
X136054932Y-70496899D01*
X135875608Y-70278392D01*
X135762518Y-70185581D01*
X135780482Y-70183812D01*
X135900180Y-70147502D01*
X136010494Y-70088537D01*
X136107185Y-70009185D01*
X136186537Y-69912494D01*
X136245502Y-69802180D01*
X136281812Y-69682482D01*
X136294072Y-69558000D01*
X136294072Y-67958000D01*
X136282746Y-67843000D01*
X141370542Y-67843000D01*
X141277068Y-67956899D01*
M02*
