G04 #@! TF.GenerationSoftware,KiCad,Pcbnew,(5.1.4)-1*
G04 #@! TF.CreationDate,2020-12-06T02:09:58+01:00*
G04 #@! TF.ProjectId,Delay Line,44656c61-7920-44c6-996e-652e6b696361,rev?*
G04 #@! TF.SameCoordinates,Original*
G04 #@! TF.FileFunction,Copper,L2,Bot*
G04 #@! TF.FilePolarity,Positive*
%FSLAX46Y46*%
G04 Gerber Fmt 4.6, Leading zero omitted, Abs format (unit mm)*
G04 Created by KiCad (PCBNEW (5.1.4)-1) date 2020-12-06 02:09:58*
%MOMM*%
%LPD*%
G04 APERTURE LIST*
%ADD10R,1.600000X1.600000*%
%ADD11O,1.600000X1.600000*%
%ADD12R,1.200000X0.750000*%
%ADD13C,0.800000*%
%ADD14C,0.250000*%
%ADD15C,0.254000*%
G04 APERTURE END LIST*
D10*
X134493000Y-68783200D03*
D11*
X142113000Y-84023200D03*
X134493000Y-71323200D03*
X142113000Y-81483200D03*
X134493000Y-73863200D03*
X142113000Y-78943200D03*
X134493000Y-76403200D03*
X142113000Y-76403200D03*
X134493000Y-78943200D03*
X142113000Y-73863200D03*
X134493000Y-81483200D03*
X142113000Y-71323200D03*
X134493000Y-84023200D03*
X142113000Y-68783200D03*
D12*
X139532000Y-69875400D03*
X137632000Y-69875400D03*
X139583000Y-72009000D03*
X137683000Y-72009000D03*
X139583000Y-74091800D03*
X137683000Y-74091800D03*
D13*
X136666000Y-71249300D03*
X136661200Y-73363300D03*
X135709800Y-73760100D03*
X136477900Y-77524900D03*
X136673000Y-78975900D03*
D14*
X136666000Y-71249300D02*
X136516200Y-71399100D01*
X136516200Y-71399100D02*
X136516200Y-71399200D01*
X136516200Y-71399200D02*
X136516200Y-71868800D01*
X136516200Y-71868800D02*
X136516200Y-71958300D01*
X136516200Y-71958300D02*
X136673200Y-72115300D01*
X136673200Y-72115300D02*
X136673200Y-72277800D01*
X136673200Y-72277800D02*
X136868300Y-72472900D01*
X136868300Y-72472900D02*
X136994100Y-72598700D01*
X136994100Y-72598700D02*
X137687100Y-73291700D01*
X137687100Y-73291700D02*
X138459100Y-73291700D01*
X138459100Y-73291700D02*
X138708100Y-73540700D01*
X138708100Y-73540700D02*
X138708100Y-73618700D01*
X138708100Y-73618700D02*
X138858000Y-73768600D01*
X138858000Y-73768600D02*
X138931200Y-73841800D01*
X138931200Y-73841800D02*
X138983000Y-73841800D01*
X138983000Y-73841800D02*
X139108000Y-73841800D01*
X139108000Y-73841800D02*
X139583000Y-74091800D01*
X139532000Y-69875400D02*
X139057000Y-70125400D01*
X139057000Y-70125400D02*
X139057000Y-70250400D01*
X139057000Y-70250400D02*
X139057000Y-70302200D01*
X139057000Y-70302200D02*
X139023500Y-70335700D01*
X139023500Y-70335700D02*
X139023500Y-70453300D01*
X139023500Y-70453300D02*
X138986700Y-70490100D01*
X138986700Y-70490100D02*
X138986700Y-70563000D01*
X138986700Y-70563000D02*
X138158000Y-71391700D01*
X138158000Y-71391700D02*
X138158000Y-71634000D01*
X138158000Y-71634000D02*
X138158000Y-71759000D01*
X138158000Y-71759000D02*
X137683000Y-72009000D01*
X139583000Y-74091800D02*
X139108000Y-74341800D01*
X139108000Y-74341800D02*
X139108000Y-74466800D01*
X139108000Y-74466800D02*
X139108000Y-74518600D01*
X139108000Y-74518600D02*
X137203400Y-76423200D01*
X137203400Y-76423200D02*
X137203400Y-77825400D01*
X137203400Y-77825400D02*
X136778400Y-78250400D01*
X136778400Y-78250400D02*
X136372500Y-78250400D01*
X136372500Y-78250400D02*
X135947500Y-78675400D01*
X135947500Y-78675400D02*
X135718100Y-78904800D01*
X135718100Y-78904800D02*
X135718100Y-81990700D01*
X135718100Y-81990700D02*
X134493000Y-83215800D01*
X134493000Y-83215800D02*
X134493000Y-84023200D01*
X137683000Y-72009000D02*
X137208000Y-71759000D01*
X137208000Y-71759000D02*
X137083000Y-71759000D01*
X137083000Y-71759000D02*
X137031200Y-71759000D01*
X137031200Y-71759000D02*
X136958000Y-71685800D01*
X136958000Y-71685800D02*
X136666000Y-71393800D01*
X136666000Y-71393800D02*
X136666000Y-71249300D01*
X134493000Y-73863200D02*
X134493000Y-73585000D01*
X134493000Y-73585000D02*
X134725600Y-73352400D01*
X134725600Y-73352400D02*
X135302100Y-72775900D01*
X135302100Y-72775900D02*
X135386000Y-72775900D01*
X135386000Y-72775900D02*
X135603500Y-72558400D01*
X137632000Y-69875400D02*
X137157000Y-70125400D01*
X137157000Y-70125400D02*
X137032000Y-70125400D01*
X137032000Y-70125400D02*
X136980200Y-70125400D01*
X136980200Y-70125400D02*
X136966500Y-70139100D01*
X136966500Y-70139100D02*
X136206100Y-70139100D01*
X136206100Y-70139100D02*
X135555800Y-70789400D01*
X135555800Y-70789400D02*
X135533500Y-70811700D01*
X135533500Y-70811700D02*
X135533500Y-70992200D01*
X135533500Y-70992200D02*
X135533500Y-72275800D01*
X135533500Y-72275800D02*
X135533500Y-72488400D01*
X135533500Y-72488400D02*
X135603500Y-72558400D01*
X136661200Y-73363300D02*
X136104700Y-72806800D01*
X136104700Y-72806800D02*
X135851900Y-72806800D01*
X135851900Y-72806800D02*
X135603500Y-72558400D01*
X135709800Y-73760100D02*
X135709800Y-75887400D01*
X135709800Y-75887400D02*
X135718100Y-75895700D01*
X135718100Y-75895700D02*
X135718100Y-76910700D01*
X135718100Y-76910700D02*
X134493000Y-78135800D01*
X134493000Y-78135800D02*
X134493000Y-78943200D01*
X139583000Y-72009000D02*
X140058000Y-72259000D01*
X140058000Y-72259000D02*
X140058000Y-72384000D01*
X140058000Y-72384000D02*
X140058000Y-72435800D01*
X140058000Y-72435800D02*
X140131200Y-72509000D01*
X140131200Y-72509000D02*
X140419000Y-72796800D01*
X140419000Y-72796800D02*
X140439100Y-72796800D01*
X140439100Y-72796800D02*
X140978000Y-73335700D01*
X140978000Y-73335700D02*
X140978000Y-73387500D01*
X140978000Y-73387500D02*
X140978000Y-73512500D01*
X140978000Y-73512500D02*
X140978000Y-74012500D01*
X140978000Y-74012500D02*
X140978000Y-74137500D01*
X140978000Y-74137500D02*
X140978000Y-74796100D01*
X140978000Y-74796100D02*
X140978000Y-74847900D01*
X140978000Y-74847900D02*
X138403200Y-77422700D01*
X138403200Y-77422700D02*
X138403200Y-78322400D01*
X138403200Y-78322400D02*
X137498100Y-79227500D01*
X137498100Y-79227500D02*
X137498100Y-79317700D01*
X137498100Y-79317700D02*
X136268200Y-80547600D01*
X136268200Y-80547600D02*
X136268200Y-82218500D01*
X136268200Y-82218500D02*
X135716200Y-82770500D01*
X135716200Y-82770500D02*
X135716200Y-84529900D01*
X135716200Y-84529900D02*
X134999700Y-85246400D01*
X134999700Y-85246400D02*
X133986300Y-85246400D01*
X133986300Y-85246400D02*
X133269800Y-84529900D01*
X133269800Y-84529900D02*
X133269800Y-83516500D01*
X133269800Y-83516500D02*
X133269800Y-83260100D01*
X133269800Y-83260100D02*
X133271100Y-83258800D01*
X133271100Y-83258800D02*
X133271100Y-83238800D01*
X133271100Y-83238800D02*
X133271100Y-82928000D01*
X133271100Y-82928000D02*
X133271500Y-82927600D01*
X133271500Y-82927600D02*
X133271500Y-81929000D01*
X133271500Y-81929000D02*
X133272900Y-81927600D01*
X133272900Y-81927600D02*
X133272900Y-81907600D01*
X133272900Y-81907600D02*
X133272900Y-80598200D01*
X133272900Y-80598200D02*
X133274700Y-80596400D01*
X133274700Y-80596400D02*
X133274700Y-80576400D01*
X133274700Y-80576400D02*
X133274700Y-80387900D01*
X133274700Y-80387900D02*
X133275000Y-80387600D01*
X133275000Y-80387600D02*
X133275000Y-80161200D01*
X133275000Y-80161200D02*
X134493000Y-78943200D01*
X137683000Y-74091800D02*
X137208000Y-73841800D01*
X137208000Y-73841800D02*
X137208000Y-73716800D01*
X137208000Y-73716800D02*
X137208000Y-73665000D01*
X137208000Y-73665000D02*
X137140000Y-73597000D01*
X137140000Y-73597000D02*
X137140000Y-73165000D01*
X137140000Y-73165000D02*
X136859500Y-72884500D01*
X136859500Y-72884500D02*
X136823900Y-72884500D01*
X136823900Y-72884500D02*
X136457500Y-72518100D01*
X136457500Y-72518100D02*
X135981000Y-72041600D01*
X135981000Y-72041600D02*
X135981000Y-71533000D01*
X135981000Y-71533000D02*
X135981000Y-70965600D01*
X135981000Y-70965600D02*
X136382300Y-70564300D01*
X136382300Y-70564300D02*
X136949700Y-70564300D01*
X136949700Y-70564300D02*
X137008100Y-70622700D01*
X137008100Y-70622700D02*
X137131700Y-70622700D01*
X137131700Y-70622700D02*
X137440100Y-70622700D01*
X137440100Y-70622700D02*
X138307300Y-70622700D01*
X138307300Y-70622700D02*
X138363100Y-70566900D01*
X138363100Y-70566900D02*
X138548500Y-70381500D01*
X138548500Y-70381500D02*
X138548500Y-70303900D01*
X138548500Y-70303900D02*
X138582000Y-70270400D01*
X138582000Y-70270400D02*
X138582000Y-69770400D01*
X138582000Y-69770400D02*
X138582000Y-69645400D01*
X138582000Y-69645400D02*
X138582000Y-69355400D01*
X138582000Y-69355400D02*
X138787000Y-69150400D01*
X138787000Y-69150400D02*
X138805800Y-69150400D01*
X138805800Y-69150400D02*
X138880900Y-69075300D01*
X138880900Y-69075300D02*
X139472300Y-69075300D01*
X139472300Y-69075300D02*
X139830900Y-69075300D01*
X139830900Y-69075300D02*
X139955900Y-69075300D01*
X139955900Y-69075300D02*
X140308100Y-69075300D01*
X140308100Y-69075300D02*
X141361300Y-70128500D01*
X141361300Y-70128500D02*
X142607900Y-70128500D01*
X142607900Y-70128500D02*
X143307700Y-70828300D01*
X143307700Y-70828300D02*
X143307700Y-71818100D01*
X143307700Y-71818100D02*
X143304000Y-71821800D01*
X143304000Y-71821800D02*
X143304000Y-74356500D01*
X143304000Y-74356500D02*
X143300400Y-74360100D01*
X143300400Y-74360100D02*
X143300400Y-76895000D01*
X143300400Y-76895000D02*
X143296600Y-76898800D01*
X143296600Y-76898800D02*
X143296600Y-79433500D01*
X143296600Y-79433500D02*
X142113000Y-80617100D01*
X142113000Y-80617100D02*
X142113000Y-81483200D01*
X136477900Y-77524900D02*
X136268200Y-77315200D01*
X136268200Y-77315200D02*
X136268200Y-75667900D01*
X136268200Y-75667900D02*
X136186500Y-75586200D01*
X136186500Y-75586200D02*
X136186500Y-73562600D01*
X136186500Y-73562600D02*
X135907300Y-73283400D01*
X135907300Y-73283400D02*
X135512300Y-73283400D01*
X135512300Y-73283400D02*
X135233100Y-73562600D01*
X135233100Y-73562600D02*
X135232900Y-73562800D01*
X135232900Y-73562800D02*
X135232900Y-74169700D01*
X135232900Y-74169700D02*
X134799500Y-74603100D01*
X134799500Y-74603100D02*
X134186500Y-74603100D01*
X134186500Y-74603100D02*
X133753100Y-74169700D01*
X133753100Y-74169700D02*
X133753100Y-73556700D01*
X133753100Y-73556700D02*
X133753100Y-72063100D01*
X133753100Y-72063100D02*
X134493000Y-71323200D01*
X136673000Y-78975900D02*
X136971700Y-78975900D01*
X136971700Y-78975900D02*
X137047500Y-78900100D01*
X137047500Y-78900100D02*
X137853100Y-78094500D01*
X137853100Y-78094500D02*
X137853100Y-77272900D01*
X137853100Y-77272900D02*
X140483100Y-74642900D01*
X140483100Y-74642900D02*
X140483100Y-74640500D01*
X140483100Y-74640500D02*
X140518000Y-74605600D01*
X140518000Y-74605600D02*
X140518000Y-74480600D01*
X140518000Y-74480600D02*
X140518000Y-73980600D01*
X140518000Y-73980600D02*
X140518000Y-73855600D01*
X140518000Y-73855600D02*
X140518000Y-73578000D01*
X140518000Y-73578000D02*
X140483100Y-73543100D01*
X140483100Y-73543100D02*
X140483100Y-73540700D01*
X140483100Y-73540700D02*
X140234100Y-73291700D01*
X140234100Y-73291700D02*
X139395700Y-73291700D01*
X139395700Y-73291700D02*
X138838000Y-72734000D01*
X138838000Y-72734000D02*
X138633000Y-72529000D01*
X138633000Y-72529000D02*
X138633000Y-71904000D01*
X138633000Y-71904000D02*
X138633000Y-71614000D01*
X138633000Y-71614000D02*
X138633000Y-71536400D01*
X138633000Y-71536400D02*
X138666500Y-71502900D01*
X138666500Y-71502900D02*
X138851900Y-71317500D01*
X138851900Y-71317500D02*
X138903600Y-71317500D01*
X138903600Y-71317500D02*
X138955400Y-71265700D01*
X138955400Y-71265700D02*
X139825100Y-71265700D01*
X139825100Y-71265700D02*
X139881900Y-71208900D01*
X139881900Y-71208900D02*
X140006900Y-71208900D01*
X140006900Y-71208900D02*
X140359100Y-71208900D01*
X140359100Y-71208900D02*
X140473400Y-71323200D01*
X140473400Y-71323200D02*
X142113000Y-71323200D01*
D15*
G36*
X134620000Y-83896200D02*
G01*
X134640000Y-83896200D01*
X134640000Y-84150200D01*
X134620000Y-84150200D01*
X134620000Y-84170200D01*
X134366000Y-84170200D01*
X134366000Y-84150200D01*
X134346000Y-84150200D01*
X134346000Y-83896200D01*
X134366000Y-83896200D01*
X134366000Y-83876200D01*
X134620000Y-83876200D01*
X134620000Y-83896200D01*
X134620000Y-83896200D01*
G37*
X134620000Y-83896200D02*
X134640000Y-83896200D01*
X134640000Y-84150200D01*
X134620000Y-84150200D01*
X134620000Y-84170200D01*
X134366000Y-84170200D01*
X134366000Y-84150200D01*
X134346000Y-84150200D01*
X134346000Y-83896200D01*
X134366000Y-83896200D01*
X134366000Y-83876200D01*
X134620000Y-83876200D01*
X134620000Y-83896200D01*
G36*
X138738820Y-75056302D02*
G01*
X138858518Y-75092612D01*
X138949614Y-75101584D01*
X137342098Y-76709101D01*
X137313100Y-76732899D01*
X137289302Y-76761897D01*
X137289301Y-76761898D01*
X137239406Y-76822695D01*
X137137674Y-76720963D01*
X137028200Y-76647815D01*
X137028200Y-75705222D01*
X137031876Y-75667899D01*
X137028200Y-75630577D01*
X137028200Y-75630567D01*
X137017203Y-75518914D01*
X136973746Y-75375653D01*
X136946500Y-75324680D01*
X136946500Y-75088966D01*
X136958518Y-75092612D01*
X137083000Y-75104872D01*
X138283000Y-75104872D01*
X138407482Y-75092612D01*
X138527180Y-75056302D01*
X138633000Y-74999739D01*
X138738820Y-75056302D01*
X138738820Y-75056302D01*
G37*
X138738820Y-75056302D02*
X138858518Y-75092612D01*
X138949614Y-75101584D01*
X137342098Y-76709101D01*
X137313100Y-76732899D01*
X137289302Y-76761897D01*
X137289301Y-76761898D01*
X137239406Y-76822695D01*
X137137674Y-76720963D01*
X137028200Y-76647815D01*
X137028200Y-75705222D01*
X137031876Y-75667899D01*
X137028200Y-75630577D01*
X137028200Y-75630567D01*
X137017203Y-75518914D01*
X136973746Y-75375653D01*
X136946500Y-75324680D01*
X136946500Y-75088966D01*
X136958518Y-75092612D01*
X137083000Y-75104872D01*
X138283000Y-75104872D01*
X138407482Y-75092612D01*
X138527180Y-75056302D01*
X138633000Y-74999739D01*
X138738820Y-75056302D01*
G36*
X139730000Y-74218800D02*
G01*
X139710000Y-74218800D01*
X139710000Y-74238800D01*
X139456000Y-74238800D01*
X139456000Y-74218800D01*
X139436000Y-74218800D01*
X139436000Y-74051700D01*
X139730000Y-74051700D01*
X139730000Y-74218800D01*
X139730000Y-74218800D01*
G37*
X139730000Y-74218800D02*
X139710000Y-74218800D01*
X139710000Y-74238800D01*
X139456000Y-74238800D01*
X139456000Y-74218800D01*
X139436000Y-74218800D01*
X139436000Y-74051700D01*
X139730000Y-74051700D01*
X139730000Y-74218800D01*
G36*
X137810000Y-71882000D02*
G01*
X137830000Y-71882000D01*
X137830000Y-72136000D01*
X137810000Y-72136000D01*
X137810000Y-72156000D01*
X137556000Y-72156000D01*
X137556000Y-72136000D01*
X137536000Y-72136000D01*
X137536000Y-71882000D01*
X137556000Y-71882000D01*
X137556000Y-71862000D01*
X137810000Y-71862000D01*
X137810000Y-71882000D01*
X137810000Y-71882000D01*
G37*
X137810000Y-71882000D02*
X137830000Y-71882000D01*
X137830000Y-72136000D01*
X137810000Y-72136000D01*
X137810000Y-72156000D01*
X137556000Y-72156000D01*
X137556000Y-72136000D01*
X137536000Y-72136000D01*
X137536000Y-71882000D01*
X137556000Y-71882000D01*
X137556000Y-71862000D01*
X137810000Y-71862000D01*
X137810000Y-71882000D01*
G36*
X139679000Y-70002400D02*
G01*
X139659000Y-70002400D01*
X139659000Y-70022400D01*
X139405000Y-70022400D01*
X139405000Y-70002400D01*
X139385000Y-70002400D01*
X139385000Y-69835300D01*
X139679000Y-69835300D01*
X139679000Y-70002400D01*
X139679000Y-70002400D01*
G37*
X139679000Y-70002400D02*
X139659000Y-70002400D01*
X139659000Y-70022400D01*
X139405000Y-70022400D01*
X139405000Y-70002400D01*
X139385000Y-70002400D01*
X139385000Y-69835300D01*
X139679000Y-69835300D01*
X139679000Y-70002400D01*
M02*
