G04 #@! TF.GenerationSoftware,KiCad,Pcbnew,(5.1.4)-1*
G04 #@! TF.CreationDate,2020-12-06T02:09:58+01:00*
G04 #@! TF.ProjectId,Delay Line,44656c61-7920-44c6-996e-652e6b696361,rev?*
G04 #@! TF.SameCoordinates,Original*
G04 #@! TF.FileFunction,Soldermask,Top*
G04 #@! TF.FilePolarity,Negative*
%FSLAX46Y46*%
G04 Gerber Fmt 4.6, Leading zero omitted, Abs format (unit mm)*
G04 Created by KiCad (PCBNEW (5.1.4)-1) date 2020-12-06 02:09:58*
%MOMM*%
%LPD*%
G04 APERTURE LIST*
%ADD10C,0.100000*%
G04 APERTURE END LIST*
D10*
G36*
X142279823Y-83184513D02*
G01*
X142440242Y-83233176D01*
X142572906Y-83304086D01*
X142588078Y-83312196D01*
X142717659Y-83418541D01*
X142824004Y-83548122D01*
X142824005Y-83548124D01*
X142903024Y-83695958D01*
X142951687Y-83856377D01*
X142968117Y-84023200D01*
X142951687Y-84190023D01*
X142903024Y-84350442D01*
X142832114Y-84483106D01*
X142824004Y-84498278D01*
X142717659Y-84627859D01*
X142588078Y-84734204D01*
X142588076Y-84734205D01*
X142440242Y-84813224D01*
X142279823Y-84861887D01*
X142154804Y-84874200D01*
X142071196Y-84874200D01*
X141946177Y-84861887D01*
X141785758Y-84813224D01*
X141637924Y-84734205D01*
X141637922Y-84734204D01*
X141508341Y-84627859D01*
X141401996Y-84498278D01*
X141393886Y-84483106D01*
X141322976Y-84350442D01*
X141274313Y-84190023D01*
X141257883Y-84023200D01*
X141274313Y-83856377D01*
X141322976Y-83695958D01*
X141401995Y-83548124D01*
X141401996Y-83548122D01*
X141508341Y-83418541D01*
X141637922Y-83312196D01*
X141653094Y-83304086D01*
X141785758Y-83233176D01*
X141946177Y-83184513D01*
X142071196Y-83172200D01*
X142154804Y-83172200D01*
X142279823Y-83184513D01*
X142279823Y-83184513D01*
G37*
G36*
X134659823Y-83184513D02*
G01*
X134820242Y-83233176D01*
X134952906Y-83304086D01*
X134968078Y-83312196D01*
X135097659Y-83418541D01*
X135204004Y-83548122D01*
X135204005Y-83548124D01*
X135283024Y-83695958D01*
X135331687Y-83856377D01*
X135348117Y-84023200D01*
X135331687Y-84190023D01*
X135283024Y-84350442D01*
X135212114Y-84483106D01*
X135204004Y-84498278D01*
X135097659Y-84627859D01*
X134968078Y-84734204D01*
X134968076Y-84734205D01*
X134820242Y-84813224D01*
X134659823Y-84861887D01*
X134534804Y-84874200D01*
X134451196Y-84874200D01*
X134326177Y-84861887D01*
X134165758Y-84813224D01*
X134017924Y-84734205D01*
X134017922Y-84734204D01*
X133888341Y-84627859D01*
X133781996Y-84498278D01*
X133773886Y-84483106D01*
X133702976Y-84350442D01*
X133654313Y-84190023D01*
X133637883Y-84023200D01*
X133654313Y-83856377D01*
X133702976Y-83695958D01*
X133781995Y-83548124D01*
X133781996Y-83548122D01*
X133888341Y-83418541D01*
X134017922Y-83312196D01*
X134033094Y-83304086D01*
X134165758Y-83233176D01*
X134326177Y-83184513D01*
X134451196Y-83172200D01*
X134534804Y-83172200D01*
X134659823Y-83184513D01*
X134659823Y-83184513D01*
G37*
G36*
X138311000Y-84676600D02*
G01*
X137009000Y-84676600D01*
X137009000Y-83674600D01*
X138311000Y-83674600D01*
X138311000Y-84676600D01*
X138311000Y-84676600D01*
G37*
G36*
X140511000Y-84600400D02*
G01*
X139209000Y-84600400D01*
X139209000Y-83598400D01*
X140511000Y-83598400D01*
X140511000Y-84600400D01*
X140511000Y-84600400D01*
G37*
G36*
X138311000Y-82873200D02*
G01*
X137009000Y-82873200D01*
X137009000Y-81871200D01*
X138311000Y-81871200D01*
X138311000Y-82873200D01*
X138311000Y-82873200D01*
G37*
G36*
X140536400Y-82873200D02*
G01*
X139234400Y-82873200D01*
X139234400Y-81871200D01*
X140536400Y-81871200D01*
X140536400Y-82873200D01*
X140536400Y-82873200D01*
G37*
G36*
X142279823Y-80644513D02*
G01*
X142440242Y-80693176D01*
X142572906Y-80764086D01*
X142588078Y-80772196D01*
X142717659Y-80878541D01*
X142824004Y-81008122D01*
X142824005Y-81008124D01*
X142903024Y-81155958D01*
X142951687Y-81316377D01*
X142968117Y-81483200D01*
X142951687Y-81650023D01*
X142903024Y-81810442D01*
X142870548Y-81871200D01*
X142824004Y-81958278D01*
X142717659Y-82087859D01*
X142588078Y-82194204D01*
X142588076Y-82194205D01*
X142440242Y-82273224D01*
X142279823Y-82321887D01*
X142154804Y-82334200D01*
X142071196Y-82334200D01*
X141946177Y-82321887D01*
X141785758Y-82273224D01*
X141637924Y-82194205D01*
X141637922Y-82194204D01*
X141508341Y-82087859D01*
X141401996Y-81958278D01*
X141355452Y-81871200D01*
X141322976Y-81810442D01*
X141274313Y-81650023D01*
X141257883Y-81483200D01*
X141274313Y-81316377D01*
X141322976Y-81155958D01*
X141401995Y-81008124D01*
X141401996Y-81008122D01*
X141508341Y-80878541D01*
X141637922Y-80772196D01*
X141653094Y-80764086D01*
X141785758Y-80693176D01*
X141946177Y-80644513D01*
X142071196Y-80632200D01*
X142154804Y-80632200D01*
X142279823Y-80644513D01*
X142279823Y-80644513D01*
G37*
G36*
X134659823Y-80644513D02*
G01*
X134820242Y-80693176D01*
X134952906Y-80764086D01*
X134968078Y-80772196D01*
X135097659Y-80878541D01*
X135204004Y-81008122D01*
X135204005Y-81008124D01*
X135283024Y-81155958D01*
X135331687Y-81316377D01*
X135348117Y-81483200D01*
X135331687Y-81650023D01*
X135283024Y-81810442D01*
X135250548Y-81871200D01*
X135204004Y-81958278D01*
X135097659Y-82087859D01*
X134968078Y-82194204D01*
X134968076Y-82194205D01*
X134820242Y-82273224D01*
X134659823Y-82321887D01*
X134534804Y-82334200D01*
X134451196Y-82334200D01*
X134326177Y-82321887D01*
X134165758Y-82273224D01*
X134017924Y-82194205D01*
X134017922Y-82194204D01*
X133888341Y-82087859D01*
X133781996Y-81958278D01*
X133735452Y-81871200D01*
X133702976Y-81810442D01*
X133654313Y-81650023D01*
X133637883Y-81483200D01*
X133654313Y-81316377D01*
X133702976Y-81155958D01*
X133781995Y-81008124D01*
X133781996Y-81008122D01*
X133888341Y-80878541D01*
X134017922Y-80772196D01*
X134033094Y-80764086D01*
X134165758Y-80693176D01*
X134326177Y-80644513D01*
X134451196Y-80632200D01*
X134534804Y-80632200D01*
X134659823Y-80644513D01*
X134659823Y-80644513D01*
G37*
G36*
X138311000Y-81120600D02*
G01*
X137009000Y-81120600D01*
X137009000Y-80118600D01*
X138311000Y-80118600D01*
X138311000Y-81120600D01*
X138311000Y-81120600D01*
G37*
G36*
X140511000Y-81095200D02*
G01*
X139209000Y-81095200D01*
X139209000Y-80093200D01*
X140511000Y-80093200D01*
X140511000Y-81095200D01*
X140511000Y-81095200D01*
G37*
G36*
X134659823Y-78104513D02*
G01*
X134820242Y-78153176D01*
X134952906Y-78224086D01*
X134968078Y-78232196D01*
X135097659Y-78338541D01*
X135204004Y-78468122D01*
X135204005Y-78468124D01*
X135283024Y-78615958D01*
X135331687Y-78776377D01*
X135348117Y-78943200D01*
X135331687Y-79110023D01*
X135283024Y-79270442D01*
X135212114Y-79403106D01*
X135204004Y-79418278D01*
X135097659Y-79547859D01*
X134968078Y-79654204D01*
X134968076Y-79654205D01*
X134820242Y-79733224D01*
X134659823Y-79781887D01*
X134534804Y-79794200D01*
X134451196Y-79794200D01*
X134326177Y-79781887D01*
X134165758Y-79733224D01*
X134017924Y-79654205D01*
X134017922Y-79654204D01*
X133888341Y-79547859D01*
X133781996Y-79418278D01*
X133773886Y-79403106D01*
X133702976Y-79270442D01*
X133654313Y-79110023D01*
X133637883Y-78943200D01*
X133654313Y-78776377D01*
X133702976Y-78615958D01*
X133781995Y-78468124D01*
X133781996Y-78468122D01*
X133888341Y-78338541D01*
X134017922Y-78232196D01*
X134033094Y-78224086D01*
X134165758Y-78153176D01*
X134326177Y-78104513D01*
X134451196Y-78092200D01*
X134534804Y-78092200D01*
X134659823Y-78104513D01*
X134659823Y-78104513D01*
G37*
G36*
X142279823Y-78104513D02*
G01*
X142440242Y-78153176D01*
X142572906Y-78224086D01*
X142588078Y-78232196D01*
X142717659Y-78338541D01*
X142824004Y-78468122D01*
X142824005Y-78468124D01*
X142903024Y-78615958D01*
X142951687Y-78776377D01*
X142968117Y-78943200D01*
X142951687Y-79110023D01*
X142903024Y-79270442D01*
X142832114Y-79403106D01*
X142824004Y-79418278D01*
X142717659Y-79547859D01*
X142588078Y-79654204D01*
X142588076Y-79654205D01*
X142440242Y-79733224D01*
X142279823Y-79781887D01*
X142154804Y-79794200D01*
X142071196Y-79794200D01*
X141946177Y-79781887D01*
X141785758Y-79733224D01*
X141637924Y-79654205D01*
X141637922Y-79654204D01*
X141508341Y-79547859D01*
X141401996Y-79418278D01*
X141393886Y-79403106D01*
X141322976Y-79270442D01*
X141274313Y-79110023D01*
X141257883Y-78943200D01*
X141274313Y-78776377D01*
X141322976Y-78615958D01*
X141401995Y-78468124D01*
X141401996Y-78468122D01*
X141508341Y-78338541D01*
X141637922Y-78232196D01*
X141653094Y-78224086D01*
X141785758Y-78153176D01*
X141946177Y-78104513D01*
X142071196Y-78092200D01*
X142154804Y-78092200D01*
X142279823Y-78104513D01*
X142279823Y-78104513D01*
G37*
G36*
X138311000Y-79444200D02*
G01*
X137009000Y-79444200D01*
X137009000Y-78442200D01*
X138311000Y-78442200D01*
X138311000Y-79444200D01*
X138311000Y-79444200D01*
G37*
G36*
X140338100Y-79406100D02*
G01*
X139036100Y-79406100D01*
X139036100Y-78404100D01*
X140338100Y-78404100D01*
X140338100Y-79406100D01*
X140338100Y-79406100D01*
G37*
G36*
X140511000Y-77767800D02*
G01*
X139209000Y-77767800D01*
X139209000Y-76765800D01*
X140511000Y-76765800D01*
X140511000Y-77767800D01*
X140511000Y-77767800D01*
G37*
G36*
X138311000Y-77767800D02*
G01*
X137009000Y-77767800D01*
X137009000Y-76765800D01*
X138311000Y-76765800D01*
X138311000Y-77767800D01*
X138311000Y-77767800D01*
G37*
G36*
X134659823Y-75564513D02*
G01*
X134820242Y-75613176D01*
X134952906Y-75684086D01*
X134968078Y-75692196D01*
X135097659Y-75798541D01*
X135204004Y-75928122D01*
X135204005Y-75928124D01*
X135283024Y-76075958D01*
X135331687Y-76236377D01*
X135348117Y-76403200D01*
X135331687Y-76570023D01*
X135283024Y-76730442D01*
X135212114Y-76863106D01*
X135204004Y-76878278D01*
X135097659Y-77007859D01*
X134968078Y-77114204D01*
X134968076Y-77114205D01*
X134820242Y-77193224D01*
X134659823Y-77241887D01*
X134534804Y-77254200D01*
X134451196Y-77254200D01*
X134326177Y-77241887D01*
X134165758Y-77193224D01*
X134017924Y-77114205D01*
X134017922Y-77114204D01*
X133888341Y-77007859D01*
X133781996Y-76878278D01*
X133773886Y-76863106D01*
X133702976Y-76730442D01*
X133654313Y-76570023D01*
X133637883Y-76403200D01*
X133654313Y-76236377D01*
X133702976Y-76075958D01*
X133781995Y-75928124D01*
X133781996Y-75928122D01*
X133888341Y-75798541D01*
X134017922Y-75692196D01*
X134033094Y-75684086D01*
X134165758Y-75613176D01*
X134326177Y-75564513D01*
X134451196Y-75552200D01*
X134534804Y-75552200D01*
X134659823Y-75564513D01*
X134659823Y-75564513D01*
G37*
G36*
X142279823Y-75564513D02*
G01*
X142440242Y-75613176D01*
X142572906Y-75684086D01*
X142588078Y-75692196D01*
X142717659Y-75798541D01*
X142824004Y-75928122D01*
X142824005Y-75928124D01*
X142903024Y-76075958D01*
X142951687Y-76236377D01*
X142968117Y-76403200D01*
X142951687Y-76570023D01*
X142903024Y-76730442D01*
X142832114Y-76863106D01*
X142824004Y-76878278D01*
X142717659Y-77007859D01*
X142588078Y-77114204D01*
X142588076Y-77114205D01*
X142440242Y-77193224D01*
X142279823Y-77241887D01*
X142154804Y-77254200D01*
X142071196Y-77254200D01*
X141946177Y-77241887D01*
X141785758Y-77193224D01*
X141637924Y-77114205D01*
X141637922Y-77114204D01*
X141508341Y-77007859D01*
X141401996Y-76878278D01*
X141393886Y-76863106D01*
X141322976Y-76730442D01*
X141274313Y-76570023D01*
X141257883Y-76403200D01*
X141274313Y-76236377D01*
X141322976Y-76075958D01*
X141401995Y-75928124D01*
X141401996Y-75928122D01*
X141508341Y-75798541D01*
X141637922Y-75692196D01*
X141653094Y-75684086D01*
X141785758Y-75613176D01*
X141946177Y-75564513D01*
X142071196Y-75552200D01*
X142154804Y-75552200D01*
X142279823Y-75564513D01*
X142279823Y-75564513D01*
G37*
G36*
X140554000Y-76090600D02*
G01*
X136102000Y-76090600D01*
X136102000Y-74538600D01*
X140554000Y-74538600D01*
X140554000Y-76090600D01*
X140554000Y-76090600D01*
G37*
G36*
X134659823Y-73024513D02*
G01*
X134820242Y-73073176D01*
X134952906Y-73144086D01*
X134968078Y-73152196D01*
X135097659Y-73258541D01*
X135204004Y-73388122D01*
X135204005Y-73388124D01*
X135283024Y-73535958D01*
X135331687Y-73696377D01*
X135348117Y-73863200D01*
X135331687Y-74030023D01*
X135283024Y-74190442D01*
X135212114Y-74323106D01*
X135204004Y-74338278D01*
X135097659Y-74467859D01*
X134968078Y-74574204D01*
X134968076Y-74574205D01*
X134820242Y-74653224D01*
X134659823Y-74701887D01*
X134534804Y-74714200D01*
X134451196Y-74714200D01*
X134326177Y-74701887D01*
X134165758Y-74653224D01*
X134017924Y-74574205D01*
X134017922Y-74574204D01*
X133888341Y-74467859D01*
X133781996Y-74338278D01*
X133773886Y-74323106D01*
X133702976Y-74190442D01*
X133654313Y-74030023D01*
X133637883Y-73863200D01*
X133654313Y-73696377D01*
X133702976Y-73535958D01*
X133781995Y-73388124D01*
X133781996Y-73388122D01*
X133888341Y-73258541D01*
X134017922Y-73152196D01*
X134033094Y-73144086D01*
X134165758Y-73073176D01*
X134326177Y-73024513D01*
X134451196Y-73012200D01*
X134534804Y-73012200D01*
X134659823Y-73024513D01*
X134659823Y-73024513D01*
G37*
G36*
X142279823Y-73024513D02*
G01*
X142440242Y-73073176D01*
X142572906Y-73144086D01*
X142588078Y-73152196D01*
X142717659Y-73258541D01*
X142824004Y-73388122D01*
X142824005Y-73388124D01*
X142903024Y-73535958D01*
X142951687Y-73696377D01*
X142968117Y-73863200D01*
X142951687Y-74030023D01*
X142903024Y-74190442D01*
X142832114Y-74323106D01*
X142824004Y-74338278D01*
X142717659Y-74467859D01*
X142588078Y-74574204D01*
X142588076Y-74574205D01*
X142440242Y-74653224D01*
X142279823Y-74701887D01*
X142154804Y-74714200D01*
X142071196Y-74714200D01*
X141946177Y-74701887D01*
X141785758Y-74653224D01*
X141637924Y-74574205D01*
X141637922Y-74574204D01*
X141508341Y-74467859D01*
X141401996Y-74338278D01*
X141393886Y-74323106D01*
X141322976Y-74190442D01*
X141274313Y-74030023D01*
X141257883Y-73863200D01*
X141274313Y-73696377D01*
X141322976Y-73535958D01*
X141401995Y-73388124D01*
X141401996Y-73388122D01*
X141508341Y-73258541D01*
X141637922Y-73152196D01*
X141653094Y-73144086D01*
X141785758Y-73073176D01*
X141946177Y-73024513D01*
X142071196Y-73012200D01*
X142154804Y-73012200D01*
X142279823Y-73024513D01*
X142279823Y-73024513D01*
G37*
G36*
X142279823Y-70484513D02*
G01*
X142440242Y-70533176D01*
X142572906Y-70604086D01*
X142588078Y-70612196D01*
X142717659Y-70718541D01*
X142824004Y-70848122D01*
X142824005Y-70848124D01*
X142903024Y-70995958D01*
X142951687Y-71156377D01*
X142968117Y-71323200D01*
X142951687Y-71490023D01*
X142903024Y-71650442D01*
X142832114Y-71783106D01*
X142824004Y-71798278D01*
X142717659Y-71927859D01*
X142588078Y-72034204D01*
X142588076Y-72034205D01*
X142440242Y-72113224D01*
X142279823Y-72161887D01*
X142154804Y-72174200D01*
X142071196Y-72174200D01*
X141946177Y-72161887D01*
X141785758Y-72113224D01*
X141637924Y-72034205D01*
X141637922Y-72034204D01*
X141508341Y-71927859D01*
X141401996Y-71798278D01*
X141393886Y-71783106D01*
X141322976Y-71650442D01*
X141274313Y-71490023D01*
X141257883Y-71323200D01*
X141274313Y-71156377D01*
X141322976Y-70995958D01*
X141401995Y-70848124D01*
X141401996Y-70848122D01*
X141508341Y-70718541D01*
X141637922Y-70612196D01*
X141653094Y-70604086D01*
X141785758Y-70533176D01*
X141946177Y-70484513D01*
X142071196Y-70472200D01*
X142154804Y-70472200D01*
X142279823Y-70484513D01*
X142279823Y-70484513D01*
G37*
G36*
X134659823Y-70484513D02*
G01*
X134820242Y-70533176D01*
X134952906Y-70604086D01*
X134968078Y-70612196D01*
X135097659Y-70718541D01*
X135204004Y-70848122D01*
X135204005Y-70848124D01*
X135283024Y-70995958D01*
X135331687Y-71156377D01*
X135348117Y-71323200D01*
X135331687Y-71490023D01*
X135283024Y-71650442D01*
X135212114Y-71783106D01*
X135204004Y-71798278D01*
X135097659Y-71927859D01*
X134968078Y-72034204D01*
X134968076Y-72034205D01*
X134820242Y-72113224D01*
X134659823Y-72161887D01*
X134534804Y-72174200D01*
X134451196Y-72174200D01*
X134326177Y-72161887D01*
X134165758Y-72113224D01*
X134017924Y-72034205D01*
X134017922Y-72034204D01*
X133888341Y-71927859D01*
X133781996Y-71798278D01*
X133773886Y-71783106D01*
X133702976Y-71650442D01*
X133654313Y-71490023D01*
X133637883Y-71323200D01*
X133654313Y-71156377D01*
X133702976Y-70995958D01*
X133781995Y-70848124D01*
X133781996Y-70848122D01*
X133888341Y-70718541D01*
X134017922Y-70612196D01*
X134033094Y-70604086D01*
X134165758Y-70533176D01*
X134326177Y-70484513D01*
X134451196Y-70472200D01*
X134534804Y-70472200D01*
X134659823Y-70484513D01*
X134659823Y-70484513D01*
G37*
G36*
X140554000Y-70190600D02*
G01*
X136102000Y-70190600D01*
X136102000Y-68638600D01*
X140554000Y-68638600D01*
X140554000Y-70190600D01*
X140554000Y-70190600D01*
G37*
G36*
X135344000Y-69634200D02*
G01*
X133642000Y-69634200D01*
X133642000Y-67932200D01*
X135344000Y-67932200D01*
X135344000Y-69634200D01*
X135344000Y-69634200D01*
G37*
G36*
X142279823Y-67944513D02*
G01*
X142440242Y-67993176D01*
X142572906Y-68064086D01*
X142588078Y-68072196D01*
X142717659Y-68178541D01*
X142824004Y-68308122D01*
X142824005Y-68308124D01*
X142903024Y-68455958D01*
X142951687Y-68616377D01*
X142968117Y-68783200D01*
X142951687Y-68950023D01*
X142903024Y-69110442D01*
X142832114Y-69243106D01*
X142824004Y-69258278D01*
X142717659Y-69387859D01*
X142588078Y-69494204D01*
X142588076Y-69494205D01*
X142440242Y-69573224D01*
X142279823Y-69621887D01*
X142154804Y-69634200D01*
X142071196Y-69634200D01*
X141946177Y-69621887D01*
X141785758Y-69573224D01*
X141637924Y-69494205D01*
X141637922Y-69494204D01*
X141508341Y-69387859D01*
X141401996Y-69258278D01*
X141393886Y-69243106D01*
X141322976Y-69110442D01*
X141274313Y-68950023D01*
X141257883Y-68783200D01*
X141274313Y-68616377D01*
X141322976Y-68455958D01*
X141401995Y-68308124D01*
X141401996Y-68308122D01*
X141508341Y-68178541D01*
X141637922Y-68072196D01*
X141653094Y-68064086D01*
X141785758Y-67993176D01*
X141946177Y-67944513D01*
X142071196Y-67932200D01*
X142154804Y-67932200D01*
X142279823Y-67944513D01*
X142279823Y-67944513D01*
G37*
M02*
