G04 #@! TF.GenerationSoftware,KiCad,Pcbnew,(5.1.4)-1*
G04 #@! TF.CreationDate,2020-12-06T02:09:58+01:00*
G04 #@! TF.ProjectId,Delay Line,44656c61-7920-44c6-996e-652e6b696361,rev?*
G04 #@! TF.SameCoordinates,Original*
G04 #@! TF.FileFunction,Legend,Bot*
G04 #@! TF.FilePolarity,Positive*
%FSLAX46Y46*%
G04 Gerber Fmt 4.6, Leading zero omitted, Abs format (unit mm)*
G04 Created by KiCad (PCBNEW (5.1.4)-1) date 2020-12-06 02:09:58*
%MOMM*%
%LPD*%
G04 APERTURE LIST*
%ADD10C,0.125000*%
%ADD11C,0.120000*%
G04 APERTURE END LIST*
D10*
X136448833Y-77329838D02*
X136448833Y-77567933D01*
X136677404Y-77282219D02*
X135877404Y-77448885D01*
X136677404Y-77615552D01*
X136144071Y-77710790D02*
X136144071Y-77901266D01*
X135877404Y-77782219D02*
X136563119Y-77782219D01*
X136639309Y-77806028D01*
X136677404Y-77853647D01*
X136677404Y-77901266D01*
X136677404Y-78282219D02*
X136258357Y-78282219D01*
X136182166Y-78258409D01*
X136144071Y-78210790D01*
X136144071Y-78115552D01*
X136182166Y-78067933D01*
X136639309Y-78282219D02*
X136677404Y-78234600D01*
X136677404Y-78115552D01*
X136639309Y-78067933D01*
X136563119Y-78044123D01*
X136486928Y-78044123D01*
X136410738Y-78067933D01*
X136372642Y-78115552D01*
X136372642Y-78234600D01*
X136334547Y-78282219D01*
X136677404Y-78520314D02*
X136144071Y-78520314D01*
X136296452Y-78520314D02*
X136220261Y-78544123D01*
X136182166Y-78567933D01*
X136144071Y-78615552D01*
X136144071Y-78663171D01*
X136677404Y-78829838D02*
X136144071Y-78829838D01*
X135877404Y-78829838D02*
X135915500Y-78806028D01*
X135953595Y-78829838D01*
X135915500Y-78853647D01*
X135877404Y-78829838D01*
X135953595Y-78829838D01*
X136601214Y-79734600D02*
X136639309Y-79710790D01*
X136677404Y-79639361D01*
X136677404Y-79591742D01*
X136639309Y-79520314D01*
X136563119Y-79472695D01*
X136486928Y-79448885D01*
X136334547Y-79425076D01*
X136220261Y-79425076D01*
X136067880Y-79448885D01*
X135991690Y-79472695D01*
X135915500Y-79520314D01*
X135877404Y-79591742D01*
X135877404Y-79639361D01*
X135915500Y-79710790D01*
X135953595Y-79734600D01*
X135877404Y-80044123D02*
X135877404Y-80139361D01*
X135915500Y-80186980D01*
X135991690Y-80234600D01*
X136144071Y-80258409D01*
X136410738Y-80258409D01*
X136563119Y-80234600D01*
X136639309Y-80186980D01*
X136677404Y-80139361D01*
X136677404Y-80044123D01*
X136639309Y-79996504D01*
X136563119Y-79948885D01*
X136410738Y-79925076D01*
X136144071Y-79925076D01*
X135991690Y-79948885D01*
X135915500Y-79996504D01*
X135877404Y-80044123D01*
X135877404Y-80686980D02*
X135877404Y-80591742D01*
X135915500Y-80544123D01*
X135953595Y-80520314D01*
X136067880Y-80472695D01*
X136220261Y-80448885D01*
X136525023Y-80448885D01*
X136601214Y-80472695D01*
X136639309Y-80496504D01*
X136677404Y-80544123D01*
X136677404Y-80639361D01*
X136639309Y-80686980D01*
X136601214Y-80710790D01*
X136525023Y-80734600D01*
X136334547Y-80734600D01*
X136258357Y-80710790D01*
X136220261Y-80686980D01*
X136182166Y-80639361D01*
X136182166Y-80544123D01*
X136220261Y-80496504D01*
X136258357Y-80472695D01*
X136334547Y-80448885D01*
X135877404Y-81044123D02*
X135877404Y-81091742D01*
X135915500Y-81139361D01*
X135953595Y-81163171D01*
X136029785Y-81186980D01*
X136182166Y-81210790D01*
X136372642Y-81210790D01*
X136525023Y-81186980D01*
X136601214Y-81163171D01*
X136639309Y-81139361D01*
X136677404Y-81091742D01*
X136677404Y-81044123D01*
X136639309Y-80996504D01*
X136601214Y-80972695D01*
X136525023Y-80948885D01*
X136372642Y-80925076D01*
X136182166Y-80925076D01*
X136029785Y-80948885D01*
X135953595Y-80972695D01*
X135915500Y-80996504D01*
X135877404Y-81044123D01*
X136144071Y-81639361D02*
X136677404Y-81639361D01*
X135839309Y-81520314D02*
X136410738Y-81401266D01*
X136410738Y-81710790D01*
X135877404Y-81853647D02*
X135877404Y-82186980D01*
X136677404Y-81972695D01*
X135953595Y-82353647D02*
X135915500Y-82377457D01*
X135877404Y-82425076D01*
X135877404Y-82544123D01*
X135915500Y-82591742D01*
X135953595Y-82615552D01*
X136029785Y-82639361D01*
X136105976Y-82639361D01*
X136220261Y-82615552D01*
X136677404Y-82329838D01*
X136677404Y-82639361D01*
X138002404Y-76234600D02*
X137202404Y-76234600D01*
X137202404Y-76353647D01*
X137240500Y-76425076D01*
X137316690Y-76472695D01*
X137392880Y-76496504D01*
X137545261Y-76520314D01*
X137659547Y-76520314D01*
X137811928Y-76496504D01*
X137888119Y-76472695D01*
X137964309Y-76425076D01*
X138002404Y-76353647D01*
X138002404Y-76234600D01*
X137964309Y-76925076D02*
X138002404Y-76877457D01*
X138002404Y-76782219D01*
X137964309Y-76734600D01*
X137888119Y-76710790D01*
X137583357Y-76710790D01*
X137507166Y-76734600D01*
X137469071Y-76782219D01*
X137469071Y-76877457D01*
X137507166Y-76925076D01*
X137583357Y-76948885D01*
X137659547Y-76948885D01*
X137735738Y-76710790D01*
X138002404Y-77234600D02*
X137964309Y-77186980D01*
X137888119Y-77163171D01*
X137202404Y-77163171D01*
X138002404Y-77639361D02*
X137583357Y-77639361D01*
X137507166Y-77615552D01*
X137469071Y-77567933D01*
X137469071Y-77472695D01*
X137507166Y-77425076D01*
X137964309Y-77639361D02*
X138002404Y-77591742D01*
X138002404Y-77472695D01*
X137964309Y-77425076D01*
X137888119Y-77401266D01*
X137811928Y-77401266D01*
X137735738Y-77425076D01*
X137697642Y-77472695D01*
X137697642Y-77591742D01*
X137659547Y-77639361D01*
X137469071Y-77829838D02*
X138002404Y-77948885D01*
X137469071Y-78067933D02*
X138002404Y-77948885D01*
X138192880Y-77901266D01*
X138230976Y-77877457D01*
X138269071Y-77829838D01*
X138002404Y-78877457D02*
X138002404Y-78639361D01*
X137202404Y-78639361D01*
X138002404Y-79044123D02*
X137469071Y-79044123D01*
X137202404Y-79044123D02*
X137240500Y-79020314D01*
X137278595Y-79044123D01*
X137240500Y-79067933D01*
X137202404Y-79044123D01*
X137278595Y-79044123D01*
X137469071Y-79282219D02*
X138002404Y-79282219D01*
X137545261Y-79282219D02*
X137507166Y-79306028D01*
X137469071Y-79353647D01*
X137469071Y-79425076D01*
X137507166Y-79472695D01*
X137583357Y-79496504D01*
X138002404Y-79496504D01*
X137964309Y-79925076D02*
X138002404Y-79877457D01*
X138002404Y-79782219D01*
X137964309Y-79734600D01*
X137888119Y-79710790D01*
X137583357Y-79710790D01*
X137507166Y-79734600D01*
X137469071Y-79782219D01*
X137469071Y-79877457D01*
X137507166Y-79925076D01*
X137583357Y-79948885D01*
X137659547Y-79948885D01*
X137735738Y-79710790D01*
X137697642Y-80544123D02*
X137697642Y-80925076D01*
X138002404Y-81829838D02*
X137621452Y-81663171D01*
X138002404Y-81544123D02*
X137202404Y-81544123D01*
X137202404Y-81734600D01*
X137240500Y-81782219D01*
X137278595Y-81806028D01*
X137354785Y-81829838D01*
X137469071Y-81829838D01*
X137545261Y-81806028D01*
X137583357Y-81782219D01*
X137621452Y-81734600D01*
X137621452Y-81544123D01*
X137964309Y-82234600D02*
X138002404Y-82186980D01*
X138002404Y-82091742D01*
X137964309Y-82044123D01*
X137888119Y-82020314D01*
X137583357Y-82020314D01*
X137507166Y-82044123D01*
X137469071Y-82091742D01*
X137469071Y-82186980D01*
X137507166Y-82234600D01*
X137583357Y-82258409D01*
X137659547Y-82258409D01*
X137735738Y-82020314D01*
X137469071Y-82425076D02*
X138002404Y-82544123D01*
X137469071Y-82663171D01*
X137926214Y-82853647D02*
X137964309Y-82877457D01*
X138002404Y-82853647D01*
X137964309Y-82829838D01*
X137926214Y-82853647D01*
X138002404Y-82853647D01*
X137926214Y-83758409D02*
X137964309Y-83734599D01*
X138002404Y-83663171D01*
X138002404Y-83615552D01*
X137964309Y-83544123D01*
X137888119Y-83496504D01*
X137811928Y-83472695D01*
X137659547Y-83448885D01*
X137545261Y-83448885D01*
X137392880Y-83472695D01*
X137316690Y-83496504D01*
X137240500Y-83544123D01*
X137202404Y-83615552D01*
X137202404Y-83663171D01*
X137240500Y-83734599D01*
X137278595Y-83758409D01*
X140652404Y-75556028D02*
X139852404Y-75556028D01*
X139852404Y-75675076D01*
X139890500Y-75746504D01*
X139966690Y-75794123D01*
X140042880Y-75817933D01*
X140195261Y-75841742D01*
X140309547Y-75841742D01*
X140461928Y-75817933D01*
X140538119Y-75794123D01*
X140614309Y-75746504D01*
X140652404Y-75675076D01*
X140652404Y-75556028D01*
X140614309Y-76246504D02*
X140652404Y-76198885D01*
X140652404Y-76103647D01*
X140614309Y-76056028D01*
X140538119Y-76032219D01*
X140233357Y-76032219D01*
X140157166Y-76056028D01*
X140119071Y-76103647D01*
X140119071Y-76198885D01*
X140157166Y-76246504D01*
X140233357Y-76270314D01*
X140309547Y-76270314D01*
X140385738Y-76032219D01*
X140614309Y-76460790D02*
X140652404Y-76508409D01*
X140652404Y-76603647D01*
X140614309Y-76651266D01*
X140538119Y-76675076D01*
X140500023Y-76675076D01*
X140423833Y-76651266D01*
X140385738Y-76603647D01*
X140385738Y-76532219D01*
X140347642Y-76484600D01*
X140271452Y-76460790D01*
X140233357Y-76460790D01*
X140157166Y-76484600D01*
X140119071Y-76532219D01*
X140119071Y-76603647D01*
X140157166Y-76651266D01*
X140652404Y-76889361D02*
X140119071Y-76889361D01*
X139852404Y-76889361D02*
X139890500Y-76865552D01*
X139928595Y-76889361D01*
X139890500Y-76913171D01*
X139852404Y-76889361D01*
X139928595Y-76889361D01*
X140119071Y-77341742D02*
X140766690Y-77341742D01*
X140842880Y-77317933D01*
X140880976Y-77294123D01*
X140919071Y-77246504D01*
X140919071Y-77175076D01*
X140880976Y-77127457D01*
X140614309Y-77341742D02*
X140652404Y-77294123D01*
X140652404Y-77198885D01*
X140614309Y-77151266D01*
X140576214Y-77127457D01*
X140500023Y-77103647D01*
X140271452Y-77103647D01*
X140195261Y-77127457D01*
X140157166Y-77151266D01*
X140119071Y-77198885D01*
X140119071Y-77294123D01*
X140157166Y-77341742D01*
X140119071Y-77579838D02*
X140652404Y-77579838D01*
X140195261Y-77579838D02*
X140157166Y-77603647D01*
X140119071Y-77651266D01*
X140119071Y-77722695D01*
X140157166Y-77770314D01*
X140233357Y-77794123D01*
X140652404Y-77794123D01*
X140576214Y-78032219D02*
X140614309Y-78056028D01*
X140652404Y-78032219D01*
X140614309Y-78008409D01*
X140576214Y-78032219D01*
X140652404Y-78032219D01*
X140157166Y-78032219D02*
X140195261Y-78056028D01*
X140233357Y-78032219D01*
X140195261Y-78008409D01*
X140157166Y-78032219D01*
X140233357Y-78032219D01*
X140652404Y-78936980D02*
X140271452Y-78770314D01*
X140652404Y-78651266D02*
X139852404Y-78651266D01*
X139852404Y-78841742D01*
X139890500Y-78889361D01*
X139928595Y-78913171D01*
X140004785Y-78936980D01*
X140119071Y-78936980D01*
X140195261Y-78913171D01*
X140233357Y-78889361D01*
X140271452Y-78841742D01*
X140271452Y-78651266D01*
X140614309Y-79341742D02*
X140652404Y-79294123D01*
X140652404Y-79198885D01*
X140614309Y-79151266D01*
X140538119Y-79127457D01*
X140233357Y-79127457D01*
X140157166Y-79151266D01*
X140119071Y-79198885D01*
X140119071Y-79294123D01*
X140157166Y-79341742D01*
X140233357Y-79365552D01*
X140309547Y-79365552D01*
X140385738Y-79127457D01*
X140119071Y-79508409D02*
X140119071Y-79698885D01*
X139852404Y-79579838D02*
X140538119Y-79579838D01*
X140614309Y-79603647D01*
X140652404Y-79651266D01*
X140652404Y-79698885D01*
X140652404Y-79865552D02*
X140119071Y-79865552D01*
X140271452Y-79865552D02*
X140195261Y-79889361D01*
X140157166Y-79913171D01*
X140119071Y-79960790D01*
X140119071Y-80008409D01*
X140652404Y-80246504D02*
X140614309Y-80198885D01*
X140576214Y-80175076D01*
X140500023Y-80151266D01*
X140271452Y-80151266D01*
X140195261Y-80175076D01*
X140157166Y-80198885D01*
X140119071Y-80246504D01*
X140119071Y-80317933D01*
X140157166Y-80365552D01*
X140195261Y-80389361D01*
X140271452Y-80413171D01*
X140500023Y-80413171D01*
X140576214Y-80389361D01*
X140614309Y-80365552D01*
X140652404Y-80317933D01*
X140652404Y-80246504D01*
X140423833Y-80603647D02*
X140423833Y-80841742D01*
X140652404Y-80556028D02*
X139852404Y-80722695D01*
X140652404Y-80889361D01*
X140652404Y-81270314D02*
X139852404Y-81270314D01*
X140614309Y-81270314D02*
X140652404Y-81222695D01*
X140652404Y-81127457D01*
X140614309Y-81079838D01*
X140576214Y-81056028D01*
X140500023Y-81032219D01*
X140271452Y-81032219D01*
X140195261Y-81056028D01*
X140157166Y-81079838D01*
X140119071Y-81127457D01*
X140119071Y-81222695D01*
X140157166Y-81270314D01*
X140119071Y-81460790D02*
X140652404Y-81579838D01*
X140119071Y-81698885D01*
X140614309Y-82079838D02*
X140652404Y-82032219D01*
X140652404Y-81936980D01*
X140614309Y-81889361D01*
X140538119Y-81865552D01*
X140233357Y-81865552D01*
X140157166Y-81889361D01*
X140119071Y-81936980D01*
X140119071Y-82032219D01*
X140157166Y-82079838D01*
X140233357Y-82103647D01*
X140309547Y-82103647D01*
X140385738Y-81865552D01*
X140119071Y-82317933D02*
X140652404Y-82317933D01*
X140195261Y-82317933D02*
X140157166Y-82341742D01*
X140119071Y-82389361D01*
X140119071Y-82460790D01*
X140157166Y-82508409D01*
X140233357Y-82532219D01*
X140652404Y-82532219D01*
X140119071Y-82698885D02*
X140119071Y-82889361D01*
X139852404Y-82770314D02*
X140538119Y-82770314D01*
X140614309Y-82794123D01*
X140652404Y-82841742D01*
X140652404Y-82889361D01*
X140119071Y-83270314D02*
X140652404Y-83270314D01*
X140119071Y-83056028D02*
X140538119Y-83056028D01*
X140614309Y-83079838D01*
X140652404Y-83127457D01*
X140652404Y-83198885D01*
X140614309Y-83246504D01*
X140576214Y-83270314D01*
X140652404Y-83508409D02*
X140119071Y-83508409D01*
X140271452Y-83508409D02*
X140195261Y-83532219D01*
X140157166Y-83556028D01*
X140119071Y-83603647D01*
X140119071Y-83651266D01*
X140614309Y-84008409D02*
X140652404Y-83960790D01*
X140652404Y-83865552D01*
X140614309Y-83817933D01*
X140538119Y-83794123D01*
X140233357Y-83794123D01*
X140157166Y-83817933D01*
X140119071Y-83865552D01*
X140119071Y-83960790D01*
X140157166Y-84008409D01*
X140233357Y-84032219D01*
X140309547Y-84032219D01*
X140385738Y-83794123D01*
X140614309Y-84222695D02*
X140652404Y-84270314D01*
X140652404Y-84365552D01*
X140614309Y-84413171D01*
X140538119Y-84436980D01*
X140500023Y-84436980D01*
X140423833Y-84413171D01*
X140385738Y-84365552D01*
X140385738Y-84294123D01*
X140347642Y-84246504D01*
X140271452Y-84222695D01*
X140233357Y-84222695D01*
X140157166Y-84246504D01*
X140119071Y-84294123D01*
X140119071Y-84365552D01*
X140157166Y-84413171D01*
D11*
X138932000Y-69275400D02*
X138232000Y-69275400D01*
X138232000Y-70475400D02*
X138932000Y-70475400D01*
X138983000Y-71409000D02*
X138283000Y-71409000D01*
X138283000Y-72609000D02*
X138983000Y-72609000D01*
X138983000Y-73491800D02*
X138283000Y-73491800D01*
X138283000Y-74691800D02*
X138983000Y-74691800D01*
D10*
X136262533Y-70028571D02*
X136286342Y-70052380D01*
X136357771Y-70076190D01*
X136405390Y-70076190D01*
X136476819Y-70052380D01*
X136524438Y-70004761D01*
X136548247Y-69957142D01*
X136572057Y-69861904D01*
X136572057Y-69790476D01*
X136548247Y-69695238D01*
X136524438Y-69647619D01*
X136476819Y-69600000D01*
X136405390Y-69576190D01*
X136357771Y-69576190D01*
X136286342Y-69600000D01*
X136262533Y-69623809D01*
X135786342Y-70076190D02*
X136072057Y-70076190D01*
X135929200Y-70076190D02*
X135929200Y-69576190D01*
X135976819Y-69647619D01*
X136024438Y-69695238D01*
X136072057Y-69719047D01*
X136313533Y-72187571D02*
X136337342Y-72211380D01*
X136408771Y-72235190D01*
X136456390Y-72235190D01*
X136527819Y-72211380D01*
X136575438Y-72163761D01*
X136599247Y-72116142D01*
X136623057Y-72020904D01*
X136623057Y-71949476D01*
X136599247Y-71854238D01*
X136575438Y-71806619D01*
X136527819Y-71759000D01*
X136456390Y-71735190D01*
X136408771Y-71735190D01*
X136337342Y-71759000D01*
X136313533Y-71782809D01*
X136123057Y-71782809D02*
X136099247Y-71759000D01*
X136051628Y-71735190D01*
X135932580Y-71735190D01*
X135884961Y-71759000D01*
X135861152Y-71782809D01*
X135837342Y-71830428D01*
X135837342Y-71878047D01*
X135861152Y-71949476D01*
X136146866Y-72235190D01*
X135837342Y-72235190D01*
X136262733Y-74270371D02*
X136286542Y-74294180D01*
X136357971Y-74317990D01*
X136405590Y-74317990D01*
X136477019Y-74294180D01*
X136524638Y-74246561D01*
X136548447Y-74198942D01*
X136572257Y-74103704D01*
X136572257Y-74032276D01*
X136548447Y-73937038D01*
X136524638Y-73889419D01*
X136477019Y-73841800D01*
X136405590Y-73817990D01*
X136357971Y-73817990D01*
X136286542Y-73841800D01*
X136262733Y-73865609D01*
X136096066Y-73817990D02*
X135786542Y-73817990D01*
X135953209Y-74008466D01*
X135881780Y-74008466D01*
X135834161Y-74032276D01*
X135810352Y-74056085D01*
X135786542Y-74103704D01*
X135786542Y-74222752D01*
X135810352Y-74270371D01*
X135834161Y-74294180D01*
X135881780Y-74317990D01*
X136024638Y-74317990D01*
X136072257Y-74294180D01*
X136096066Y-74270371D01*
M02*
