G04 #@! TF.GenerationSoftware,KiCad,Pcbnew,(5.1.4)-1*
G04 #@! TF.CreationDate,2021-01-18T22:58:43+01:00*
G04 #@! TF.ProjectId,Delay Line,44656c61-7920-44c6-996e-652e6b696361,rev?*
G04 #@! TF.SameCoordinates,Original*
G04 #@! TF.FileFunction,Copper,L2,Inr*
G04 #@! TF.FilePolarity,Positive*
%FSLAX46Y46*%
G04 Gerber Fmt 4.6, Leading zero omitted, Abs format (unit mm)*
G04 Created by KiCad (PCBNEW (5.1.4)-1) date 2021-01-18 22:58:43*
%MOMM*%
%LPD*%
G04 APERTURE LIST*
%ADD10R,1.600000X1.600000*%
%ADD11O,1.600000X1.600000*%
%ADD12C,0.800000*%
%ADD13C,0.254000*%
G04 APERTURE END LIST*
D10*
X134493000Y-68783200D03*
D11*
X142113000Y-84023200D03*
X134493000Y-71323200D03*
X142113000Y-81483200D03*
X134493000Y-73863200D03*
X142113000Y-78943200D03*
X134493000Y-76403200D03*
X142113000Y-76403200D03*
X134493000Y-78943200D03*
X142113000Y-73863200D03*
X134493000Y-81483200D03*
X142113000Y-71323200D03*
X134493000Y-84023200D03*
X142113000Y-68783200D03*
D12*
X137681800Y-72988600D03*
X136479800Y-73473100D03*
X138897400Y-73036200D03*
X136461100Y-79647800D03*
X136378000Y-68080300D03*
D13*
G36*
X141049481Y-67819786D02*
G01*
X140881963Y-68045780D01*
X140761754Y-68300113D01*
X140721096Y-68434161D01*
X140843085Y-68656200D01*
X141986000Y-68656200D01*
X141986000Y-68636200D01*
X142240000Y-68636200D01*
X142240000Y-68656200D01*
X142260000Y-68656200D01*
X142260000Y-68910200D01*
X142240000Y-68910200D01*
X142240000Y-68930200D01*
X141986000Y-68930200D01*
X141986000Y-68910200D01*
X140843085Y-68910200D01*
X140721096Y-69132239D01*
X140761754Y-69266287D01*
X140881963Y-69520620D01*
X141049481Y-69746614D01*
X141257869Y-69935585D01*
X141449682Y-70050621D01*
X141311899Y-70124268D01*
X141093392Y-70303592D01*
X140914068Y-70522099D01*
X140780818Y-70771392D01*
X140698764Y-71041891D01*
X140671057Y-71323200D01*
X140698764Y-71604509D01*
X140780818Y-71875008D01*
X140914068Y-72124301D01*
X141093392Y-72342808D01*
X141311899Y-72522132D01*
X141444858Y-72593200D01*
X141311899Y-72664268D01*
X141093392Y-72843592D01*
X140914068Y-73062099D01*
X140780818Y-73311392D01*
X140698764Y-73581891D01*
X140671057Y-73863200D01*
X140698764Y-74144509D01*
X140780818Y-74415008D01*
X140914068Y-74664301D01*
X141093392Y-74882808D01*
X141311899Y-75062132D01*
X141444858Y-75133200D01*
X141311899Y-75204268D01*
X141093392Y-75383592D01*
X140914068Y-75602099D01*
X140780818Y-75851392D01*
X140698764Y-76121891D01*
X140671057Y-76403200D01*
X140698764Y-76684509D01*
X140780818Y-76955008D01*
X140914068Y-77204301D01*
X141093392Y-77422808D01*
X141311899Y-77602132D01*
X141444858Y-77673200D01*
X141311899Y-77744268D01*
X141093392Y-77923592D01*
X140914068Y-78142099D01*
X140780818Y-78391392D01*
X140698764Y-78661891D01*
X140671057Y-78943200D01*
X140698764Y-79224509D01*
X140780818Y-79495008D01*
X140914068Y-79744301D01*
X141093392Y-79962808D01*
X141311899Y-80142132D01*
X141444858Y-80213200D01*
X141311899Y-80284268D01*
X141093392Y-80463592D01*
X140914068Y-80682099D01*
X140780818Y-80931392D01*
X140698764Y-81201891D01*
X140671057Y-81483200D01*
X140698764Y-81764509D01*
X140780818Y-82035008D01*
X140914068Y-82284301D01*
X141093392Y-82502808D01*
X141311899Y-82682132D01*
X141444858Y-82753200D01*
X141311899Y-82824268D01*
X141093392Y-83003592D01*
X140914068Y-83222099D01*
X140780818Y-83471392D01*
X140698764Y-83741891D01*
X140671057Y-84023200D01*
X140698764Y-84304509D01*
X140780818Y-84575008D01*
X140914068Y-84824301D01*
X141093392Y-85042808D01*
X141120433Y-85065000D01*
X135485567Y-85065000D01*
X135512608Y-85042808D01*
X135691932Y-84824301D01*
X135825182Y-84575008D01*
X135907236Y-84304509D01*
X135934943Y-84023200D01*
X135907236Y-83741891D01*
X135825182Y-83471392D01*
X135691932Y-83222099D01*
X135512608Y-83003592D01*
X135294101Y-82824268D01*
X135161142Y-82753200D01*
X135294101Y-82682132D01*
X135512608Y-82502808D01*
X135691932Y-82284301D01*
X135825182Y-82035008D01*
X135907236Y-81764509D01*
X135934943Y-81483200D01*
X135907236Y-81201891D01*
X135825182Y-80931392D01*
X135691932Y-80682099D01*
X135512608Y-80463592D01*
X135294101Y-80284268D01*
X135161142Y-80213200D01*
X135294101Y-80142132D01*
X135481783Y-79988105D01*
X135543895Y-80138056D01*
X135657163Y-80307574D01*
X135801326Y-80451737D01*
X135970844Y-80565005D01*
X136159202Y-80643026D01*
X136359161Y-80682800D01*
X136563039Y-80682800D01*
X136762998Y-80643026D01*
X136951356Y-80565005D01*
X137120874Y-80451737D01*
X137265037Y-80307574D01*
X137378305Y-80138056D01*
X137456326Y-79949698D01*
X137496100Y-79749739D01*
X137496100Y-79545861D01*
X137456326Y-79345902D01*
X137378305Y-79157544D01*
X137265037Y-78988026D01*
X137120874Y-78843863D01*
X136951356Y-78730595D01*
X136762998Y-78652574D01*
X136563039Y-78612800D01*
X136359161Y-78612800D01*
X136159202Y-78652574D01*
X135970844Y-78730595D01*
X135917513Y-78766230D01*
X135907236Y-78661891D01*
X135825182Y-78391392D01*
X135691932Y-78142099D01*
X135512608Y-77923592D01*
X135294101Y-77744268D01*
X135161142Y-77673200D01*
X135294101Y-77602132D01*
X135512608Y-77422808D01*
X135691932Y-77204301D01*
X135825182Y-76955008D01*
X135907236Y-76684509D01*
X135934943Y-76403200D01*
X135907236Y-76121891D01*
X135825182Y-75851392D01*
X135691932Y-75602099D01*
X135512608Y-75383592D01*
X135294101Y-75204268D01*
X135161142Y-75133200D01*
X135294101Y-75062132D01*
X135512608Y-74882808D01*
X135691932Y-74664301D01*
X135825182Y-74415008D01*
X135859112Y-74303154D01*
X135989544Y-74390305D01*
X136177902Y-74468326D01*
X136377861Y-74508100D01*
X136581739Y-74508100D01*
X136781698Y-74468326D01*
X136970056Y-74390305D01*
X137139574Y-74277037D01*
X137283737Y-74132874D01*
X137382926Y-73984427D01*
X137579861Y-74023600D01*
X137783739Y-74023600D01*
X137983698Y-73983826D01*
X138172056Y-73905805D01*
X138253981Y-73851065D01*
X138407144Y-73953405D01*
X138595502Y-74031426D01*
X138795461Y-74071200D01*
X138999339Y-74071200D01*
X139199298Y-74031426D01*
X139387656Y-73953405D01*
X139557174Y-73840137D01*
X139701337Y-73695974D01*
X139814605Y-73526456D01*
X139892626Y-73338098D01*
X139932400Y-73138139D01*
X139932400Y-72934261D01*
X139892626Y-72734302D01*
X139814605Y-72545944D01*
X139701337Y-72376426D01*
X139557174Y-72232263D01*
X139387656Y-72118995D01*
X139199298Y-72040974D01*
X138999339Y-72001200D01*
X138795461Y-72001200D01*
X138595502Y-72040974D01*
X138407144Y-72118995D01*
X138325219Y-72173735D01*
X138172056Y-72071395D01*
X137983698Y-71993374D01*
X137783739Y-71953600D01*
X137579861Y-71953600D01*
X137379902Y-71993374D01*
X137191544Y-72071395D01*
X137022026Y-72184663D01*
X136877863Y-72328826D01*
X136778674Y-72477273D01*
X136581739Y-72438100D01*
X136377861Y-72438100D01*
X136177902Y-72477874D01*
X135989544Y-72555895D01*
X135820026Y-72669163D01*
X135675863Y-72813326D01*
X135591449Y-72939660D01*
X135512608Y-72843592D01*
X135294101Y-72664268D01*
X135161142Y-72593200D01*
X135294101Y-72522132D01*
X135512608Y-72342808D01*
X135691932Y-72124301D01*
X135825182Y-71875008D01*
X135907236Y-71604509D01*
X135934943Y-71323200D01*
X135907236Y-71041891D01*
X135825182Y-70771392D01*
X135691932Y-70522099D01*
X135512608Y-70303592D01*
X135399518Y-70210781D01*
X135417482Y-70209012D01*
X135537180Y-70172702D01*
X135647494Y-70113737D01*
X135744185Y-70034385D01*
X135823537Y-69937694D01*
X135882502Y-69827380D01*
X135918812Y-69707682D01*
X135931072Y-69583200D01*
X135931072Y-67983200D01*
X135918812Y-67858718D01*
X135883224Y-67741400D01*
X141135921Y-67741400D01*
X141049481Y-67819786D01*
X141049481Y-67819786D01*
G37*
X141049481Y-67819786D02*
X140881963Y-68045780D01*
X140761754Y-68300113D01*
X140721096Y-68434161D01*
X140843085Y-68656200D01*
X141986000Y-68656200D01*
X141986000Y-68636200D01*
X142240000Y-68636200D01*
X142240000Y-68656200D01*
X142260000Y-68656200D01*
X142260000Y-68910200D01*
X142240000Y-68910200D01*
X142240000Y-68930200D01*
X141986000Y-68930200D01*
X141986000Y-68910200D01*
X140843085Y-68910200D01*
X140721096Y-69132239D01*
X140761754Y-69266287D01*
X140881963Y-69520620D01*
X141049481Y-69746614D01*
X141257869Y-69935585D01*
X141449682Y-70050621D01*
X141311899Y-70124268D01*
X141093392Y-70303592D01*
X140914068Y-70522099D01*
X140780818Y-70771392D01*
X140698764Y-71041891D01*
X140671057Y-71323200D01*
X140698764Y-71604509D01*
X140780818Y-71875008D01*
X140914068Y-72124301D01*
X141093392Y-72342808D01*
X141311899Y-72522132D01*
X141444858Y-72593200D01*
X141311899Y-72664268D01*
X141093392Y-72843592D01*
X140914068Y-73062099D01*
X140780818Y-73311392D01*
X140698764Y-73581891D01*
X140671057Y-73863200D01*
X140698764Y-74144509D01*
X140780818Y-74415008D01*
X140914068Y-74664301D01*
X141093392Y-74882808D01*
X141311899Y-75062132D01*
X141444858Y-75133200D01*
X141311899Y-75204268D01*
X141093392Y-75383592D01*
X140914068Y-75602099D01*
X140780818Y-75851392D01*
X140698764Y-76121891D01*
X140671057Y-76403200D01*
X140698764Y-76684509D01*
X140780818Y-76955008D01*
X140914068Y-77204301D01*
X141093392Y-77422808D01*
X141311899Y-77602132D01*
X141444858Y-77673200D01*
X141311899Y-77744268D01*
X141093392Y-77923592D01*
X140914068Y-78142099D01*
X140780818Y-78391392D01*
X140698764Y-78661891D01*
X140671057Y-78943200D01*
X140698764Y-79224509D01*
X140780818Y-79495008D01*
X140914068Y-79744301D01*
X141093392Y-79962808D01*
X141311899Y-80142132D01*
X141444858Y-80213200D01*
X141311899Y-80284268D01*
X141093392Y-80463592D01*
X140914068Y-80682099D01*
X140780818Y-80931392D01*
X140698764Y-81201891D01*
X140671057Y-81483200D01*
X140698764Y-81764509D01*
X140780818Y-82035008D01*
X140914068Y-82284301D01*
X141093392Y-82502808D01*
X141311899Y-82682132D01*
X141444858Y-82753200D01*
X141311899Y-82824268D01*
X141093392Y-83003592D01*
X140914068Y-83222099D01*
X140780818Y-83471392D01*
X140698764Y-83741891D01*
X140671057Y-84023200D01*
X140698764Y-84304509D01*
X140780818Y-84575008D01*
X140914068Y-84824301D01*
X141093392Y-85042808D01*
X141120433Y-85065000D01*
X135485567Y-85065000D01*
X135512608Y-85042808D01*
X135691932Y-84824301D01*
X135825182Y-84575008D01*
X135907236Y-84304509D01*
X135934943Y-84023200D01*
X135907236Y-83741891D01*
X135825182Y-83471392D01*
X135691932Y-83222099D01*
X135512608Y-83003592D01*
X135294101Y-82824268D01*
X135161142Y-82753200D01*
X135294101Y-82682132D01*
X135512608Y-82502808D01*
X135691932Y-82284301D01*
X135825182Y-82035008D01*
X135907236Y-81764509D01*
X135934943Y-81483200D01*
X135907236Y-81201891D01*
X135825182Y-80931392D01*
X135691932Y-80682099D01*
X135512608Y-80463592D01*
X135294101Y-80284268D01*
X135161142Y-80213200D01*
X135294101Y-80142132D01*
X135481783Y-79988105D01*
X135543895Y-80138056D01*
X135657163Y-80307574D01*
X135801326Y-80451737D01*
X135970844Y-80565005D01*
X136159202Y-80643026D01*
X136359161Y-80682800D01*
X136563039Y-80682800D01*
X136762998Y-80643026D01*
X136951356Y-80565005D01*
X137120874Y-80451737D01*
X137265037Y-80307574D01*
X137378305Y-80138056D01*
X137456326Y-79949698D01*
X137496100Y-79749739D01*
X137496100Y-79545861D01*
X137456326Y-79345902D01*
X137378305Y-79157544D01*
X137265037Y-78988026D01*
X137120874Y-78843863D01*
X136951356Y-78730595D01*
X136762998Y-78652574D01*
X136563039Y-78612800D01*
X136359161Y-78612800D01*
X136159202Y-78652574D01*
X135970844Y-78730595D01*
X135917513Y-78766230D01*
X135907236Y-78661891D01*
X135825182Y-78391392D01*
X135691932Y-78142099D01*
X135512608Y-77923592D01*
X135294101Y-77744268D01*
X135161142Y-77673200D01*
X135294101Y-77602132D01*
X135512608Y-77422808D01*
X135691932Y-77204301D01*
X135825182Y-76955008D01*
X135907236Y-76684509D01*
X135934943Y-76403200D01*
X135907236Y-76121891D01*
X135825182Y-75851392D01*
X135691932Y-75602099D01*
X135512608Y-75383592D01*
X135294101Y-75204268D01*
X135161142Y-75133200D01*
X135294101Y-75062132D01*
X135512608Y-74882808D01*
X135691932Y-74664301D01*
X135825182Y-74415008D01*
X135859112Y-74303154D01*
X135989544Y-74390305D01*
X136177902Y-74468326D01*
X136377861Y-74508100D01*
X136581739Y-74508100D01*
X136781698Y-74468326D01*
X136970056Y-74390305D01*
X137139574Y-74277037D01*
X137283737Y-74132874D01*
X137382926Y-73984427D01*
X137579861Y-74023600D01*
X137783739Y-74023600D01*
X137983698Y-73983826D01*
X138172056Y-73905805D01*
X138253981Y-73851065D01*
X138407144Y-73953405D01*
X138595502Y-74031426D01*
X138795461Y-74071200D01*
X138999339Y-74071200D01*
X139199298Y-74031426D01*
X139387656Y-73953405D01*
X139557174Y-73840137D01*
X139701337Y-73695974D01*
X139814605Y-73526456D01*
X139892626Y-73338098D01*
X139932400Y-73138139D01*
X139932400Y-72934261D01*
X139892626Y-72734302D01*
X139814605Y-72545944D01*
X139701337Y-72376426D01*
X139557174Y-72232263D01*
X139387656Y-72118995D01*
X139199298Y-72040974D01*
X138999339Y-72001200D01*
X138795461Y-72001200D01*
X138595502Y-72040974D01*
X138407144Y-72118995D01*
X138325219Y-72173735D01*
X138172056Y-72071395D01*
X137983698Y-71993374D01*
X137783739Y-71953600D01*
X137579861Y-71953600D01*
X137379902Y-71993374D01*
X137191544Y-72071395D01*
X137022026Y-72184663D01*
X136877863Y-72328826D01*
X136778674Y-72477273D01*
X136581739Y-72438100D01*
X136377861Y-72438100D01*
X136177902Y-72477874D01*
X135989544Y-72555895D01*
X135820026Y-72669163D01*
X135675863Y-72813326D01*
X135591449Y-72939660D01*
X135512608Y-72843592D01*
X135294101Y-72664268D01*
X135161142Y-72593200D01*
X135294101Y-72522132D01*
X135512608Y-72342808D01*
X135691932Y-72124301D01*
X135825182Y-71875008D01*
X135907236Y-71604509D01*
X135934943Y-71323200D01*
X135907236Y-71041891D01*
X135825182Y-70771392D01*
X135691932Y-70522099D01*
X135512608Y-70303592D01*
X135399518Y-70210781D01*
X135417482Y-70209012D01*
X135537180Y-70172702D01*
X135647494Y-70113737D01*
X135744185Y-70034385D01*
X135823537Y-69937694D01*
X135882502Y-69827380D01*
X135918812Y-69707682D01*
X135931072Y-69583200D01*
X135931072Y-67983200D01*
X135918812Y-67858718D01*
X135883224Y-67741400D01*
X141135921Y-67741400D01*
X141049481Y-67819786D01*
M02*
