G04 #@! TF.GenerationSoftware,KiCad,Pcbnew,(5.1.4)-1*
G04 #@! TF.CreationDate,2020-12-06T02:09:58+01:00*
G04 #@! TF.ProjectId,Delay Line,44656c61-7920-44c6-996e-652e6b696361,rev?*
G04 #@! TF.SameCoordinates,Original*
G04 #@! TF.FileFunction,Legend,Top*
G04 #@! TF.FilePolarity,Positive*
%FSLAX46Y46*%
G04 Gerber Fmt 4.6, Leading zero omitted, Abs format (unit mm)*
G04 Created by KiCad (PCBNEW (5.1.4)-1) date 2020-12-06 02:09:58*
%MOMM*%
%LPD*%
G04 APERTURE LIST*
%ADD10C,0.125000*%
%ADD11C,0.120000*%
%ADD12C,0.150000*%
G04 APERTURE END LIST*
D10*
X136347200Y-76304685D02*
X136442438Y-76399923D01*
X136347200Y-76495161D01*
X136251961Y-76399923D01*
X136347200Y-76304685D01*
X136347200Y-76495161D01*
D11*
X139303000Y-67453200D02*
G75*
G02X137303000Y-67453200I-1000000J0D01*
G01*
X137303000Y-67453200D02*
X135653000Y-67453200D01*
X135653000Y-67453200D02*
X135653000Y-85353200D01*
X135653000Y-85353200D02*
X140953000Y-85353200D01*
X140953000Y-85353200D02*
X140953000Y-67453200D01*
X140953000Y-67453200D02*
X139303000Y-67453200D01*
X133163000Y-67393200D02*
X133163000Y-85413200D01*
X133163000Y-85413200D02*
X143443000Y-85413200D01*
X143443000Y-85413200D02*
X143443000Y-67393200D01*
X143443000Y-67393200D02*
X133163000Y-67393200D01*
X138260000Y-76586800D02*
X139260000Y-76586800D01*
X139260000Y-77946800D02*
X138260000Y-77946800D01*
X138260000Y-78263200D02*
X139260000Y-78263200D01*
X139260000Y-79623200D02*
X138260000Y-79623200D01*
X139260000Y-81299600D02*
X138260000Y-81299600D01*
X138260000Y-79939600D02*
X139260000Y-79939600D01*
X139260000Y-83052200D02*
X138260000Y-83052200D01*
X138260000Y-81692200D02*
X139260000Y-81692200D01*
X138260000Y-83495600D02*
X139260000Y-83495600D01*
X139260000Y-84855600D02*
X138260000Y-84855600D01*
D12*
X135828000Y-74689600D02*
X135828000Y-76039600D01*
X140953000Y-74689600D02*
X140953000Y-70039600D01*
X135703000Y-74689600D02*
X135703000Y-70039600D01*
X140953000Y-74689600D02*
X140728000Y-74689600D01*
X140953000Y-70039600D02*
X140728000Y-70039600D01*
X135703000Y-70039600D02*
X135928000Y-70039600D01*
X135703000Y-74689600D02*
X135828000Y-74689600D01*
D10*
X136284166Y-77518390D02*
X136117500Y-77280295D01*
X135998452Y-77518390D02*
X135998452Y-77018390D01*
X136188928Y-77018390D01*
X136236547Y-77042200D01*
X136260357Y-77066009D01*
X136284166Y-77113628D01*
X136284166Y-77185057D01*
X136260357Y-77232676D01*
X136236547Y-77256485D01*
X136188928Y-77280295D01*
X135998452Y-77280295D01*
X136760357Y-77518390D02*
X136474642Y-77518390D01*
X136617500Y-77518390D02*
X136617500Y-77018390D01*
X136569880Y-77089819D01*
X136522261Y-77137438D01*
X136474642Y-77161247D01*
X136284166Y-79258290D02*
X136117500Y-79020195D01*
X135998452Y-79258290D02*
X135998452Y-78758290D01*
X136188928Y-78758290D01*
X136236547Y-78782100D01*
X136260357Y-78805909D01*
X136284166Y-78853528D01*
X136284166Y-78924957D01*
X136260357Y-78972576D01*
X136236547Y-78996385D01*
X136188928Y-79020195D01*
X135998452Y-79020195D01*
X136474642Y-78805909D02*
X136498452Y-78782100D01*
X136546071Y-78758290D01*
X136665119Y-78758290D01*
X136712738Y-78782100D01*
X136736547Y-78805909D01*
X136760357Y-78853528D01*
X136760357Y-78901147D01*
X136736547Y-78972576D01*
X136450833Y-79258290D01*
X136760357Y-79258290D01*
X136309566Y-80845790D02*
X136142900Y-80607695D01*
X136023852Y-80845790D02*
X136023852Y-80345790D01*
X136214328Y-80345790D01*
X136261947Y-80369600D01*
X136285757Y-80393409D01*
X136309566Y-80441028D01*
X136309566Y-80512457D01*
X136285757Y-80560076D01*
X136261947Y-80583885D01*
X136214328Y-80607695D01*
X136023852Y-80607695D01*
X136476233Y-80345790D02*
X136785757Y-80345790D01*
X136619090Y-80536266D01*
X136690519Y-80536266D01*
X136738138Y-80560076D01*
X136761947Y-80583885D01*
X136785757Y-80631504D01*
X136785757Y-80750552D01*
X136761947Y-80798171D01*
X136738138Y-80821980D01*
X136690519Y-80845790D01*
X136547661Y-80845790D01*
X136500042Y-80821980D01*
X136476233Y-80798171D01*
X136284166Y-82598390D02*
X136117500Y-82360295D01*
X135998452Y-82598390D02*
X135998452Y-82098390D01*
X136188928Y-82098390D01*
X136236547Y-82122200D01*
X136260357Y-82146009D01*
X136284166Y-82193628D01*
X136284166Y-82265057D01*
X136260357Y-82312676D01*
X136236547Y-82336485D01*
X136188928Y-82360295D01*
X135998452Y-82360295D01*
X136712738Y-82265057D02*
X136712738Y-82598390D01*
X136593690Y-82074580D02*
X136474642Y-82431723D01*
X136784166Y-82431723D01*
X136233366Y-84401790D02*
X136066700Y-84163695D01*
X135947652Y-84401790D02*
X135947652Y-83901790D01*
X136138128Y-83901790D01*
X136185747Y-83925600D01*
X136209557Y-83949409D01*
X136233366Y-83997028D01*
X136233366Y-84068457D01*
X136209557Y-84116076D01*
X136185747Y-84139885D01*
X136138128Y-84163695D01*
X135947652Y-84163695D01*
X136685747Y-83901790D02*
X136447652Y-83901790D01*
X136423842Y-84139885D01*
X136447652Y-84116076D01*
X136495271Y-84092266D01*
X136614319Y-84092266D01*
X136661938Y-84116076D01*
X136685747Y-84139885D01*
X136709557Y-84187504D01*
X136709557Y-84306552D01*
X136685747Y-84354171D01*
X136661938Y-84377980D01*
X136614319Y-84401790D01*
X136495271Y-84401790D01*
X136447652Y-84377980D01*
X136423842Y-84354171D01*
M02*
