G04 #@! TF.GenerationSoftware,KiCad,Pcbnew,(5.1.4)-1*
G04 #@! TF.CreationDate,2021-01-18T22:58:43+01:00*
G04 #@! TF.ProjectId,Delay Line,44656c61-7920-44c6-996e-652e6b696361,rev?*
G04 #@! TF.SameCoordinates,Original*
G04 #@! TF.FileFunction,Legend,Top*
G04 #@! TF.FilePolarity,Positive*
%FSLAX46Y46*%
G04 Gerber Fmt 4.6, Leading zero omitted, Abs format (unit mm)*
G04 Created by KiCad (PCBNEW (5.1.4)-1) date 2021-01-18 22:58:43*
%MOMM*%
%LPD*%
G04 APERTURE LIST*
%ADD10C,0.300000*%
%ADD11C,0.120000*%
%ADD12C,0.150000*%
%ADD13C,0.075000*%
G04 APERTURE END LIST*
D10*
X136372600Y-76481714D02*
X136444028Y-76553142D01*
X136372600Y-76624571D01*
X136301171Y-76553142D01*
X136372600Y-76481714D01*
X136372600Y-76624571D01*
D11*
X139303000Y-67453200D02*
G75*
G02X137303000Y-67453200I-1000000J0D01*
G01*
X137303000Y-67453200D02*
X135653000Y-67453200D01*
X135653000Y-67453200D02*
X135653000Y-85353200D01*
X135653000Y-85353200D02*
X140953000Y-85353200D01*
X140953000Y-85353200D02*
X140953000Y-67453200D01*
X140953000Y-67453200D02*
X139303000Y-67453200D01*
X133163000Y-67393200D02*
X133163000Y-85413200D01*
X133163000Y-85413200D02*
X143443000Y-85413200D01*
X143443000Y-85413200D02*
X143443000Y-67393200D01*
X143443000Y-67393200D02*
X133163000Y-67393200D01*
X138260000Y-76586800D02*
X139260000Y-76586800D01*
X139260000Y-77946800D02*
X138260000Y-77946800D01*
X138260000Y-78263200D02*
X139260000Y-78263200D01*
X139260000Y-79623200D02*
X138260000Y-79623200D01*
X139260000Y-81299600D02*
X138260000Y-81299600D01*
X138260000Y-79939600D02*
X139260000Y-79939600D01*
X139260000Y-83052200D02*
X138260000Y-83052200D01*
X138260000Y-81692200D02*
X139260000Y-81692200D01*
X138260000Y-83495600D02*
X139260000Y-83495600D01*
X139260000Y-84855600D02*
X138260000Y-84855600D01*
D12*
X135828000Y-74689600D02*
X135828000Y-76039600D01*
X140953000Y-74689600D02*
X140953000Y-70039600D01*
X135703000Y-74689600D02*
X135703000Y-70039600D01*
X140953000Y-74689600D02*
X140728000Y-74689600D01*
X140953000Y-70039600D02*
X140728000Y-70039600D01*
X135703000Y-70039600D02*
X135928000Y-70039600D01*
X135703000Y-74689600D02*
X135828000Y-74689600D01*
D13*
X138693333Y-77447752D02*
X138560000Y-77257276D01*
X138464761Y-77447752D02*
X138464761Y-77047752D01*
X138617142Y-77047752D01*
X138655238Y-77066800D01*
X138674285Y-77085847D01*
X138693333Y-77123942D01*
X138693333Y-77181085D01*
X138674285Y-77219180D01*
X138655238Y-77238228D01*
X138617142Y-77257276D01*
X138464761Y-77257276D01*
X139074285Y-77447752D02*
X138845714Y-77447752D01*
X138960000Y-77447752D02*
X138960000Y-77047752D01*
X138921904Y-77104895D01*
X138883809Y-77142990D01*
X138845714Y-77162038D01*
X138693333Y-79124152D02*
X138560000Y-78933676D01*
X138464761Y-79124152D02*
X138464761Y-78724152D01*
X138617142Y-78724152D01*
X138655238Y-78743200D01*
X138674285Y-78762247D01*
X138693333Y-78800342D01*
X138693333Y-78857485D01*
X138674285Y-78895580D01*
X138655238Y-78914628D01*
X138617142Y-78933676D01*
X138464761Y-78933676D01*
X138845714Y-78762247D02*
X138864761Y-78743200D01*
X138902857Y-78724152D01*
X138998095Y-78724152D01*
X139036190Y-78743200D01*
X139055238Y-78762247D01*
X139074285Y-78800342D01*
X139074285Y-78838438D01*
X139055238Y-78895580D01*
X138826666Y-79124152D01*
X139074285Y-79124152D01*
X138693333Y-80800552D02*
X138560000Y-80610076D01*
X138464761Y-80800552D02*
X138464761Y-80400552D01*
X138617142Y-80400552D01*
X138655238Y-80419600D01*
X138674285Y-80438647D01*
X138693333Y-80476742D01*
X138693333Y-80533885D01*
X138674285Y-80571980D01*
X138655238Y-80591028D01*
X138617142Y-80610076D01*
X138464761Y-80610076D01*
X138826666Y-80400552D02*
X139074285Y-80400552D01*
X138940952Y-80552933D01*
X138998095Y-80552933D01*
X139036190Y-80571980D01*
X139055238Y-80591028D01*
X139074285Y-80629123D01*
X139074285Y-80724361D01*
X139055238Y-80762457D01*
X139036190Y-80781504D01*
X138998095Y-80800552D01*
X138883809Y-80800552D01*
X138845714Y-80781504D01*
X138826666Y-80762457D01*
X138693333Y-82553152D02*
X138560000Y-82362676D01*
X138464761Y-82553152D02*
X138464761Y-82153152D01*
X138617142Y-82153152D01*
X138655238Y-82172200D01*
X138674285Y-82191247D01*
X138693333Y-82229342D01*
X138693333Y-82286485D01*
X138674285Y-82324580D01*
X138655238Y-82343628D01*
X138617142Y-82362676D01*
X138464761Y-82362676D01*
X139036190Y-82286485D02*
X139036190Y-82553152D01*
X138940952Y-82134104D02*
X138845714Y-82419819D01*
X139093333Y-82419819D01*
X138693333Y-84356552D02*
X138560000Y-84166076D01*
X138464761Y-84356552D02*
X138464761Y-83956552D01*
X138617142Y-83956552D01*
X138655238Y-83975600D01*
X138674285Y-83994647D01*
X138693333Y-84032742D01*
X138693333Y-84089885D01*
X138674285Y-84127980D01*
X138655238Y-84147028D01*
X138617142Y-84166076D01*
X138464761Y-84166076D01*
X139055238Y-83956552D02*
X138864761Y-83956552D01*
X138845714Y-84147028D01*
X138864761Y-84127980D01*
X138902857Y-84108933D01*
X138998095Y-84108933D01*
X139036190Y-84127980D01*
X139055238Y-84147028D01*
X139074285Y-84185123D01*
X139074285Y-84280361D01*
X139055238Y-84318457D01*
X139036190Y-84337504D01*
X138998095Y-84356552D01*
X138902857Y-84356552D01*
X138864761Y-84337504D01*
X138845714Y-84318457D01*
M02*
