G04 #@! TF.GenerationSoftware,KiCad,Pcbnew,(5.1.4)-1*
G04 #@! TF.CreationDate,2021-01-18T22:58:43+01:00*
G04 #@! TF.ProjectId,Delay Line,44656c61-7920-44c6-996e-652e6b696361,rev?*
G04 #@! TF.SameCoordinates,Original*
G04 #@! TF.FileFunction,Copper,L1,Top*
G04 #@! TF.FilePolarity,Positive*
%FSLAX46Y46*%
G04 Gerber Fmt 4.6, Leading zero omitted, Abs format (unit mm)*
G04 Created by KiCad (PCBNEW (5.1.4)-1) date 2021-01-18 22:58:43*
%MOMM*%
%LPD*%
G04 APERTURE LIST*
%ADD10R,1.600000X1.600000*%
%ADD11O,1.600000X1.600000*%
%ADD12R,1.200000X0.900000*%
%ADD13R,0.450000X1.450000*%
%ADD14C,0.800000*%
%ADD15C,0.250000*%
G04 APERTURE END LIST*
D10*
X134493000Y-68783200D03*
D11*
X142113000Y-84023200D03*
X134493000Y-71323200D03*
X142113000Y-81483200D03*
X134493000Y-73863200D03*
X142113000Y-78943200D03*
X134493000Y-76403200D03*
X142113000Y-76403200D03*
X134493000Y-78943200D03*
X142113000Y-73863200D03*
X134493000Y-81483200D03*
X142113000Y-71323200D03*
X134493000Y-84023200D03*
X142113000Y-68783200D03*
D12*
X139860000Y-77266800D03*
X137660000Y-77266800D03*
X139687100Y-78905100D03*
X137660000Y-78943200D03*
X137660000Y-80619600D03*
X139860000Y-80594200D03*
X137660000Y-82372200D03*
X139885400Y-82372200D03*
X139860000Y-84099400D03*
X137660000Y-84175600D03*
D13*
X136378000Y-69414600D03*
X137028000Y-69414600D03*
X137678000Y-69414600D03*
X138328000Y-69414600D03*
X138978000Y-69414600D03*
X139628000Y-69414600D03*
X140278000Y-69414600D03*
X140278000Y-75314600D03*
X139628000Y-75314600D03*
X138978000Y-75314600D03*
X138328000Y-75314600D03*
X137678000Y-75314600D03*
X137028000Y-75314600D03*
X136378000Y-75314600D03*
D14*
X137681800Y-72988600D03*
X136479800Y-73473100D03*
X138897400Y-73036200D03*
X136461100Y-79647800D03*
X136378000Y-68080300D03*
D15*
X137681800Y-72988600D02*
X138383400Y-72287000D01*
X138383400Y-72287000D02*
X139230700Y-72287000D01*
X139230700Y-72287000D02*
X140278000Y-73334300D01*
X140278000Y-73334300D02*
X140278000Y-75314600D01*
X136734700Y-80619600D02*
X136372800Y-80619600D01*
X136372800Y-80619600D02*
X135618300Y-79865100D01*
X135618300Y-79865100D02*
X135618300Y-75832400D01*
X135618300Y-75832400D02*
X134774400Y-74988500D01*
X134774400Y-74988500D02*
X134493000Y-74988500D01*
X137660000Y-80619600D02*
X136734700Y-80619600D01*
X134493000Y-73863200D02*
X134493000Y-74988500D01*
X137678000Y-75314600D02*
X137678000Y-74264300D01*
X137678000Y-74264300D02*
X137271000Y-74264300D01*
X137271000Y-74264300D02*
X136479800Y-73473100D01*
X137660000Y-82372200D02*
X136734700Y-82372200D01*
X134493000Y-78943200D02*
X134493000Y-80068500D01*
X134493000Y-80068500D02*
X134724700Y-80068500D01*
X134724700Y-80068500D02*
X136734700Y-82078500D01*
X136734700Y-82078500D02*
X136734700Y-82372200D01*
X138978000Y-75314600D02*
X138978000Y-73116800D01*
X138978000Y-73116800D02*
X138897400Y-73036200D01*
X142113000Y-81483200D02*
X142113000Y-80357900D01*
X139628000Y-69414600D02*
X139628000Y-70464900D01*
X139628000Y-70464900D02*
X141756300Y-72593200D01*
X141756300Y-72593200D02*
X142503900Y-72593200D01*
X142503900Y-72593200D02*
X143238300Y-73327600D01*
X143238300Y-73327600D02*
X143238300Y-79514000D01*
X143238300Y-79514000D02*
X142394400Y-80357900D01*
X142394400Y-80357900D02*
X142113000Y-80357900D01*
X137660000Y-84175600D02*
X138585300Y-84175600D01*
X142113000Y-81483200D02*
X142113000Y-82608500D01*
X142113000Y-82608500D02*
X141831600Y-82608500D01*
X141831600Y-82608500D02*
X140987700Y-83452400D01*
X140987700Y-83452400D02*
X140987700Y-84570900D01*
X140987700Y-84570900D02*
X140683800Y-84874800D01*
X140683800Y-84874800D02*
X139109600Y-84874800D01*
X139109600Y-84874800D02*
X138585300Y-84350500D01*
X138585300Y-84350500D02*
X138585300Y-84175600D01*
X135366900Y-72705800D02*
X135754500Y-73093400D01*
X135754500Y-73093400D02*
X135754500Y-73773500D01*
X135754500Y-73773500D02*
X136245200Y-74264200D01*
X136245200Y-74264200D02*
X136378000Y-74264200D01*
X136378000Y-74264200D02*
X136378000Y-74264300D01*
X134493000Y-69908500D02*
X134774400Y-69908500D01*
X134774400Y-69908500D02*
X135618300Y-70752400D01*
X135618300Y-70752400D02*
X135618300Y-72454400D01*
X135618300Y-72454400D02*
X135366900Y-72705800D01*
X139860000Y-83400200D02*
X136440400Y-83400200D01*
X136440400Y-83400200D02*
X135793400Y-82753200D01*
X135793400Y-82753200D02*
X134125600Y-82753200D01*
X134125600Y-82753200D02*
X133347000Y-81974600D01*
X133347000Y-81974600D02*
X133347000Y-73395500D01*
X133347000Y-73395500D02*
X134036700Y-72705800D01*
X134036700Y-72705800D02*
X135366900Y-72705800D01*
X139860000Y-83400200D02*
X139860000Y-83324100D01*
X139860000Y-83449800D02*
X139860000Y-83400200D01*
X139860000Y-83575500D02*
X139860000Y-83449800D01*
X134493000Y-68783200D02*
X134493000Y-69908500D01*
X136378000Y-75314600D02*
X136378000Y-74264300D01*
X139860000Y-83862400D02*
X139860000Y-83593200D01*
X139860000Y-83593200D02*
X139860000Y-83575500D01*
X139885400Y-82372200D02*
X139885400Y-81596900D01*
X139860000Y-77266800D02*
X139860000Y-78042100D01*
X139860000Y-78042100D02*
X140344600Y-78042100D01*
X140344600Y-78042100D02*
X140785400Y-78482900D01*
X140785400Y-78482900D02*
X140785400Y-81181500D01*
X140785400Y-81181500D02*
X140370000Y-81596900D01*
X140370000Y-81596900D02*
X139885400Y-81596900D01*
X139860000Y-83862400D02*
X139860000Y-84099400D01*
X139860000Y-83324100D02*
X139885400Y-83298700D01*
X139885400Y-83298700D02*
X139885400Y-82372200D01*
X138328000Y-69414600D02*
X138328000Y-70464900D01*
X138328000Y-70464900D02*
X140987700Y-73124600D01*
X140987700Y-73124600D02*
X140987700Y-76403200D01*
X142113000Y-76403200D02*
X140987700Y-76403200D01*
X137660000Y-77266800D02*
X137660000Y-76491500D01*
X137660000Y-76491500D02*
X140899400Y-76491500D01*
X140899400Y-76491500D02*
X140987700Y-76403200D01*
X137028000Y-75314600D02*
X137028000Y-76364900D01*
X139687100Y-79292700D02*
X138562200Y-78167800D01*
X138562200Y-78167800D02*
X137042600Y-78167800D01*
X137042600Y-78167800D02*
X136734600Y-77859800D01*
X136734600Y-77859800D02*
X136734600Y-76658300D01*
X136734600Y-76658300D02*
X137028000Y-76364900D01*
X139687100Y-79292700D02*
X139687100Y-79680400D01*
X139687100Y-78905100D02*
X139687100Y-79292700D01*
X139860000Y-80594200D02*
X139860000Y-79818900D01*
X139860000Y-79818900D02*
X139721500Y-79680400D01*
X139721500Y-79680400D02*
X139687100Y-79680400D01*
X136461100Y-79647800D02*
X136734700Y-79374200D01*
X136734700Y-79374200D02*
X136734700Y-78943200D01*
X137660000Y-78943200D02*
X136734700Y-78943200D01*
X142113000Y-71323200D02*
X142113000Y-70197900D01*
X137028000Y-69414600D02*
X137028000Y-68561500D01*
X137028000Y-68561500D02*
X137957900Y-67631600D01*
X137957900Y-67631600D02*
X142594000Y-67631600D01*
X142594000Y-67631600D02*
X143238300Y-68275900D01*
X143238300Y-68275900D02*
X143238300Y-69354000D01*
X143238300Y-69354000D02*
X142394400Y-70197900D01*
X142394400Y-70197900D02*
X142113000Y-70197900D01*
X136378000Y-68080300D02*
X136378000Y-69414600D01*
M02*
