G04 #@! TF.GenerationSoftware,KiCad,Pcbnew,(5.1.4)-1*
G04 #@! TF.CreationDate,2021-01-18T22:58:43+01:00*
G04 #@! TF.ProjectId,Delay Line,44656c61-7920-44c6-996e-652e6b696361,rev?*
G04 #@! TF.SameCoordinates,Original*
G04 #@! TF.FileFunction,Legend,Bot*
G04 #@! TF.FilePolarity,Positive*
%FSLAX46Y46*%
G04 Gerber Fmt 4.6, Leading zero omitted, Abs format (unit mm)*
G04 Created by KiCad (PCBNEW (5.1.4)-1) date 2021-01-18 22:58:43*
%MOMM*%
%LPD*%
G04 APERTURE LIST*
%ADD10C,0.125000*%
%ADD11C,0.120000*%
G04 APERTURE END LIST*
D10*
X137873333Y-77888638D02*
X137873333Y-78126733D01*
X138101904Y-77841019D02*
X137301904Y-78007685D01*
X138101904Y-78174352D01*
X137568571Y-78269590D02*
X137568571Y-78460066D01*
X137301904Y-78341019D02*
X137987619Y-78341019D01*
X138063809Y-78364828D01*
X138101904Y-78412447D01*
X138101904Y-78460066D01*
X138101904Y-78841019D02*
X137682857Y-78841019D01*
X137606666Y-78817209D01*
X137568571Y-78769590D01*
X137568571Y-78674352D01*
X137606666Y-78626733D01*
X138063809Y-78841019D02*
X138101904Y-78793400D01*
X138101904Y-78674352D01*
X138063809Y-78626733D01*
X137987619Y-78602923D01*
X137911428Y-78602923D01*
X137835238Y-78626733D01*
X137797142Y-78674352D01*
X137797142Y-78793400D01*
X137759047Y-78841019D01*
X138101904Y-79079114D02*
X137568571Y-79079114D01*
X137720952Y-79079114D02*
X137644761Y-79102923D01*
X137606666Y-79126733D01*
X137568571Y-79174352D01*
X137568571Y-79221971D01*
X138101904Y-79388638D02*
X137568571Y-79388638D01*
X137301904Y-79388638D02*
X137340000Y-79364828D01*
X137378095Y-79388638D01*
X137340000Y-79412447D01*
X137301904Y-79388638D01*
X137378095Y-79388638D01*
X138025714Y-80293400D02*
X138063809Y-80269590D01*
X138101904Y-80198161D01*
X138101904Y-80150542D01*
X138063809Y-80079114D01*
X137987619Y-80031495D01*
X137911428Y-80007685D01*
X137759047Y-79983876D01*
X137644761Y-79983876D01*
X137492380Y-80007685D01*
X137416190Y-80031495D01*
X137340000Y-80079114D01*
X137301904Y-80150542D01*
X137301904Y-80198161D01*
X137340000Y-80269590D01*
X137378095Y-80293400D01*
X137301904Y-80602923D02*
X137301904Y-80698161D01*
X137340000Y-80745780D01*
X137416190Y-80793400D01*
X137568571Y-80817209D01*
X137835238Y-80817209D01*
X137987619Y-80793400D01*
X138063809Y-80745780D01*
X138101904Y-80698161D01*
X138101904Y-80602923D01*
X138063809Y-80555304D01*
X137987619Y-80507685D01*
X137835238Y-80483876D01*
X137568571Y-80483876D01*
X137416190Y-80507685D01*
X137340000Y-80555304D01*
X137301904Y-80602923D01*
X137301904Y-81245780D02*
X137301904Y-81150542D01*
X137340000Y-81102923D01*
X137378095Y-81079114D01*
X137492380Y-81031495D01*
X137644761Y-81007685D01*
X137949523Y-81007685D01*
X138025714Y-81031495D01*
X138063809Y-81055304D01*
X138101904Y-81102923D01*
X138101904Y-81198161D01*
X138063809Y-81245780D01*
X138025714Y-81269590D01*
X137949523Y-81293400D01*
X137759047Y-81293400D01*
X137682857Y-81269590D01*
X137644761Y-81245780D01*
X137606666Y-81198161D01*
X137606666Y-81102923D01*
X137644761Y-81055304D01*
X137682857Y-81031495D01*
X137759047Y-81007685D01*
X137301904Y-81602923D02*
X137301904Y-81650542D01*
X137340000Y-81698161D01*
X137378095Y-81721971D01*
X137454285Y-81745780D01*
X137606666Y-81769590D01*
X137797142Y-81769590D01*
X137949523Y-81745780D01*
X138025714Y-81721971D01*
X138063809Y-81698161D01*
X138101904Y-81650542D01*
X138101904Y-81602923D01*
X138063809Y-81555304D01*
X138025714Y-81531495D01*
X137949523Y-81507685D01*
X137797142Y-81483876D01*
X137606666Y-81483876D01*
X137454285Y-81507685D01*
X137378095Y-81531495D01*
X137340000Y-81555304D01*
X137301904Y-81602923D01*
X137568571Y-82198161D02*
X138101904Y-82198161D01*
X137263809Y-82079114D02*
X137835238Y-81960066D01*
X137835238Y-82269590D01*
X137301904Y-82412447D02*
X137301904Y-82745780D01*
X138101904Y-82531495D01*
X137378095Y-82912447D02*
X137340000Y-82936257D01*
X137301904Y-82983876D01*
X137301904Y-83102923D01*
X137340000Y-83150542D01*
X137378095Y-83174352D01*
X137454285Y-83198161D01*
X137530476Y-83198161D01*
X137644761Y-83174352D01*
X138101904Y-82888638D01*
X138101904Y-83198161D01*
X139426904Y-76793400D02*
X138626904Y-76793400D01*
X138626904Y-76912447D01*
X138665000Y-76983876D01*
X138741190Y-77031495D01*
X138817380Y-77055304D01*
X138969761Y-77079114D01*
X139084047Y-77079114D01*
X139236428Y-77055304D01*
X139312619Y-77031495D01*
X139388809Y-76983876D01*
X139426904Y-76912447D01*
X139426904Y-76793400D01*
X139388809Y-77483876D02*
X139426904Y-77436257D01*
X139426904Y-77341019D01*
X139388809Y-77293400D01*
X139312619Y-77269590D01*
X139007857Y-77269590D01*
X138931666Y-77293400D01*
X138893571Y-77341019D01*
X138893571Y-77436257D01*
X138931666Y-77483876D01*
X139007857Y-77507685D01*
X139084047Y-77507685D01*
X139160238Y-77269590D01*
X139426904Y-77793400D02*
X139388809Y-77745780D01*
X139312619Y-77721971D01*
X138626904Y-77721971D01*
X139426904Y-78198161D02*
X139007857Y-78198161D01*
X138931666Y-78174352D01*
X138893571Y-78126733D01*
X138893571Y-78031495D01*
X138931666Y-77983876D01*
X139388809Y-78198161D02*
X139426904Y-78150542D01*
X139426904Y-78031495D01*
X139388809Y-77983876D01*
X139312619Y-77960066D01*
X139236428Y-77960066D01*
X139160238Y-77983876D01*
X139122142Y-78031495D01*
X139122142Y-78150542D01*
X139084047Y-78198161D01*
X138893571Y-78388638D02*
X139426904Y-78507685D01*
X138893571Y-78626733D02*
X139426904Y-78507685D01*
X139617380Y-78460066D01*
X139655476Y-78436257D01*
X139693571Y-78388638D01*
X139426904Y-79436257D02*
X139426904Y-79198161D01*
X138626904Y-79198161D01*
X139426904Y-79602923D02*
X138893571Y-79602923D01*
X138626904Y-79602923D02*
X138665000Y-79579114D01*
X138703095Y-79602923D01*
X138665000Y-79626733D01*
X138626904Y-79602923D01*
X138703095Y-79602923D01*
X138893571Y-79841019D02*
X139426904Y-79841019D01*
X138969761Y-79841019D02*
X138931666Y-79864828D01*
X138893571Y-79912447D01*
X138893571Y-79983876D01*
X138931666Y-80031495D01*
X139007857Y-80055304D01*
X139426904Y-80055304D01*
X139388809Y-80483876D02*
X139426904Y-80436257D01*
X139426904Y-80341019D01*
X139388809Y-80293400D01*
X139312619Y-80269590D01*
X139007857Y-80269590D01*
X138931666Y-80293400D01*
X138893571Y-80341019D01*
X138893571Y-80436257D01*
X138931666Y-80483876D01*
X139007857Y-80507685D01*
X139084047Y-80507685D01*
X139160238Y-80269590D01*
X139122142Y-81102923D02*
X139122142Y-81483876D01*
X139426904Y-82388638D02*
X139045952Y-82221971D01*
X139426904Y-82102923D02*
X138626904Y-82102923D01*
X138626904Y-82293400D01*
X138665000Y-82341019D01*
X138703095Y-82364828D01*
X138779285Y-82388638D01*
X138893571Y-82388638D01*
X138969761Y-82364828D01*
X139007857Y-82341019D01*
X139045952Y-82293400D01*
X139045952Y-82102923D01*
X139388809Y-82793400D02*
X139426904Y-82745780D01*
X139426904Y-82650542D01*
X139388809Y-82602923D01*
X139312619Y-82579114D01*
X139007857Y-82579114D01*
X138931666Y-82602923D01*
X138893571Y-82650542D01*
X138893571Y-82745780D01*
X138931666Y-82793400D01*
X139007857Y-82817209D01*
X139084047Y-82817209D01*
X139160238Y-82579114D01*
X138893571Y-82983876D02*
X139426904Y-83102923D01*
X138893571Y-83221971D01*
X139350714Y-83412447D02*
X139388809Y-83436257D01*
X139426904Y-83412447D01*
X139388809Y-83388638D01*
X139350714Y-83412447D01*
X139426904Y-83412447D01*
X139350714Y-84317209D02*
X139388809Y-84293400D01*
X139426904Y-84221971D01*
X139426904Y-84174352D01*
X139388809Y-84102923D01*
X139312619Y-84055304D01*
X139236428Y-84031495D01*
X139084047Y-84007685D01*
X138969761Y-84007685D01*
X138817380Y-84031495D01*
X138741190Y-84055304D01*
X138665000Y-84102923D01*
X138626904Y-84174352D01*
X138626904Y-84221971D01*
X138665000Y-84293400D01*
X138703095Y-84317209D01*
X140751904Y-76114828D02*
X139951904Y-76114828D01*
X139951904Y-76233876D01*
X139990000Y-76305304D01*
X140066190Y-76352923D01*
X140142380Y-76376733D01*
X140294761Y-76400542D01*
X140409047Y-76400542D01*
X140561428Y-76376733D01*
X140637619Y-76352923D01*
X140713809Y-76305304D01*
X140751904Y-76233876D01*
X140751904Y-76114828D01*
X140713809Y-76805304D02*
X140751904Y-76757685D01*
X140751904Y-76662447D01*
X140713809Y-76614828D01*
X140637619Y-76591019D01*
X140332857Y-76591019D01*
X140256666Y-76614828D01*
X140218571Y-76662447D01*
X140218571Y-76757685D01*
X140256666Y-76805304D01*
X140332857Y-76829114D01*
X140409047Y-76829114D01*
X140485238Y-76591019D01*
X140713809Y-77019590D02*
X140751904Y-77067209D01*
X140751904Y-77162447D01*
X140713809Y-77210066D01*
X140637619Y-77233876D01*
X140599523Y-77233876D01*
X140523333Y-77210066D01*
X140485238Y-77162447D01*
X140485238Y-77091019D01*
X140447142Y-77043400D01*
X140370952Y-77019590D01*
X140332857Y-77019590D01*
X140256666Y-77043400D01*
X140218571Y-77091019D01*
X140218571Y-77162447D01*
X140256666Y-77210066D01*
X140751904Y-77448161D02*
X140218571Y-77448161D01*
X139951904Y-77448161D02*
X139990000Y-77424352D01*
X140028095Y-77448161D01*
X139990000Y-77471971D01*
X139951904Y-77448161D01*
X140028095Y-77448161D01*
X140218571Y-77900542D02*
X140866190Y-77900542D01*
X140942380Y-77876733D01*
X140980476Y-77852923D01*
X141018571Y-77805304D01*
X141018571Y-77733876D01*
X140980476Y-77686257D01*
X140713809Y-77900542D02*
X140751904Y-77852923D01*
X140751904Y-77757685D01*
X140713809Y-77710066D01*
X140675714Y-77686257D01*
X140599523Y-77662447D01*
X140370952Y-77662447D01*
X140294761Y-77686257D01*
X140256666Y-77710066D01*
X140218571Y-77757685D01*
X140218571Y-77852923D01*
X140256666Y-77900542D01*
X140218571Y-78138638D02*
X140751904Y-78138638D01*
X140294761Y-78138638D02*
X140256666Y-78162447D01*
X140218571Y-78210066D01*
X140218571Y-78281495D01*
X140256666Y-78329114D01*
X140332857Y-78352923D01*
X140751904Y-78352923D01*
X140675714Y-78591019D02*
X140713809Y-78614828D01*
X140751904Y-78591019D01*
X140713809Y-78567209D01*
X140675714Y-78591019D01*
X140751904Y-78591019D01*
X140256666Y-78591019D02*
X140294761Y-78614828D01*
X140332857Y-78591019D01*
X140294761Y-78567209D01*
X140256666Y-78591019D01*
X140332857Y-78591019D01*
X140751904Y-79495780D02*
X140370952Y-79329114D01*
X140751904Y-79210066D02*
X139951904Y-79210066D01*
X139951904Y-79400542D01*
X139990000Y-79448161D01*
X140028095Y-79471971D01*
X140104285Y-79495780D01*
X140218571Y-79495780D01*
X140294761Y-79471971D01*
X140332857Y-79448161D01*
X140370952Y-79400542D01*
X140370952Y-79210066D01*
X140713809Y-79900542D02*
X140751904Y-79852923D01*
X140751904Y-79757685D01*
X140713809Y-79710066D01*
X140637619Y-79686257D01*
X140332857Y-79686257D01*
X140256666Y-79710066D01*
X140218571Y-79757685D01*
X140218571Y-79852923D01*
X140256666Y-79900542D01*
X140332857Y-79924352D01*
X140409047Y-79924352D01*
X140485238Y-79686257D01*
X140218571Y-80067209D02*
X140218571Y-80257685D01*
X139951904Y-80138638D02*
X140637619Y-80138638D01*
X140713809Y-80162447D01*
X140751904Y-80210066D01*
X140751904Y-80257685D01*
X140751904Y-80424352D02*
X140218571Y-80424352D01*
X140370952Y-80424352D02*
X140294761Y-80448161D01*
X140256666Y-80471971D01*
X140218571Y-80519590D01*
X140218571Y-80567209D01*
X140751904Y-80805304D02*
X140713809Y-80757685D01*
X140675714Y-80733876D01*
X140599523Y-80710066D01*
X140370952Y-80710066D01*
X140294761Y-80733876D01*
X140256666Y-80757685D01*
X140218571Y-80805304D01*
X140218571Y-80876733D01*
X140256666Y-80924352D01*
X140294761Y-80948161D01*
X140370952Y-80971971D01*
X140599523Y-80971971D01*
X140675714Y-80948161D01*
X140713809Y-80924352D01*
X140751904Y-80876733D01*
X140751904Y-80805304D01*
X140523333Y-81162447D02*
X140523333Y-81400542D01*
X140751904Y-81114828D02*
X139951904Y-81281495D01*
X140751904Y-81448161D01*
X140751904Y-81829114D02*
X139951904Y-81829114D01*
X140713809Y-81829114D02*
X140751904Y-81781495D01*
X140751904Y-81686257D01*
X140713809Y-81638638D01*
X140675714Y-81614828D01*
X140599523Y-81591019D01*
X140370952Y-81591019D01*
X140294761Y-81614828D01*
X140256666Y-81638638D01*
X140218571Y-81686257D01*
X140218571Y-81781495D01*
X140256666Y-81829114D01*
X140218571Y-82019590D02*
X140751904Y-82138638D01*
X140218571Y-82257685D01*
X140713809Y-82638638D02*
X140751904Y-82591019D01*
X140751904Y-82495780D01*
X140713809Y-82448161D01*
X140637619Y-82424352D01*
X140332857Y-82424352D01*
X140256666Y-82448161D01*
X140218571Y-82495780D01*
X140218571Y-82591019D01*
X140256666Y-82638638D01*
X140332857Y-82662447D01*
X140409047Y-82662447D01*
X140485238Y-82424352D01*
X140218571Y-82876733D02*
X140751904Y-82876733D01*
X140294761Y-82876733D02*
X140256666Y-82900542D01*
X140218571Y-82948161D01*
X140218571Y-83019590D01*
X140256666Y-83067209D01*
X140332857Y-83091019D01*
X140751904Y-83091019D01*
X140218571Y-83257685D02*
X140218571Y-83448161D01*
X139951904Y-83329114D02*
X140637619Y-83329114D01*
X140713809Y-83352923D01*
X140751904Y-83400542D01*
X140751904Y-83448161D01*
X140218571Y-83829114D02*
X140751904Y-83829114D01*
X140218571Y-83614828D02*
X140637619Y-83614828D01*
X140713809Y-83638638D01*
X140751904Y-83686257D01*
X140751904Y-83757685D01*
X140713809Y-83805304D01*
X140675714Y-83829114D01*
X140751904Y-84067209D02*
X140218571Y-84067209D01*
X140370952Y-84067209D02*
X140294761Y-84091019D01*
X140256666Y-84114828D01*
X140218571Y-84162447D01*
X140218571Y-84210066D01*
X140713809Y-84567209D02*
X140751904Y-84519590D01*
X140751904Y-84424352D01*
X140713809Y-84376733D01*
X140637619Y-84352923D01*
X140332857Y-84352923D01*
X140256666Y-84376733D01*
X140218571Y-84424352D01*
X140218571Y-84519590D01*
X140256666Y-84567209D01*
X140332857Y-84591019D01*
X140409047Y-84591019D01*
X140485238Y-84352923D01*
X140713809Y-84781495D02*
X140751904Y-84829114D01*
X140751904Y-84924352D01*
X140713809Y-84971971D01*
X140637619Y-84995780D01*
X140599523Y-84995780D01*
X140523333Y-84971971D01*
X140485238Y-84924352D01*
X140485238Y-84852923D01*
X140447142Y-84805304D01*
X140370952Y-84781495D01*
X140332857Y-84781495D01*
X140256666Y-84805304D01*
X140218571Y-84852923D01*
X140218571Y-84924352D01*
X140256666Y-84971971D01*
D11*
X138932000Y-69275400D02*
X138232000Y-69275400D01*
X138232000Y-70475400D02*
X138932000Y-70475400D01*
X138983000Y-71409000D02*
X138283000Y-71409000D01*
X138283000Y-72609000D02*
X138983000Y-72609000D01*
X138983000Y-73491800D02*
X138283000Y-73491800D01*
X138283000Y-74691800D02*
X138983000Y-74691800D01*
D10*
X136262533Y-70028571D02*
X136286342Y-70052380D01*
X136357771Y-70076190D01*
X136405390Y-70076190D01*
X136476819Y-70052380D01*
X136524438Y-70004761D01*
X136548247Y-69957142D01*
X136572057Y-69861904D01*
X136572057Y-69790476D01*
X136548247Y-69695238D01*
X136524438Y-69647619D01*
X136476819Y-69600000D01*
X136405390Y-69576190D01*
X136357771Y-69576190D01*
X136286342Y-69600000D01*
X136262533Y-69623809D01*
X135786342Y-70076190D02*
X136072057Y-70076190D01*
X135929200Y-70076190D02*
X135929200Y-69576190D01*
X135976819Y-69647619D01*
X136024438Y-69695238D01*
X136072057Y-69719047D01*
X136313533Y-72187571D02*
X136337342Y-72211380D01*
X136408771Y-72235190D01*
X136456390Y-72235190D01*
X136527819Y-72211380D01*
X136575438Y-72163761D01*
X136599247Y-72116142D01*
X136623057Y-72020904D01*
X136623057Y-71949476D01*
X136599247Y-71854238D01*
X136575438Y-71806619D01*
X136527819Y-71759000D01*
X136456390Y-71735190D01*
X136408771Y-71735190D01*
X136337342Y-71759000D01*
X136313533Y-71782809D01*
X136123057Y-71782809D02*
X136099247Y-71759000D01*
X136051628Y-71735190D01*
X135932580Y-71735190D01*
X135884961Y-71759000D01*
X135861152Y-71782809D01*
X135837342Y-71830428D01*
X135837342Y-71878047D01*
X135861152Y-71949476D01*
X136146866Y-72235190D01*
X135837342Y-72235190D01*
X138741933Y-75489571D02*
X138765742Y-75513380D01*
X138837171Y-75537190D01*
X138884790Y-75537190D01*
X138956219Y-75513380D01*
X139003838Y-75465761D01*
X139027647Y-75418142D01*
X139051457Y-75322904D01*
X139051457Y-75251476D01*
X139027647Y-75156238D01*
X139003838Y-75108619D01*
X138956219Y-75061000D01*
X138884790Y-75037190D01*
X138837171Y-75037190D01*
X138765742Y-75061000D01*
X138741933Y-75084809D01*
X138575266Y-75037190D02*
X138265742Y-75037190D01*
X138432409Y-75227666D01*
X138360980Y-75227666D01*
X138313361Y-75251476D01*
X138289552Y-75275285D01*
X138265742Y-75322904D01*
X138265742Y-75441952D01*
X138289552Y-75489571D01*
X138313361Y-75513380D01*
X138360980Y-75537190D01*
X138503838Y-75537190D01*
X138551457Y-75513380D01*
X138575266Y-75489571D01*
M02*
