G04 #@! TF.GenerationSoftware,KiCad,Pcbnew,(5.1.4)-1*
G04 #@! TF.CreationDate,2020-12-06T02:09:58+01:00*
G04 #@! TF.ProjectId,Delay Line,44656c61-7920-44c6-996e-652e6b696361,rev?*
G04 #@! TF.SameCoordinates,Original*
G04 #@! TF.FileFunction,Copper,L1,Top*
G04 #@! TF.FilePolarity,Positive*
%FSLAX46Y46*%
G04 Gerber Fmt 4.6, Leading zero omitted, Abs format (unit mm)*
G04 Created by KiCad (PCBNEW (5.1.4)-1) date 2020-12-06 02:09:58*
%MOMM*%
%LPD*%
G04 APERTURE LIST*
%ADD10R,1.600000X1.600000*%
%ADD11O,1.600000X1.600000*%
%ADD12R,1.200000X0.900000*%
%ADD13R,0.450000X1.450000*%
%ADD14C,0.800000*%
%ADD15C,0.250000*%
G04 APERTURE END LIST*
D10*
X134493000Y-68783200D03*
D11*
X142113000Y-84023200D03*
X134493000Y-71323200D03*
X142113000Y-81483200D03*
X134493000Y-73863200D03*
X142113000Y-78943200D03*
X134493000Y-76403200D03*
X142113000Y-76403200D03*
X134493000Y-78943200D03*
X142113000Y-73863200D03*
X134493000Y-81483200D03*
X142113000Y-71323200D03*
X134493000Y-84023200D03*
X142113000Y-68783200D03*
D12*
X139860000Y-77266800D03*
X137660000Y-77266800D03*
X139687100Y-78905100D03*
X137660000Y-78943200D03*
X137660000Y-80619600D03*
X139860000Y-80594200D03*
X137660000Y-82372200D03*
X139885400Y-82372200D03*
X139860000Y-84099400D03*
X137660000Y-84175600D03*
D13*
X136378000Y-69414600D03*
X137028000Y-69414600D03*
X137678000Y-69414600D03*
X138328000Y-69414600D03*
X138978000Y-69414600D03*
X139628000Y-69414600D03*
X140278000Y-69414600D03*
X140278000Y-75314600D03*
X139628000Y-75314600D03*
X138978000Y-75314600D03*
X138328000Y-75314600D03*
X137678000Y-75314600D03*
X137028000Y-75314600D03*
X136378000Y-75314600D03*
D14*
X136666000Y-71249300D03*
X136661200Y-73363300D03*
X135709800Y-73760100D03*
X136477900Y-77524900D03*
X136673000Y-78975900D03*
D15*
X140278000Y-75314600D02*
X140178000Y-74714600D01*
X140178000Y-74714600D02*
X140178000Y-74589600D01*
X140178000Y-74589600D02*
X140178000Y-74455000D01*
X140178000Y-74455000D02*
X140178000Y-74429100D01*
X140178000Y-74429100D02*
X139951000Y-74202100D01*
X139951000Y-74202100D02*
X139679200Y-74202100D01*
X139679200Y-74202100D02*
X139641600Y-74164500D01*
X139641600Y-74164500D02*
X139581200Y-74164500D01*
X139581200Y-74164500D02*
X136666000Y-71249300D01*
X137660000Y-80619600D02*
X137185000Y-80294600D01*
X137185000Y-80294600D02*
X137185000Y-80169600D01*
X137185000Y-80169600D02*
X137185000Y-80117800D01*
X137185000Y-80117800D02*
X137111800Y-80044600D01*
X137111800Y-80044600D02*
X136769900Y-80044600D01*
X136769900Y-80044600D02*
X136388400Y-79663100D01*
X136388400Y-79663100D02*
X135985800Y-79260500D01*
X135985800Y-79260500D02*
X135985800Y-78324900D01*
X135985800Y-78324900D02*
X135785500Y-78124600D01*
X135785500Y-78124600D02*
X135785500Y-77811700D01*
X135785500Y-77811700D02*
X135785500Y-77238100D01*
X135785500Y-77238100D02*
X136191100Y-76832500D01*
X136191100Y-76832500D02*
X136494700Y-76832500D01*
X136494700Y-76832500D02*
X136899000Y-76428200D01*
X136899000Y-76428200D02*
X137024000Y-76428200D01*
X137024000Y-76428200D02*
X137029500Y-76428200D01*
X137029500Y-76428200D02*
X137192000Y-76428200D01*
X137192000Y-76428200D02*
X137324000Y-76428200D01*
X137324000Y-76428200D02*
X137387600Y-76364600D01*
X137387600Y-76364600D02*
X137578000Y-76174200D01*
X137578000Y-76174200D02*
X137578000Y-76039600D01*
X137578000Y-76039600D02*
X137578000Y-75914600D01*
X137578000Y-75914600D02*
X137678000Y-75314600D01*
X137678000Y-75314600D02*
X137578000Y-74714600D01*
X137578000Y-74714600D02*
X137578000Y-74589600D01*
X137578000Y-74589600D02*
X137578000Y-74537800D01*
X137578000Y-74537800D02*
X137578000Y-74455000D01*
X137578000Y-74455000D02*
X137566300Y-74443300D01*
X137566300Y-74443300D02*
X137566300Y-74190600D01*
X137566300Y-74190600D02*
X137002000Y-73626300D01*
X137002000Y-73626300D02*
X136924200Y-73626300D01*
X136924200Y-73626300D02*
X136661200Y-73363300D01*
X138978000Y-75314600D02*
X138878000Y-74714600D01*
X138878000Y-74714600D02*
X138878000Y-74589600D01*
X138878000Y-74589600D02*
X138878000Y-74455000D01*
X138878000Y-74455000D02*
X137486300Y-73063300D01*
X137486300Y-73063300D02*
X137486300Y-73021500D01*
X137486300Y-73021500D02*
X137003000Y-72538200D01*
X137003000Y-72538200D02*
X136319400Y-72538200D01*
X136319400Y-72538200D02*
X135836100Y-73021500D01*
X135836100Y-73021500D02*
X135709800Y-73147800D01*
X135709800Y-73147800D02*
X135709800Y-73760100D01*
X137660000Y-82372200D02*
X137185000Y-82047200D01*
X137185000Y-82047200D02*
X137060000Y-82047200D01*
X137060000Y-82047200D02*
X136658500Y-82047200D01*
X136658500Y-82047200D02*
X136656100Y-82044800D01*
X136656100Y-82044800D02*
X136084800Y-81473500D01*
X136084800Y-81473500D02*
X135718100Y-81106800D01*
X135718100Y-81106800D02*
X135718100Y-80975700D01*
X135718100Y-80975700D02*
X134493000Y-79750600D01*
X134493000Y-79750600D02*
X134493000Y-78943200D01*
X139628000Y-69414600D02*
X139728000Y-70014600D01*
X139728000Y-70014600D02*
X139728000Y-70139600D01*
X139728000Y-70139600D02*
X139728000Y-70670800D01*
X139728000Y-70670800D02*
X140887900Y-71830700D01*
X140887900Y-71830700D02*
X141605500Y-72548300D01*
X141605500Y-72548300D02*
X141729400Y-72672200D01*
X141729400Y-72672200D02*
X142606300Y-72672200D01*
X142606300Y-72672200D02*
X143304000Y-73369900D01*
X143304000Y-73369900D02*
X143304000Y-74356500D01*
X143304000Y-74356500D02*
X143300400Y-74360100D01*
X143300400Y-74360100D02*
X143300400Y-76895000D01*
X143300400Y-76895000D02*
X143296600Y-76898800D01*
X143296600Y-76898800D02*
X143296600Y-79433500D01*
X143296600Y-79433500D02*
X142113000Y-80617100D01*
X142113000Y-80617100D02*
X142113000Y-81483200D01*
X137660000Y-84175600D02*
X138135000Y-84500600D01*
X138135000Y-84500600D02*
X138260000Y-84500600D01*
X138260000Y-84500600D02*
X138311800Y-84500600D01*
X138311800Y-84500600D02*
X138785700Y-84974500D01*
X138785700Y-84974500D02*
X140283900Y-84974500D01*
X140283900Y-84974500D02*
X140636100Y-84974500D01*
X140636100Y-84974500D02*
X140885100Y-84725500D01*
X140885100Y-84725500D02*
X140885100Y-84600500D01*
X140885100Y-84600500D02*
X140885100Y-83950500D01*
X140885100Y-83950500D02*
X140885100Y-83825500D01*
X140885100Y-83825500D02*
X140885100Y-83023700D01*
X140885100Y-83023700D02*
X140910500Y-82998300D01*
X140910500Y-82998300D02*
X140910500Y-82873300D01*
X140910500Y-82873300D02*
X140910500Y-82685700D01*
X140910500Y-82685700D02*
X142113000Y-81483200D01*
X139860000Y-84099400D02*
X139872700Y-83774400D01*
X139872700Y-83774400D02*
X139872700Y-83649400D01*
X139872700Y-83649400D02*
X139872700Y-82822200D01*
X139872700Y-82822200D02*
X139872700Y-82697200D01*
X139872700Y-82697200D02*
X139885400Y-82372200D01*
X139885400Y-82372200D02*
X140360400Y-82047200D01*
X140360400Y-82047200D02*
X140360400Y-81922200D01*
X140360400Y-81922200D02*
X140360400Y-81745000D01*
X140360400Y-81745000D02*
X140885100Y-81220300D01*
X140885100Y-81220300D02*
X140885100Y-81095300D01*
X140885100Y-81095300D02*
X140885100Y-80445300D01*
X140885100Y-80445300D02*
X140885100Y-80320300D01*
X140885100Y-80320300D02*
X140885100Y-79968100D01*
X140885100Y-79968100D02*
X140712200Y-79795200D01*
X140712200Y-79795200D02*
X140712200Y-78279000D01*
X140712200Y-78279000D02*
X140335000Y-77901800D01*
X140335000Y-77901800D02*
X140335000Y-77716800D01*
X140335000Y-77716800D02*
X140335000Y-77591800D01*
X140335000Y-77591800D02*
X139860000Y-77266800D01*
X134493000Y-68783200D02*
X133818000Y-69458200D01*
X133818000Y-69458200D02*
X133818000Y-69583200D01*
X133818000Y-69583200D02*
X133818000Y-69635000D01*
X133818000Y-69635000D02*
X133288000Y-70165000D01*
X133288000Y-70165000D02*
X133288000Y-70737400D01*
X133288000Y-70737400D02*
X133287200Y-70738200D01*
X133287200Y-70738200D02*
X133287200Y-71278000D01*
X133287200Y-71278000D02*
X133285500Y-71279700D01*
X133285500Y-71279700D02*
X133285500Y-72609200D01*
X133285500Y-72609200D02*
X133285300Y-72609400D01*
X133285300Y-72609400D02*
X133285300Y-72767600D01*
X133285300Y-72767600D02*
X133283600Y-72769300D01*
X133283600Y-72769300D02*
X133283600Y-73362300D01*
X133283600Y-73362300D02*
X133283600Y-74364100D01*
X133283600Y-74364100D02*
X133992100Y-75072600D01*
X133992100Y-75072600D02*
X136153000Y-75072600D01*
X136153000Y-75072600D02*
X136278000Y-75072600D01*
X136278000Y-75072600D02*
X136378000Y-75314600D01*
X139885400Y-82372200D02*
X139410400Y-82047200D01*
X139410400Y-82047200D02*
X139285400Y-82047200D01*
X139285400Y-82047200D02*
X138986200Y-82047200D01*
X138986200Y-82047200D02*
X138436100Y-81497100D01*
X138436100Y-81497100D02*
X138311100Y-81497100D01*
X138311100Y-81497100D02*
X137361100Y-81497100D01*
X137361100Y-81497100D02*
X137236100Y-81497100D01*
X137236100Y-81497100D02*
X136886300Y-81497100D01*
X136886300Y-81497100D02*
X136883900Y-81494700D01*
X136883900Y-81494700D02*
X136634900Y-81245700D01*
X136634900Y-81245700D02*
X136268200Y-80879000D01*
X136268200Y-80879000D02*
X136268200Y-80747900D01*
X136268200Y-80747900D02*
X135559300Y-80039000D01*
X135559300Y-80039000D02*
X135559300Y-78501500D01*
X135559300Y-78501500D02*
X135355700Y-78297900D01*
X135355700Y-78297900D02*
X135355700Y-77989700D01*
X135355700Y-77989700D02*
X135355700Y-77060100D01*
X135355700Y-77060100D02*
X135355700Y-77059900D01*
X135355700Y-77059900D02*
X135567400Y-76848200D01*
X135567400Y-76848200D02*
X135567400Y-76448400D01*
X135567400Y-76448400D02*
X136028000Y-75987800D01*
X136028000Y-75987800D02*
X136101200Y-75914600D01*
X136101200Y-75914600D02*
X136153000Y-75914600D01*
X136153000Y-75914600D02*
X136278000Y-75914600D01*
X136278000Y-75914600D02*
X136378000Y-75314600D01*
X138328000Y-69414600D02*
X138428000Y-70014600D01*
X138428000Y-70014600D02*
X138428000Y-70139600D01*
X138428000Y-70139600D02*
X138428000Y-71785500D01*
X138428000Y-71785500D02*
X140828200Y-74185700D01*
X140828200Y-74185700D02*
X140828200Y-74313600D01*
X140828200Y-74313600D02*
X140928100Y-74413500D01*
X140928100Y-74413500D02*
X140928100Y-74538500D01*
X140928100Y-74538500D02*
X140928100Y-74957100D01*
X140928100Y-74957100D02*
X140928100Y-75218300D01*
X140928100Y-75218300D02*
X142113000Y-76403200D01*
X137660000Y-77266800D02*
X138135000Y-76941800D01*
X138135000Y-76941800D02*
X138260000Y-76941800D01*
X138260000Y-76941800D02*
X138585400Y-76941800D01*
X138585400Y-76941800D02*
X139099000Y-76428200D01*
X139099000Y-76428200D02*
X139224000Y-76428200D01*
X139224000Y-76428200D02*
X139792000Y-76428200D01*
X139792000Y-76428200D02*
X139954500Y-76428200D01*
X139954500Y-76428200D02*
X140174000Y-76428200D01*
X140174000Y-76428200D02*
X140299000Y-76428200D01*
X140299000Y-76428200D02*
X142088000Y-76428200D01*
X142088000Y-76428200D02*
X142113000Y-76403200D01*
X139687100Y-78905100D02*
X139212100Y-78580100D01*
X139212100Y-78580100D02*
X139087100Y-78580100D01*
X139087100Y-78580100D02*
X138895900Y-78580100D01*
X138895900Y-78580100D02*
X138420800Y-78105000D01*
X138420800Y-78105000D02*
X138295800Y-78105000D01*
X138295800Y-78105000D02*
X137345800Y-78105000D01*
X137345800Y-78105000D02*
X137220800Y-78105000D01*
X137220800Y-78105000D02*
X136899200Y-78105000D01*
X136899200Y-78105000D02*
X136671800Y-77877600D01*
X136671800Y-77877600D02*
X136477900Y-77683700D01*
X136477900Y-77683700D02*
X136477900Y-77524900D01*
X139860000Y-80594200D02*
X139773500Y-80269200D01*
X139773500Y-80269200D02*
X139773500Y-80144200D01*
X139773500Y-80144200D02*
X139773500Y-79355100D01*
X139773500Y-79355100D02*
X139773500Y-79230100D01*
X139773500Y-79230100D02*
X139687100Y-78905100D01*
X137028000Y-75314600D02*
X136928000Y-74714600D01*
X136928000Y-74714600D02*
X136928000Y-74589600D01*
X136928000Y-74589600D02*
X136928000Y-74455000D01*
X136928000Y-74455000D02*
X136737600Y-74264600D01*
X136737600Y-74264600D02*
X136737400Y-74264600D01*
X136737400Y-74264600D02*
X136649200Y-74176400D01*
X136649200Y-74176400D02*
X136306800Y-74176400D01*
X136306800Y-74176400D02*
X136246200Y-74237000D01*
X136246200Y-74237000D02*
X135907300Y-74237000D01*
X135907300Y-74237000D02*
X135512300Y-74237000D01*
X135512300Y-74237000D02*
X135232900Y-73957600D01*
X135232900Y-73957600D02*
X135232900Y-73556700D01*
X135232900Y-73556700D02*
X134493000Y-72816800D01*
X134493000Y-72816800D02*
X134493000Y-71323200D01*
X137660000Y-78943200D02*
X137185000Y-78975900D01*
X137185000Y-78975900D02*
X137060000Y-78975900D01*
X137060000Y-78975900D02*
X136673000Y-78975900D01*
X137028000Y-69414600D02*
X137128000Y-68814600D01*
X137128000Y-68814600D02*
X137128000Y-68689600D01*
X137128000Y-68689600D02*
X137128000Y-68555000D01*
X137128000Y-68555000D02*
X137318400Y-68364600D01*
X137318400Y-68364600D02*
X137626800Y-68364600D01*
X137626800Y-68364600D02*
X137726900Y-68264500D01*
X137726900Y-68264500D02*
X137926900Y-68264500D01*
X137926900Y-68264500D02*
X138051900Y-68264500D01*
X138051900Y-68264500D02*
X138114000Y-68264500D01*
X138114000Y-68264500D02*
X138251900Y-68264500D01*
X138251900Y-68264500D02*
X138376900Y-68264500D01*
X138376900Y-68264500D02*
X138576900Y-68264500D01*
X138576900Y-68264500D02*
X139026900Y-68264500D01*
X139026900Y-68264500D02*
X139226900Y-68264500D01*
X139226900Y-68264500D02*
X139351900Y-68264500D01*
X139351900Y-68264500D02*
X139472300Y-68264500D01*
X139472300Y-68264500D02*
X139551900Y-68264500D01*
X139551900Y-68264500D02*
X139676900Y-68264500D01*
X139676900Y-68264500D02*
X139876900Y-68264500D01*
X139876900Y-68264500D02*
X140229100Y-68264500D01*
X140229100Y-68264500D02*
X140249200Y-68284600D01*
X140249200Y-68284600D02*
X140670800Y-68284600D01*
X140670800Y-68284600D02*
X140908000Y-68521800D01*
X140908000Y-68521800D02*
X140908000Y-68547400D01*
X140908000Y-68547400D02*
X140908000Y-69857000D01*
X140908000Y-69857000D02*
X140928100Y-69877100D01*
X140928100Y-69877100D02*
X140928100Y-69963500D01*
X140928100Y-69963500D02*
X140928100Y-70138300D01*
X140928100Y-70138300D02*
X142113000Y-71323200D01*
X136378000Y-69414600D02*
X136478000Y-68814600D01*
X136478000Y-68814600D02*
X136478000Y-68689600D01*
X136478000Y-68689600D02*
X136478000Y-68285700D01*
X136478000Y-68285700D02*
X137049100Y-67714600D01*
X137049100Y-67714600D02*
X137498900Y-67714600D01*
X137498900Y-67714600D02*
X137499100Y-67714400D01*
X137499100Y-67714400D02*
X137699100Y-67714400D01*
X137699100Y-67714400D02*
X137824100Y-67714400D01*
X137824100Y-67714400D02*
X137886200Y-67714400D01*
X137886200Y-67714400D02*
X138024100Y-67714400D01*
X138024100Y-67714400D02*
X138149100Y-67714400D01*
X138149100Y-67714400D02*
X138349100Y-67714400D01*
X138349100Y-67714400D02*
X138799100Y-67714400D01*
X138799100Y-67714400D02*
X138999100Y-67714400D01*
X138999100Y-67714400D02*
X139124100Y-67714400D01*
X139124100Y-67714400D02*
X139244500Y-67714400D01*
X139244500Y-67714400D02*
X139324100Y-67714400D01*
X139324100Y-67714400D02*
X139449100Y-67714400D01*
X139449100Y-67714400D02*
X139649100Y-67714400D01*
X139649100Y-67714400D02*
X140099100Y-67714400D01*
X140099100Y-67714400D02*
X140906900Y-67714400D01*
X140906900Y-67714400D02*
X141975700Y-68783200D01*
X141975700Y-68783200D02*
X142113000Y-68783200D01*
M02*
