G04 #@! TF.GenerationSoftware,KiCad,Pcbnew,(5.1.4)-1*
G04 #@! TF.CreationDate,2020-11-15T03:32:05+01:00*
G04 #@! TF.ProjectId,Delay Line,44656c61-7920-44c6-996e-652e6b696361,rev?*
G04 #@! TF.SameCoordinates,Original*
G04 #@! TF.FileFunction,Copper,L1,Top*
G04 #@! TF.FilePolarity,Positive*
%FSLAX46Y46*%
G04 Gerber Fmt 4.6, Leading zero omitted, Abs format (unit mm)*
G04 Created by KiCad (PCBNEW (5.1.4)-1) date 2020-11-15 03:32:05*
%MOMM*%
%LPD*%
G04 APERTURE LIST*
%ADD10O,1.600000X1.600000*%
%ADD11R,1.600000X1.600000*%
%ADD12R,0.750000X1.200000*%
%ADD13R,0.900000X1.200000*%
%ADD14C,0.800000*%
%ADD15C,0.250000*%
G04 APERTURE END LIST*
D10*
X142265000Y-68707000D03*
X134645000Y-83947000D03*
X142265000Y-71247000D03*
X134645000Y-81407000D03*
X142265000Y-73787000D03*
X134645000Y-78867000D03*
X142265000Y-76327000D03*
X134645000Y-76327000D03*
X142265000Y-78867000D03*
X134645000Y-73787000D03*
X142265000Y-81407000D03*
X134645000Y-71247000D03*
X142265000Y-83947000D03*
D11*
X134645000Y-68707000D03*
D12*
X144297000Y-68249800D03*
X144297000Y-70149800D03*
X144297000Y-75245000D03*
X144297000Y-73345000D03*
X144297000Y-78653600D03*
X144297000Y-80553600D03*
D13*
X130391000Y-68783200D03*
X130391000Y-70983200D03*
X130352900Y-74193400D03*
X130391000Y-76220500D03*
X130391000Y-81694200D03*
X130365600Y-79494200D03*
X132283000Y-71008600D03*
X132283000Y-68783200D03*
X132282800Y-74015600D03*
X132359000Y-76215600D03*
D14*
X144297000Y-72144400D03*
X143314500Y-67770900D03*
X144297000Y-77446500D03*
X131030500Y-72451800D03*
X130269000Y-77550200D03*
D15*
X144297000Y-72144400D02*
X144297000Y-73345000D01*
X143314500Y-67770900D02*
X143596700Y-68053100D01*
X143596700Y-68053100D02*
X143596700Y-68249800D01*
X144297000Y-68249800D02*
X143596700Y-68249800D01*
X144297000Y-77446500D02*
X144297000Y-78653600D01*
X134645000Y-73787000D02*
X134645000Y-74912300D01*
X145056900Y-79603600D02*
X143514900Y-79603600D01*
X143514900Y-79603600D02*
X143114900Y-80003600D01*
X143114900Y-80003600D02*
X134167600Y-80003600D01*
X134167600Y-80003600D02*
X133518700Y-79354700D01*
X133518700Y-79354700D02*
X133518700Y-75845800D01*
X133518700Y-75845800D02*
X134452200Y-74912300D01*
X134452200Y-74912300D02*
X134645000Y-74912300D01*
X145056900Y-79603600D02*
X145056900Y-74501800D01*
X145056900Y-74501800D02*
X144874700Y-74319600D01*
X144874700Y-74319600D02*
X143794700Y-74319600D01*
X143794700Y-74319600D02*
X143571600Y-74096500D01*
X143571600Y-74096500D02*
X143571600Y-70174900D01*
X143571600Y-70174900D02*
X143596700Y-70149800D01*
X131166300Y-81694200D02*
X131166300Y-82081900D01*
X131166300Y-82081900D02*
X134183900Y-85099500D01*
X134183900Y-85099500D02*
X139044600Y-85099500D01*
X139044600Y-85099500D02*
X141611800Y-82532300D01*
X141611800Y-82532300D02*
X143782800Y-82532300D01*
X143782800Y-82532300D02*
X145056900Y-81258200D01*
X145056900Y-81258200D02*
X145056900Y-79603600D01*
X144297000Y-70149800D02*
X143596700Y-70149800D01*
X130391000Y-81694200D02*
X131166300Y-81694200D01*
X132283000Y-71008600D02*
X133058300Y-71008600D01*
X137376200Y-75185700D02*
X137376200Y-72324500D01*
X137376200Y-72324500D02*
X135164300Y-70112600D01*
X135164300Y-70112600D02*
X133954300Y-70112600D01*
X133954300Y-70112600D02*
X133058300Y-71008600D01*
X134645000Y-77741700D02*
X134904800Y-77741700D01*
X134904800Y-77741700D02*
X137376200Y-75270300D01*
X137376200Y-75270300D02*
X137376200Y-75185700D01*
X137376200Y-75185700D02*
X143537400Y-75185700D01*
X143537400Y-75185700D02*
X143596700Y-75245000D01*
X144297000Y-75245000D02*
X143596700Y-75245000D01*
X134645000Y-78867000D02*
X134645000Y-77741700D01*
X142265000Y-81407000D02*
X143390300Y-81407000D01*
X144297000Y-80553600D02*
X143596700Y-80553600D01*
X143390300Y-81407000D02*
X143390300Y-80760000D01*
X143390300Y-80760000D02*
X143596700Y-80553600D01*
X142147400Y-81407000D02*
X142265000Y-81407000D01*
X142147400Y-81407000D02*
X141139700Y-81407000D01*
X141139700Y-81407000D02*
X139992600Y-82554100D01*
X139992600Y-82554100D02*
X134187400Y-82554100D01*
X134187400Y-82554100D02*
X132359000Y-80725700D01*
X132359000Y-80725700D02*
X132359000Y-76215600D01*
X132283000Y-68783200D02*
X131166300Y-68783200D01*
X133519700Y-68707000D02*
X133443500Y-68783200D01*
X133443500Y-68783200D02*
X132283000Y-68783200D01*
X130391000Y-68783200D02*
X131166300Y-68783200D01*
X132282800Y-74015600D02*
X132282800Y-72586400D01*
X132282800Y-72586400D02*
X131166300Y-71469900D01*
X131166300Y-71469900D02*
X131166300Y-68783200D01*
X134645000Y-68707000D02*
X133519700Y-68707000D01*
X130391000Y-70983200D02*
X130391000Y-71908500D01*
X130391000Y-71908500D02*
X130487200Y-71908500D01*
X130487200Y-71908500D02*
X131030500Y-72451800D01*
X131182300Y-74963700D02*
X131182300Y-74247500D01*
X131182300Y-74247500D02*
X131128200Y-74193400D01*
X131140900Y-79494200D02*
X131182300Y-79452800D01*
X131182300Y-79452800D02*
X131182300Y-74963700D01*
X131182300Y-74963700D02*
X132861300Y-74963700D01*
X132861300Y-74963700D02*
X133519700Y-74305300D01*
X133519700Y-74305300D02*
X133519700Y-73216200D01*
X133519700Y-73216200D02*
X134363600Y-72372300D01*
X134363600Y-72372300D02*
X134645000Y-72372300D01*
X134645000Y-71247000D02*
X134645000Y-72372300D01*
X130352900Y-74193400D02*
X131128200Y-74193400D01*
X130365600Y-79494200D02*
X131140900Y-79494200D01*
X130391000Y-76220500D02*
X130391000Y-77145800D01*
X130391000Y-77145800D02*
X130269000Y-77267800D01*
X130269000Y-77267800D02*
X130269000Y-77550200D01*
M02*
