G04 #@! TF.GenerationSoftware,KiCad,Pcbnew,(5.1.4)-1*
G04 #@! TF.CreationDate,2020-11-15T03:32:05+01:00*
G04 #@! TF.ProjectId,Delay Line,44656c61-7920-44c6-996e-652e6b696361,rev?*
G04 #@! TF.SameCoordinates,Original*
G04 #@! TF.FileFunction,Soldermask,Top*
G04 #@! TF.FilePolarity,Negative*
%FSLAX46Y46*%
G04 Gerber Fmt 4.6, Leading zero omitted, Abs format (unit mm)*
G04 Created by KiCad (PCBNEW (5.1.4)-1) date 2020-11-15 03:32:05*
%MOMM*%
%LPD*%
G04 APERTURE LIST*
%ADD10C,0.100000*%
G04 APERTURE END LIST*
D10*
G36*
X134811823Y-83108313D02*
G01*
X134972242Y-83156976D01*
X135104906Y-83227886D01*
X135120078Y-83235996D01*
X135249659Y-83342341D01*
X135356004Y-83471922D01*
X135356005Y-83471924D01*
X135435024Y-83619758D01*
X135483687Y-83780177D01*
X135500117Y-83947000D01*
X135483687Y-84113823D01*
X135435024Y-84274242D01*
X135364114Y-84406906D01*
X135356004Y-84422078D01*
X135249659Y-84551659D01*
X135120078Y-84658004D01*
X135120076Y-84658005D01*
X134972242Y-84737024D01*
X134811823Y-84785687D01*
X134686804Y-84798000D01*
X134603196Y-84798000D01*
X134478177Y-84785687D01*
X134317758Y-84737024D01*
X134169924Y-84658005D01*
X134169922Y-84658004D01*
X134040341Y-84551659D01*
X133933996Y-84422078D01*
X133925886Y-84406906D01*
X133854976Y-84274242D01*
X133806313Y-84113823D01*
X133789883Y-83947000D01*
X133806313Y-83780177D01*
X133854976Y-83619758D01*
X133933995Y-83471924D01*
X133933996Y-83471922D01*
X134040341Y-83342341D01*
X134169922Y-83235996D01*
X134185094Y-83227886D01*
X134317758Y-83156976D01*
X134478177Y-83108313D01*
X134603196Y-83096000D01*
X134686804Y-83096000D01*
X134811823Y-83108313D01*
X134811823Y-83108313D01*
G37*
G36*
X142431823Y-83108313D02*
G01*
X142592242Y-83156976D01*
X142724906Y-83227886D01*
X142740078Y-83235996D01*
X142869659Y-83342341D01*
X142976004Y-83471922D01*
X142976005Y-83471924D01*
X143055024Y-83619758D01*
X143103687Y-83780177D01*
X143120117Y-83947000D01*
X143103687Y-84113823D01*
X143055024Y-84274242D01*
X142984114Y-84406906D01*
X142976004Y-84422078D01*
X142869659Y-84551659D01*
X142740078Y-84658004D01*
X142740076Y-84658005D01*
X142592242Y-84737024D01*
X142431823Y-84785687D01*
X142306804Y-84798000D01*
X142223196Y-84798000D01*
X142098177Y-84785687D01*
X141937758Y-84737024D01*
X141789924Y-84658005D01*
X141789922Y-84658004D01*
X141660341Y-84551659D01*
X141553996Y-84422078D01*
X141545886Y-84406906D01*
X141474976Y-84274242D01*
X141426313Y-84113823D01*
X141409883Y-83947000D01*
X141426313Y-83780177D01*
X141474976Y-83619758D01*
X141553995Y-83471924D01*
X141553996Y-83471922D01*
X141660341Y-83342341D01*
X141789922Y-83235996D01*
X141805094Y-83227886D01*
X141937758Y-83156976D01*
X142098177Y-83108313D01*
X142223196Y-83096000D01*
X142306804Y-83096000D01*
X142431823Y-83108313D01*
X142431823Y-83108313D01*
G37*
G36*
X130892000Y-82345200D02*
G01*
X129890000Y-82345200D01*
X129890000Y-81043200D01*
X130892000Y-81043200D01*
X130892000Y-82345200D01*
X130892000Y-82345200D01*
G37*
G36*
X134811823Y-80568313D02*
G01*
X134972242Y-80616976D01*
X135104906Y-80687886D01*
X135120078Y-80695996D01*
X135249659Y-80802341D01*
X135356004Y-80931922D01*
X135356005Y-80931924D01*
X135435024Y-81079758D01*
X135483687Y-81240177D01*
X135500117Y-81407000D01*
X135483687Y-81573823D01*
X135435024Y-81734242D01*
X135364114Y-81866906D01*
X135356004Y-81882078D01*
X135249659Y-82011659D01*
X135120078Y-82118004D01*
X135120076Y-82118005D01*
X134972242Y-82197024D01*
X134811823Y-82245687D01*
X134686804Y-82258000D01*
X134603196Y-82258000D01*
X134478177Y-82245687D01*
X134317758Y-82197024D01*
X134169924Y-82118005D01*
X134169922Y-82118004D01*
X134040341Y-82011659D01*
X133933996Y-81882078D01*
X133925886Y-81866906D01*
X133854976Y-81734242D01*
X133806313Y-81573823D01*
X133789883Y-81407000D01*
X133806313Y-81240177D01*
X133854976Y-81079758D01*
X133933995Y-80931924D01*
X133933996Y-80931922D01*
X134040341Y-80802341D01*
X134169922Y-80695996D01*
X134185094Y-80687886D01*
X134317758Y-80616976D01*
X134478177Y-80568313D01*
X134603196Y-80556000D01*
X134686804Y-80556000D01*
X134811823Y-80568313D01*
X134811823Y-80568313D01*
G37*
G36*
X142431823Y-80568313D02*
G01*
X142592242Y-80616976D01*
X142724906Y-80687886D01*
X142740078Y-80695996D01*
X142869659Y-80802341D01*
X142976004Y-80931922D01*
X142976005Y-80931924D01*
X143055024Y-81079758D01*
X143103687Y-81240177D01*
X143120117Y-81407000D01*
X143103687Y-81573823D01*
X143055024Y-81734242D01*
X142984114Y-81866906D01*
X142976004Y-81882078D01*
X142869659Y-82011659D01*
X142740078Y-82118004D01*
X142740076Y-82118005D01*
X142592242Y-82197024D01*
X142431823Y-82245687D01*
X142306804Y-82258000D01*
X142223196Y-82258000D01*
X142098177Y-82245687D01*
X141937758Y-82197024D01*
X141789924Y-82118005D01*
X141789922Y-82118004D01*
X141660341Y-82011659D01*
X141553996Y-81882078D01*
X141545886Y-81866906D01*
X141474976Y-81734242D01*
X141426313Y-81573823D01*
X141409883Y-81407000D01*
X141426313Y-81240177D01*
X141474976Y-81079758D01*
X141553995Y-80931924D01*
X141553996Y-80931922D01*
X141660341Y-80802341D01*
X141789922Y-80695996D01*
X141805094Y-80687886D01*
X141937758Y-80616976D01*
X142098177Y-80568313D01*
X142223196Y-80556000D01*
X142306804Y-80556000D01*
X142431823Y-80568313D01*
X142431823Y-80568313D01*
G37*
G36*
X144723000Y-81204600D02*
G01*
X143871000Y-81204600D01*
X143871000Y-79902600D01*
X144723000Y-79902600D01*
X144723000Y-81204600D01*
X144723000Y-81204600D01*
G37*
G36*
X130866600Y-80145200D02*
G01*
X129864600Y-80145200D01*
X129864600Y-78843200D01*
X130866600Y-78843200D01*
X130866600Y-80145200D01*
X130866600Y-80145200D01*
G37*
G36*
X142431823Y-78028313D02*
G01*
X142592242Y-78076976D01*
X142724906Y-78147886D01*
X142740078Y-78155996D01*
X142869659Y-78262341D01*
X142976004Y-78391922D01*
X142976005Y-78391924D01*
X143055024Y-78539758D01*
X143103687Y-78700177D01*
X143120117Y-78867000D01*
X143103687Y-79033823D01*
X143055024Y-79194242D01*
X142996036Y-79304600D01*
X142976004Y-79342078D01*
X142869659Y-79471659D01*
X142740078Y-79578004D01*
X142740076Y-79578005D01*
X142592242Y-79657024D01*
X142431823Y-79705687D01*
X142306804Y-79718000D01*
X142223196Y-79718000D01*
X142098177Y-79705687D01*
X141937758Y-79657024D01*
X141789924Y-79578005D01*
X141789922Y-79578004D01*
X141660341Y-79471659D01*
X141553996Y-79342078D01*
X141533964Y-79304600D01*
X141474976Y-79194242D01*
X141426313Y-79033823D01*
X141409883Y-78867000D01*
X141426313Y-78700177D01*
X141474976Y-78539758D01*
X141553995Y-78391924D01*
X141553996Y-78391922D01*
X141660341Y-78262341D01*
X141789922Y-78155996D01*
X141805094Y-78147886D01*
X141937758Y-78076976D01*
X142098177Y-78028313D01*
X142223196Y-78016000D01*
X142306804Y-78016000D01*
X142431823Y-78028313D01*
X142431823Y-78028313D01*
G37*
G36*
X134811823Y-78028313D02*
G01*
X134972242Y-78076976D01*
X135104906Y-78147886D01*
X135120078Y-78155996D01*
X135249659Y-78262341D01*
X135356004Y-78391922D01*
X135356005Y-78391924D01*
X135435024Y-78539758D01*
X135483687Y-78700177D01*
X135500117Y-78867000D01*
X135483687Y-79033823D01*
X135435024Y-79194242D01*
X135376036Y-79304600D01*
X135356004Y-79342078D01*
X135249659Y-79471659D01*
X135120078Y-79578004D01*
X135120076Y-79578005D01*
X134972242Y-79657024D01*
X134811823Y-79705687D01*
X134686804Y-79718000D01*
X134603196Y-79718000D01*
X134478177Y-79705687D01*
X134317758Y-79657024D01*
X134169924Y-79578005D01*
X134169922Y-79578004D01*
X134040341Y-79471659D01*
X133933996Y-79342078D01*
X133913964Y-79304600D01*
X133854976Y-79194242D01*
X133806313Y-79033823D01*
X133789883Y-78867000D01*
X133806313Y-78700177D01*
X133854976Y-78539758D01*
X133933995Y-78391924D01*
X133933996Y-78391922D01*
X134040341Y-78262341D01*
X134169922Y-78155996D01*
X134185094Y-78147886D01*
X134317758Y-78076976D01*
X134478177Y-78028313D01*
X134603196Y-78016000D01*
X134686804Y-78016000D01*
X134811823Y-78028313D01*
X134811823Y-78028313D01*
G37*
G36*
X144723000Y-79304600D02*
G01*
X143871000Y-79304600D01*
X143871000Y-78002600D01*
X144723000Y-78002600D01*
X144723000Y-79304600D01*
X144723000Y-79304600D01*
G37*
G36*
X134811823Y-75488313D02*
G01*
X134972242Y-75536976D01*
X135104906Y-75607886D01*
X135120078Y-75615996D01*
X135249659Y-75722341D01*
X135356004Y-75851922D01*
X135356005Y-75851924D01*
X135435024Y-75999758D01*
X135483687Y-76160177D01*
X135500117Y-76327000D01*
X135483687Y-76493823D01*
X135435024Y-76654242D01*
X135364114Y-76786906D01*
X135356004Y-76802078D01*
X135249659Y-76931659D01*
X135120078Y-77038004D01*
X135120076Y-77038005D01*
X134972242Y-77117024D01*
X134811823Y-77165687D01*
X134686804Y-77178000D01*
X134603196Y-77178000D01*
X134478177Y-77165687D01*
X134317758Y-77117024D01*
X134169924Y-77038005D01*
X134169922Y-77038004D01*
X134040341Y-76931659D01*
X133933996Y-76802078D01*
X133925886Y-76786906D01*
X133854976Y-76654242D01*
X133806313Y-76493823D01*
X133789883Y-76327000D01*
X133806313Y-76160177D01*
X133854976Y-75999758D01*
X133933995Y-75851924D01*
X133933996Y-75851922D01*
X134040341Y-75722341D01*
X134169922Y-75615996D01*
X134185094Y-75607886D01*
X134317758Y-75536976D01*
X134478177Y-75488313D01*
X134603196Y-75476000D01*
X134686804Y-75476000D01*
X134811823Y-75488313D01*
X134811823Y-75488313D01*
G37*
G36*
X142431823Y-75488313D02*
G01*
X142592242Y-75536976D01*
X142724906Y-75607886D01*
X142740078Y-75615996D01*
X142869659Y-75722341D01*
X142976004Y-75851922D01*
X142976005Y-75851924D01*
X143055024Y-75999758D01*
X143103687Y-76160177D01*
X143120117Y-76327000D01*
X143103687Y-76493823D01*
X143055024Y-76654242D01*
X142984114Y-76786906D01*
X142976004Y-76802078D01*
X142869659Y-76931659D01*
X142740078Y-77038004D01*
X142740076Y-77038005D01*
X142592242Y-77117024D01*
X142431823Y-77165687D01*
X142306804Y-77178000D01*
X142223196Y-77178000D01*
X142098177Y-77165687D01*
X141937758Y-77117024D01*
X141789924Y-77038005D01*
X141789922Y-77038004D01*
X141660341Y-76931659D01*
X141553996Y-76802078D01*
X141545886Y-76786906D01*
X141474976Y-76654242D01*
X141426313Y-76493823D01*
X141409883Y-76327000D01*
X141426313Y-76160177D01*
X141474976Y-75999758D01*
X141553995Y-75851924D01*
X141553996Y-75851922D01*
X141660341Y-75722341D01*
X141789922Y-75615996D01*
X141805094Y-75607886D01*
X141937758Y-75536976D01*
X142098177Y-75488313D01*
X142223196Y-75476000D01*
X142306804Y-75476000D01*
X142431823Y-75488313D01*
X142431823Y-75488313D01*
G37*
G36*
X130892000Y-76871500D02*
G01*
X129890000Y-76871500D01*
X129890000Y-75569500D01*
X130892000Y-75569500D01*
X130892000Y-76871500D01*
X130892000Y-76871500D01*
G37*
G36*
X132860000Y-76866600D02*
G01*
X131858000Y-76866600D01*
X131858000Y-75564600D01*
X132860000Y-75564600D01*
X132860000Y-76866600D01*
X132860000Y-76866600D01*
G37*
G36*
X144723000Y-75896000D02*
G01*
X143871000Y-75896000D01*
X143871000Y-74594000D01*
X144723000Y-74594000D01*
X144723000Y-75896000D01*
X144723000Y-75896000D01*
G37*
G36*
X130853900Y-74844400D02*
G01*
X129851900Y-74844400D01*
X129851900Y-73542400D01*
X130853900Y-73542400D01*
X130853900Y-74844400D01*
X130853900Y-74844400D01*
G37*
G36*
X132783800Y-74666600D02*
G01*
X131781800Y-74666600D01*
X131781800Y-73364600D01*
X132783800Y-73364600D01*
X132783800Y-74666600D01*
X132783800Y-74666600D01*
G37*
G36*
X134811823Y-72948313D02*
G01*
X134972242Y-72996976D01*
X135104906Y-73067886D01*
X135120078Y-73075996D01*
X135249659Y-73182341D01*
X135356004Y-73311922D01*
X135356005Y-73311924D01*
X135435024Y-73459758D01*
X135483687Y-73620177D01*
X135500117Y-73787000D01*
X135483687Y-73953823D01*
X135435024Y-74114242D01*
X135364114Y-74246906D01*
X135356004Y-74262078D01*
X135249659Y-74391659D01*
X135120078Y-74498004D01*
X135120076Y-74498005D01*
X134972242Y-74577024D01*
X134811823Y-74625687D01*
X134686804Y-74638000D01*
X134603196Y-74638000D01*
X134478177Y-74625687D01*
X134317758Y-74577024D01*
X134169924Y-74498005D01*
X134169922Y-74498004D01*
X134040341Y-74391659D01*
X133933996Y-74262078D01*
X133925886Y-74246906D01*
X133854976Y-74114242D01*
X133806313Y-73953823D01*
X133789883Y-73787000D01*
X133806313Y-73620177D01*
X133854976Y-73459758D01*
X133933995Y-73311924D01*
X133933996Y-73311922D01*
X134040341Y-73182341D01*
X134169922Y-73075996D01*
X134185094Y-73067886D01*
X134317758Y-72996976D01*
X134478177Y-72948313D01*
X134603196Y-72936000D01*
X134686804Y-72936000D01*
X134811823Y-72948313D01*
X134811823Y-72948313D01*
G37*
G36*
X142431823Y-72948313D02*
G01*
X142592242Y-72996976D01*
X142724906Y-73067886D01*
X142740078Y-73075996D01*
X142869659Y-73182341D01*
X142976004Y-73311922D01*
X142976005Y-73311924D01*
X143055024Y-73459758D01*
X143103687Y-73620177D01*
X143120117Y-73787000D01*
X143103687Y-73953823D01*
X143055024Y-74114242D01*
X142984114Y-74246906D01*
X142976004Y-74262078D01*
X142869659Y-74391659D01*
X142740078Y-74498004D01*
X142740076Y-74498005D01*
X142592242Y-74577024D01*
X142431823Y-74625687D01*
X142306804Y-74638000D01*
X142223196Y-74638000D01*
X142098177Y-74625687D01*
X141937758Y-74577024D01*
X141789924Y-74498005D01*
X141789922Y-74498004D01*
X141660341Y-74391659D01*
X141553996Y-74262078D01*
X141545886Y-74246906D01*
X141474976Y-74114242D01*
X141426313Y-73953823D01*
X141409883Y-73787000D01*
X141426313Y-73620177D01*
X141474976Y-73459758D01*
X141553995Y-73311924D01*
X141553996Y-73311922D01*
X141660341Y-73182341D01*
X141789922Y-73075996D01*
X141805094Y-73067886D01*
X141937758Y-72996976D01*
X142098177Y-72948313D01*
X142223196Y-72936000D01*
X142306804Y-72936000D01*
X142431823Y-72948313D01*
X142431823Y-72948313D01*
G37*
G36*
X144723000Y-73996000D02*
G01*
X143871000Y-73996000D01*
X143871000Y-72694000D01*
X144723000Y-72694000D01*
X144723000Y-73996000D01*
X144723000Y-73996000D01*
G37*
G36*
X134811823Y-70408313D02*
G01*
X134972242Y-70456976D01*
X135104906Y-70527886D01*
X135120078Y-70535996D01*
X135249659Y-70642341D01*
X135356004Y-70771922D01*
X135356005Y-70771924D01*
X135435024Y-70919758D01*
X135483687Y-71080177D01*
X135500117Y-71247000D01*
X135483687Y-71413823D01*
X135435024Y-71574242D01*
X135389399Y-71659600D01*
X135356004Y-71722078D01*
X135249659Y-71851659D01*
X135120078Y-71958004D01*
X135120076Y-71958005D01*
X134972242Y-72037024D01*
X134811823Y-72085687D01*
X134686804Y-72098000D01*
X134603196Y-72098000D01*
X134478177Y-72085687D01*
X134317758Y-72037024D01*
X134169924Y-71958005D01*
X134169922Y-71958004D01*
X134040341Y-71851659D01*
X133933996Y-71722078D01*
X133900601Y-71659600D01*
X133854976Y-71574242D01*
X133806313Y-71413823D01*
X133789883Y-71247000D01*
X133806313Y-71080177D01*
X133854976Y-70919758D01*
X133933995Y-70771924D01*
X133933996Y-70771922D01*
X134040341Y-70642341D01*
X134169922Y-70535996D01*
X134185094Y-70527886D01*
X134317758Y-70456976D01*
X134478177Y-70408313D01*
X134603196Y-70396000D01*
X134686804Y-70396000D01*
X134811823Y-70408313D01*
X134811823Y-70408313D01*
G37*
G36*
X142431823Y-70408313D02*
G01*
X142592242Y-70456976D01*
X142724906Y-70527886D01*
X142740078Y-70535996D01*
X142869659Y-70642341D01*
X142976004Y-70771922D01*
X142976005Y-70771924D01*
X143055024Y-70919758D01*
X143103687Y-71080177D01*
X143120117Y-71247000D01*
X143103687Y-71413823D01*
X143055024Y-71574242D01*
X143009399Y-71659600D01*
X142976004Y-71722078D01*
X142869659Y-71851659D01*
X142740078Y-71958004D01*
X142740076Y-71958005D01*
X142592242Y-72037024D01*
X142431823Y-72085687D01*
X142306804Y-72098000D01*
X142223196Y-72098000D01*
X142098177Y-72085687D01*
X141937758Y-72037024D01*
X141789924Y-71958005D01*
X141789922Y-71958004D01*
X141660341Y-71851659D01*
X141553996Y-71722078D01*
X141520601Y-71659600D01*
X141474976Y-71574242D01*
X141426313Y-71413823D01*
X141409883Y-71247000D01*
X141426313Y-71080177D01*
X141474976Y-70919758D01*
X141553995Y-70771924D01*
X141553996Y-70771922D01*
X141660341Y-70642341D01*
X141789922Y-70535996D01*
X141805094Y-70527886D01*
X141937758Y-70456976D01*
X142098177Y-70408313D01*
X142223196Y-70396000D01*
X142306804Y-70396000D01*
X142431823Y-70408313D01*
X142431823Y-70408313D01*
G37*
G36*
X132784000Y-71659600D02*
G01*
X131782000Y-71659600D01*
X131782000Y-70357600D01*
X132784000Y-70357600D01*
X132784000Y-71659600D01*
X132784000Y-71659600D01*
G37*
G36*
X130892000Y-71634200D02*
G01*
X129890000Y-71634200D01*
X129890000Y-70332200D01*
X130892000Y-70332200D01*
X130892000Y-71634200D01*
X130892000Y-71634200D01*
G37*
G36*
X144723000Y-70800800D02*
G01*
X143871000Y-70800800D01*
X143871000Y-69498800D01*
X144723000Y-69498800D01*
X144723000Y-70800800D01*
X144723000Y-70800800D01*
G37*
G36*
X135496000Y-69558000D02*
G01*
X133794000Y-69558000D01*
X133794000Y-67856000D01*
X135496000Y-67856000D01*
X135496000Y-69558000D01*
X135496000Y-69558000D01*
G37*
G36*
X142431823Y-67868313D02*
G01*
X142592242Y-67916976D01*
X142724906Y-67987886D01*
X142740078Y-67995996D01*
X142869659Y-68102341D01*
X142976004Y-68231922D01*
X142976005Y-68231924D01*
X143055024Y-68379758D01*
X143103687Y-68540177D01*
X143120117Y-68707000D01*
X143103687Y-68873823D01*
X143055024Y-69034242D01*
X142984114Y-69166906D01*
X142976004Y-69182078D01*
X142869659Y-69311659D01*
X142740078Y-69418004D01*
X142740076Y-69418005D01*
X142592242Y-69497024D01*
X142592239Y-69497025D01*
X142562380Y-69506083D01*
X142431823Y-69545687D01*
X142306804Y-69558000D01*
X142223196Y-69558000D01*
X142098177Y-69545687D01*
X141967620Y-69506083D01*
X141937761Y-69497025D01*
X141937758Y-69497024D01*
X141789924Y-69418005D01*
X141789922Y-69418004D01*
X141660341Y-69311659D01*
X141553996Y-69182078D01*
X141545886Y-69166906D01*
X141474976Y-69034242D01*
X141426313Y-68873823D01*
X141409883Y-68707000D01*
X141426313Y-68540177D01*
X141474976Y-68379758D01*
X141553995Y-68231924D01*
X141553996Y-68231922D01*
X141660341Y-68102341D01*
X141789922Y-67995996D01*
X141805094Y-67987886D01*
X141937758Y-67916976D01*
X142098177Y-67868313D01*
X142223196Y-67856000D01*
X142306804Y-67856000D01*
X142431823Y-67868313D01*
X142431823Y-67868313D01*
G37*
G36*
X130892000Y-69434200D02*
G01*
X129890000Y-69434200D01*
X129890000Y-68132200D01*
X130892000Y-68132200D01*
X130892000Y-69434200D01*
X130892000Y-69434200D01*
G37*
G36*
X132784000Y-69434200D02*
G01*
X131782000Y-69434200D01*
X131782000Y-68132200D01*
X132784000Y-68132200D01*
X132784000Y-69434200D01*
X132784000Y-69434200D01*
G37*
G36*
X144723000Y-68900800D02*
G01*
X143871000Y-68900800D01*
X143871000Y-67598800D01*
X144723000Y-67598800D01*
X144723000Y-68900800D01*
X144723000Y-68900800D01*
G37*
M02*
