G04 #@! TF.GenerationSoftware,KiCad,Pcbnew,(5.1.4)-1*
G04 #@! TF.CreationDate,2020-11-29T00:03:58+01:00*
G04 #@! TF.ProjectId,Delay Line,44656c61-7920-44c6-996e-652e6b696361,rev?*
G04 #@! TF.SameCoordinates,Original*
G04 #@! TF.FileFunction,Copper,L1,Top*
G04 #@! TF.FilePolarity,Positive*
%FSLAX46Y46*%
G04 Gerber Fmt 4.6, Leading zero omitted, Abs format (unit mm)*
G04 Created by KiCad (PCBNEW (5.1.4)-1) date 2020-11-29 00:03:58*
%MOMM*%
%LPD*%
G04 APERTURE LIST*
%ADD10R,1.600000X1.600000*%
%ADD11O,1.600000X1.600000*%
%ADD12R,0.750000X1.200000*%
%ADD13R,0.900000X1.200000*%
%ADD14R,0.450000X1.450000*%
%ADD15C,0.800000*%
%ADD16C,0.250000*%
G04 APERTURE END LIST*
D10*
X134493000Y-68783200D03*
D11*
X142113000Y-84023200D03*
X134493000Y-71323200D03*
X142113000Y-81483200D03*
X134493000Y-73863200D03*
X142113000Y-78943200D03*
X134493000Y-76403200D03*
X142113000Y-76403200D03*
X134493000Y-78943200D03*
X142113000Y-73863200D03*
X134493000Y-81483200D03*
X142113000Y-71323200D03*
X134493000Y-84023200D03*
X142113000Y-68783200D03*
D12*
X144297000Y-68249800D03*
X144297000Y-70149800D03*
X144297000Y-75245000D03*
X144297000Y-73345000D03*
X144297000Y-78653600D03*
X144297000Y-80553600D03*
D13*
X130391000Y-68783200D03*
X130391000Y-70983200D03*
X130352900Y-74193400D03*
X130391000Y-76220500D03*
X130391000Y-81694200D03*
X130365600Y-79494200D03*
X132283000Y-71008600D03*
X132283000Y-68783200D03*
X132206800Y-74015600D03*
X132283000Y-76215600D03*
D14*
X136378000Y-72361000D03*
X137028000Y-72361000D03*
X137678000Y-72361000D03*
X138328000Y-72361000D03*
X138978000Y-72361000D03*
X139628000Y-72361000D03*
X140278000Y-72361000D03*
X140278000Y-78261000D03*
X139628000Y-78261000D03*
X138978000Y-78261000D03*
X138328000Y-78261000D03*
X137678000Y-78261000D03*
X137028000Y-78261000D03*
X136378000Y-78261000D03*
D15*
X138947400Y-76935900D03*
X132672000Y-77415700D03*
X138987600Y-75835800D03*
X131689700Y-72260500D03*
X138322700Y-73686100D03*
X130738200Y-72864900D03*
X130187700Y-77420600D03*
D16*
X144297000Y-78653600D02*
X144547000Y-78178600D01*
X144547000Y-78178600D02*
X144547000Y-78053600D01*
X144547000Y-78053600D02*
X144547000Y-76473200D01*
X144547000Y-76473200D02*
X145027800Y-75992400D01*
X145027800Y-75992400D02*
X145027800Y-75867400D01*
X145027800Y-75867400D02*
X145027800Y-75178900D01*
X145027800Y-75178900D02*
X145027800Y-74917400D01*
X145027800Y-74917400D02*
X145027800Y-74792400D01*
X145027800Y-74792400D02*
X145027800Y-74497600D01*
X145027800Y-74497600D02*
X144797000Y-74266800D01*
X144797000Y-74266800D02*
X144797000Y-73893200D01*
X144797000Y-73893200D02*
X144723800Y-73820000D01*
X144723800Y-73820000D02*
X144672000Y-73820000D01*
X144672000Y-73820000D02*
X144547000Y-73820000D01*
X144547000Y-73820000D02*
X144297000Y-73345000D01*
X144297000Y-68249800D02*
X144047000Y-68724800D01*
X144047000Y-68724800D02*
X144047000Y-68849800D01*
X144047000Y-68849800D02*
X144047000Y-68901600D01*
X144047000Y-68901600D02*
X143973800Y-68974800D01*
X143973800Y-68974800D02*
X143823900Y-69124700D01*
X143823900Y-69124700D02*
X143745900Y-69124700D01*
X143745900Y-69124700D02*
X143496900Y-69373700D01*
X143496900Y-69373700D02*
X143496900Y-70573700D01*
X143496900Y-70573700D02*
X143496900Y-70925900D01*
X143496900Y-70925900D02*
X143496900Y-72496700D01*
X143496900Y-72496700D02*
X143797000Y-72796800D01*
X143797000Y-72796800D02*
X143870200Y-72870000D01*
X143870200Y-72870000D02*
X143922000Y-72870000D01*
X143922000Y-72870000D02*
X144047000Y-72870000D01*
X144047000Y-72870000D02*
X144297000Y-73345000D01*
X140278000Y-78261000D02*
X140178000Y-78861000D01*
X140178000Y-78861000D02*
X140178000Y-78986000D01*
X140178000Y-78986000D02*
X140178000Y-79120600D01*
X140178000Y-79120600D02*
X139987600Y-79311000D01*
X139987600Y-79311000D02*
X135275400Y-84023200D01*
X135275400Y-84023200D02*
X134493000Y-84023200D01*
X140278000Y-78261000D02*
X140378000Y-77718100D01*
X140378000Y-77718100D02*
X140503000Y-77718100D01*
X140503000Y-77718100D02*
X142620500Y-77718100D01*
X142620500Y-77718100D02*
X143081000Y-78178600D01*
X143081000Y-78178600D02*
X143922000Y-78178600D01*
X143922000Y-78178600D02*
X144047000Y-78178600D01*
X144047000Y-78178600D02*
X144297000Y-78653600D01*
X137678000Y-78261000D02*
X137578000Y-78861000D01*
X137578000Y-78861000D02*
X137578000Y-78986000D01*
X137578000Y-78986000D02*
X137578000Y-79037800D01*
X137578000Y-79037800D02*
X137578000Y-79120600D01*
X137578000Y-79120600D02*
X137578000Y-79389900D01*
X137578000Y-79389900D02*
X135718100Y-81249800D01*
X135718100Y-81249800D02*
X135718100Y-81990700D01*
X135718100Y-81990700D02*
X135000500Y-82708300D01*
X135000500Y-82708300D02*
X133985500Y-82708300D01*
X133985500Y-82708300D02*
X131431900Y-82708300D01*
X131431900Y-82708300D02*
X130892800Y-82169200D01*
X130892800Y-82169200D02*
X130841000Y-82169200D01*
X130841000Y-82169200D02*
X130716000Y-82169200D01*
X130716000Y-82169200D02*
X130391000Y-81694200D01*
X134493000Y-73863200D02*
X134493000Y-73892700D01*
X134493000Y-73892700D02*
X136268200Y-75667900D01*
X136268200Y-75667900D02*
X136268200Y-76075000D01*
X136268200Y-76075000D02*
X137553100Y-77359900D01*
X137553100Y-77359900D02*
X137553100Y-77376500D01*
X137553100Y-77376500D02*
X137578000Y-77401400D01*
X137578000Y-77401400D02*
X137578000Y-77536000D01*
X137578000Y-77536000D02*
X137578000Y-77661000D01*
X137578000Y-77661000D02*
X137678000Y-78261000D01*
X144297000Y-70149800D02*
X144547000Y-69674800D01*
X144547000Y-69674800D02*
X144547000Y-69549800D01*
X144547000Y-69549800D02*
X144547000Y-69478000D01*
X144547000Y-69478000D02*
X145027800Y-68997200D01*
X145027800Y-68997200D02*
X145027800Y-68872200D01*
X145027800Y-68872200D02*
X145027800Y-68418400D01*
X145027800Y-68418400D02*
X145027800Y-67922200D01*
X145027800Y-67922200D02*
X145027800Y-67797200D01*
X145027800Y-67797200D02*
X145027800Y-67502400D01*
X145027800Y-67502400D02*
X144819400Y-67294000D01*
X144819400Y-67294000D02*
X144717000Y-67294000D01*
X144717000Y-67294000D02*
X144701000Y-67278000D01*
X144701000Y-67278000D02*
X144246800Y-67278000D01*
X144246800Y-67278000D02*
X144201000Y-67278000D01*
X144201000Y-67278000D02*
X144076000Y-67278000D01*
X144076000Y-67278000D02*
X143768000Y-67278000D01*
X143768000Y-67278000D02*
X143487900Y-67558100D01*
X143487900Y-67558100D02*
X141605500Y-67558100D01*
X141605500Y-67558100D02*
X139052900Y-70110700D01*
X139052900Y-70110700D02*
X136821200Y-70110700D01*
X136821200Y-70110700D02*
X135927700Y-71004200D01*
X135927700Y-71004200D02*
X135718100Y-71213800D01*
X135718100Y-71213800D02*
X135718100Y-71830700D01*
X135718100Y-71830700D02*
X134493000Y-73055800D01*
X134493000Y-73055800D02*
X134493000Y-73863200D01*
X138978000Y-78261000D02*
X138947400Y-77661000D01*
X138947400Y-77661000D02*
X138947400Y-77536000D01*
X138947400Y-77536000D02*
X138947400Y-76935900D01*
X144297000Y-75245000D02*
X144047000Y-75178100D01*
X144047000Y-75178100D02*
X143922000Y-75178100D01*
X143922000Y-75178100D02*
X141605500Y-75178100D01*
X141605500Y-75178100D02*
X139847700Y-76935900D01*
X139847700Y-76935900D02*
X138947400Y-76935900D01*
X132283000Y-71008600D02*
X132467300Y-71483600D01*
X132467300Y-71483600D02*
X132467300Y-71608600D01*
X132467300Y-71608600D02*
X132467300Y-72582600D01*
X132467300Y-72582600D02*
X132011800Y-73038100D01*
X132011800Y-73038100D02*
X131725500Y-73038100D01*
X131725500Y-73038100D02*
X131725400Y-73038000D01*
X131725400Y-73038000D02*
X131702600Y-73060800D01*
X131702600Y-73060800D02*
X131609800Y-73060800D01*
X131609800Y-73060800D02*
X131402000Y-73268600D01*
X131402000Y-73268600D02*
X131331700Y-73338900D01*
X131331700Y-73338900D02*
X131331700Y-73479800D01*
X131331700Y-73479800D02*
X131331700Y-73832000D01*
X131331700Y-73832000D02*
X131331700Y-74470800D01*
X131331700Y-74470800D02*
X131404900Y-74544000D01*
X131404900Y-74544000D02*
X131404900Y-74761400D01*
X131404900Y-74761400D02*
X131611000Y-74967500D01*
X131611000Y-74967500D02*
X131834000Y-75190500D01*
X131834000Y-75190500D02*
X132909100Y-75190500D01*
X132909100Y-75190500D02*
X133158100Y-75439500D01*
X133158100Y-75439500D02*
X133158100Y-75564500D01*
X133158100Y-75564500D02*
X133158100Y-76514500D01*
X133158100Y-76514500D02*
X133158100Y-76639500D01*
X133158100Y-76639500D02*
X133158100Y-76767900D01*
X133158100Y-76767900D02*
X133473800Y-77083600D01*
X133473800Y-77083600D02*
X133473800Y-77924000D01*
X133473800Y-77924000D02*
X134493000Y-78943200D01*
X139628000Y-72361000D02*
X139528000Y-72961000D01*
X139528000Y-72961000D02*
X139528000Y-73086000D01*
X139528000Y-73086000D02*
X139147800Y-73466200D01*
X139147800Y-73466200D02*
X139147800Y-74027900D01*
X139147800Y-74027900D02*
X138987600Y-74188100D01*
X138987600Y-74188100D02*
X138987600Y-75835800D01*
X144297000Y-80553600D02*
X144047000Y-81028600D01*
X144047000Y-81028600D02*
X143922000Y-81028600D01*
X143922000Y-81028600D02*
X143870200Y-81028600D01*
X143870200Y-81028600D02*
X143415600Y-81483200D01*
X143415600Y-81483200D02*
X142113000Y-81483200D01*
X132283000Y-76215600D02*
X132608000Y-76690600D01*
X132608000Y-76690600D02*
X132608000Y-76815600D01*
X132608000Y-76815600D02*
X132608000Y-77351700D01*
X132608000Y-77351700D02*
X132672000Y-77415700D01*
X132206800Y-74015600D02*
X132531800Y-73540600D01*
X132531800Y-73540600D02*
X132531800Y-73415600D01*
X132531800Y-73415600D02*
X132531800Y-73363100D01*
X132531800Y-73363100D02*
X133064800Y-72830100D01*
X133064800Y-72830100D02*
X133064800Y-71878000D01*
X133064800Y-71878000D02*
X133158100Y-71784700D01*
X133158100Y-71784700D02*
X133158100Y-71659700D01*
X133158100Y-71659700D02*
X133158100Y-70783000D01*
X133158100Y-70783000D02*
X133158100Y-70709700D01*
X133158100Y-70709700D02*
X133158100Y-70584700D01*
X133158100Y-70584700D02*
X133158100Y-69941300D01*
X133158100Y-69941300D02*
X133568000Y-69531400D01*
X133568000Y-69531400D02*
X133641200Y-69458200D01*
X133641200Y-69458200D02*
X133693000Y-69458200D01*
X133693000Y-69458200D02*
X133818000Y-69458200D01*
X133818000Y-69458200D02*
X134493000Y-68783200D01*
X130391000Y-68783200D02*
X130716000Y-68783200D01*
X130716000Y-68783200D02*
X130841000Y-68783200D01*
X130841000Y-68783200D02*
X131833000Y-68783200D01*
X131833000Y-68783200D02*
X131958000Y-68783200D01*
X131958000Y-68783200D02*
X132283000Y-68783200D01*
X132283000Y-68783200D02*
X132608000Y-68783200D01*
X132608000Y-68783200D02*
X132733000Y-68783200D01*
X132733000Y-68783200D02*
X133693000Y-68783200D01*
X133693000Y-68783200D02*
X133818000Y-68783200D01*
X133818000Y-68783200D02*
X134493000Y-68783200D01*
X136378000Y-78261000D02*
X136278000Y-77661000D01*
X136278000Y-77661000D02*
X136278000Y-77536000D01*
X136278000Y-77536000D02*
X136278000Y-77484200D01*
X136278000Y-77484200D02*
X135718100Y-76924300D01*
X135718100Y-76924300D02*
X135718100Y-75895700D01*
X135718100Y-75895700D02*
X135000500Y-75178100D01*
X135000500Y-75178100D02*
X133674600Y-75178100D01*
X133674600Y-75178100D02*
X133136900Y-74640400D01*
X133136900Y-74640400D02*
X132858400Y-74640400D01*
X132858400Y-74640400D02*
X132708600Y-74490600D01*
X132708600Y-74490600D02*
X132656800Y-74490600D01*
X132656800Y-74490600D02*
X132531800Y-74490600D01*
X132531800Y-74490600D02*
X132206800Y-74015600D01*
X130391000Y-70983200D02*
X130716000Y-71458200D01*
X130716000Y-71458200D02*
X130841000Y-71458200D01*
X130841000Y-71458200D02*
X130892800Y-71458200D01*
X130892800Y-71458200D02*
X130966000Y-71531400D01*
X130966000Y-71531400D02*
X130966000Y-71536800D01*
X130966000Y-71536800D02*
X131689700Y-72260500D01*
X138322700Y-73686100D02*
X138322700Y-73086000D01*
X138322700Y-73086000D02*
X138322700Y-72961000D01*
X138322700Y-72961000D02*
X138328000Y-72361000D01*
X130352900Y-74193400D02*
X130677900Y-73718400D01*
X130677900Y-73718400D02*
X130677900Y-73593400D01*
X130677900Y-73593400D02*
X130677900Y-72925200D01*
X130677900Y-72925200D02*
X130738200Y-72864900D01*
X137028000Y-78261000D02*
X136928000Y-78861000D01*
X136928000Y-78861000D02*
X136928000Y-78986000D01*
X136928000Y-78986000D02*
X136928000Y-79120600D01*
X136928000Y-79120600D02*
X136903100Y-79145500D01*
X136903100Y-79145500D02*
X136903100Y-79162100D01*
X136903100Y-79162100D02*
X136654100Y-79411100D01*
X136654100Y-79411100D02*
X135846000Y-80219200D01*
X135846000Y-80219200D02*
X130867400Y-80219200D01*
X130867400Y-80219200D02*
X130763800Y-80219200D01*
X130763800Y-80219200D02*
X130690600Y-80146000D01*
X130690600Y-80146000D02*
X130690600Y-80094200D01*
X130690600Y-80094200D02*
X130690600Y-79969200D01*
X130690600Y-79969200D02*
X130365600Y-79494200D01*
X130365600Y-79494200D02*
X130690600Y-79019200D01*
X130690600Y-79019200D02*
X130690600Y-78894200D01*
X130690600Y-78894200D02*
X130690600Y-78084600D01*
X130690600Y-78084600D02*
X131012800Y-77762400D01*
X131012800Y-77762400D02*
X131012800Y-77249900D01*
X131012800Y-77249900D02*
X131266100Y-76996600D01*
X131266100Y-76996600D02*
X131266100Y-76871600D01*
X131266100Y-76871600D02*
X131266100Y-75921600D01*
X131266100Y-75921600D02*
X131266100Y-75569400D01*
X131266100Y-75569400D02*
X131252000Y-75555300D01*
X131252000Y-75555300D02*
X131252000Y-75450300D01*
X131252000Y-75450300D02*
X130927900Y-75126200D01*
X130927900Y-75126200D02*
X130927900Y-74741600D01*
X130927900Y-74741600D02*
X130854700Y-74668400D01*
X130854700Y-74668400D02*
X130802900Y-74668400D01*
X130802900Y-74668400D02*
X130677900Y-74668400D01*
X130677900Y-74668400D02*
X130352900Y-74193400D01*
X137028000Y-72361000D02*
X137128000Y-71761000D01*
X137128000Y-71761000D02*
X137128000Y-71636000D01*
X137128000Y-71636000D02*
X137128000Y-71501400D01*
X137128000Y-71501400D02*
X137318400Y-71311000D01*
X137318400Y-71311000D02*
X137408400Y-71311000D01*
X137408400Y-71311000D02*
X137508500Y-71210900D01*
X137508500Y-71210900D02*
X137726900Y-71210900D01*
X137726900Y-71210900D02*
X137926900Y-71210900D01*
X137926900Y-71210900D02*
X138051900Y-71210900D01*
X138051900Y-71210900D02*
X138251900Y-71210900D01*
X138251900Y-71210900D02*
X138376900Y-71210900D01*
X138376900Y-71210900D02*
X138576900Y-71210900D01*
X138576900Y-71210900D02*
X138593500Y-71210900D01*
X138593500Y-71210900D02*
X139026900Y-71210900D01*
X139026900Y-71210900D02*
X139226900Y-71210900D01*
X139226900Y-71210900D02*
X139351900Y-71210900D01*
X139351900Y-71210900D02*
X139551900Y-71210900D01*
X139551900Y-71210900D02*
X139676900Y-71210900D01*
X139676900Y-71210900D02*
X139876900Y-71210900D01*
X139876900Y-71210900D02*
X140326900Y-71210900D01*
X140326900Y-71210900D02*
X140679100Y-71210900D01*
X140679100Y-71210900D02*
X140791400Y-71323200D01*
X140791400Y-71323200D02*
X142113000Y-71323200D01*
X130391000Y-76220500D02*
X130187700Y-76695500D01*
X130187700Y-76695500D02*
X130187700Y-76820500D01*
X130187700Y-76820500D02*
X130187700Y-77420600D01*
X136378000Y-72361000D02*
X136478000Y-71761000D01*
X136478000Y-71761000D02*
X136478000Y-71636000D01*
X136478000Y-71636000D02*
X136478000Y-71232100D01*
X136478000Y-71232100D02*
X137049100Y-70661000D01*
X137049100Y-70661000D02*
X137280500Y-70661000D01*
X137280500Y-70661000D02*
X137280700Y-70660800D01*
X137280700Y-70660800D02*
X137499100Y-70660800D01*
X137499100Y-70660800D02*
X137699100Y-70660800D01*
X137699100Y-70660800D02*
X137824100Y-70660800D01*
X137824100Y-70660800D02*
X138024100Y-70660800D01*
X138024100Y-70660800D02*
X138149100Y-70660800D01*
X138149100Y-70660800D02*
X138349100Y-70660800D01*
X138349100Y-70660800D02*
X138365700Y-70660800D01*
X138365700Y-70660800D02*
X138799100Y-70660800D01*
X138799100Y-70660800D02*
X138999100Y-70660800D01*
X138999100Y-70660800D02*
X139124100Y-70660800D01*
X139124100Y-70660800D02*
X139324100Y-70660800D01*
X139324100Y-70660800D02*
X139449100Y-70660800D01*
X139449100Y-70660800D02*
X139649100Y-70660800D01*
X139649100Y-70660800D02*
X140235400Y-70660800D01*
X140235400Y-70660800D02*
X142113000Y-68783200D01*
M02*
