G04 #@! TF.GenerationSoftware,KiCad,Pcbnew,(5.1.4)-1*
G04 #@! TF.CreationDate,2020-11-29T00:03:58+01:00*
G04 #@! TF.ProjectId,Delay Line,44656c61-7920-44c6-996e-652e6b696361,rev?*
G04 #@! TF.SameCoordinates,Original*
G04 #@! TF.FileFunction,Copper,L2,Bot*
G04 #@! TF.FilePolarity,Positive*
%FSLAX46Y46*%
G04 Gerber Fmt 4.6, Leading zero omitted, Abs format (unit mm)*
G04 Created by KiCad (PCBNEW (5.1.4)-1) date 2020-11-29 00:03:58*
%MOMM*%
%LPD*%
G04 APERTURE LIST*
%ADD10R,1.600000X1.600000*%
%ADD11O,1.600000X1.600000*%
%ADD12C,0.800000*%
%ADD13C,0.250000*%
%ADD14C,0.254000*%
G04 APERTURE END LIST*
D10*
X134493000Y-68783200D03*
D11*
X142113000Y-84023200D03*
X134493000Y-71323200D03*
X142113000Y-81483200D03*
X134493000Y-73863200D03*
X142113000Y-78943200D03*
X134493000Y-76403200D03*
X142113000Y-76403200D03*
X134493000Y-78943200D03*
X142113000Y-73863200D03*
X134493000Y-81483200D03*
X142113000Y-71323200D03*
X134493000Y-84023200D03*
X142113000Y-68783200D03*
D12*
X138947400Y-76935900D03*
X132672000Y-77415700D03*
X138987600Y-75835800D03*
X131689700Y-72260500D03*
X138322700Y-73686100D03*
X130738200Y-72864900D03*
X130187700Y-77420600D03*
D13*
X134493000Y-78943200D02*
X136940100Y-78943200D01*
X136940100Y-78943200D02*
X138947400Y-76935900D01*
X142113000Y-81483200D02*
X139772500Y-79142700D01*
X139772500Y-79142700D02*
X139772500Y-76594100D01*
X139772500Y-76594100D02*
X139289200Y-76110800D01*
X139289200Y-76110800D02*
X139262600Y-76110800D01*
X139262600Y-76110800D02*
X138987600Y-75835800D01*
X132672000Y-77415700D02*
X132884600Y-77628300D01*
X132884600Y-77628300D02*
X133985500Y-77628300D01*
X133985500Y-77628300D02*
X135000500Y-77628300D01*
X135000500Y-77628300D02*
X137088100Y-77628300D01*
X137088100Y-77628300D02*
X138605600Y-76110800D01*
X138605600Y-76110800D02*
X138712600Y-76110800D01*
X138712600Y-76110800D02*
X138987600Y-75835800D01*
X131689700Y-72260500D02*
X132067300Y-72638100D01*
X132067300Y-72638100D02*
X135000500Y-72638100D01*
X135000500Y-72638100D02*
X136048500Y-73686100D01*
X136048500Y-73686100D02*
X138322700Y-73686100D01*
X142113000Y-76403200D02*
X141039800Y-76403200D01*
X141039800Y-76403200D02*
X138322700Y-73686100D01*
X130738200Y-72864900D02*
X130738200Y-72045100D01*
X130738200Y-72045100D02*
X130864600Y-71918700D01*
X130864600Y-71918700D02*
X131347900Y-71435400D01*
X131347900Y-71435400D02*
X134380800Y-71435400D01*
X134380800Y-71435400D02*
X134493000Y-71323200D01*
X130187700Y-77420600D02*
X129913100Y-77146000D01*
X129913100Y-77146000D02*
X129913100Y-73206700D01*
X129913100Y-73206700D02*
X129913100Y-72523100D01*
X129913100Y-72523100D02*
X129913100Y-72092300D01*
X129913100Y-72092300D02*
X130314500Y-71690900D01*
X130314500Y-71690900D02*
X131120100Y-70885300D01*
X131120100Y-70885300D02*
X133198300Y-70885300D01*
X133198300Y-70885300D02*
X133985500Y-70098100D01*
X133985500Y-70098100D02*
X135000500Y-70098100D01*
X135000500Y-70098100D02*
X136225600Y-71323200D01*
X136225600Y-71323200D02*
X142113000Y-71323200D01*
D14*
G36*
X131775053Y-73343646D02*
G01*
X131918314Y-73387103D01*
X132029967Y-73398100D01*
X132029976Y-73398100D01*
X132067299Y-73401776D01*
X132104622Y-73398100D01*
X133134516Y-73398100D01*
X133078764Y-73581891D01*
X133051057Y-73863200D01*
X133078764Y-74144509D01*
X133160818Y-74415008D01*
X133294068Y-74664301D01*
X133473392Y-74882808D01*
X133691899Y-75062132D01*
X133824858Y-75133200D01*
X133691899Y-75204268D01*
X133473392Y-75383592D01*
X133294068Y-75602099D01*
X133160818Y-75851392D01*
X133078764Y-76121891D01*
X133051057Y-76403200D01*
X133056113Y-76454529D01*
X132973898Y-76420474D01*
X132773939Y-76380700D01*
X132570061Y-76380700D01*
X132370102Y-76420474D01*
X132181744Y-76498495D01*
X132012226Y-76611763D01*
X131868063Y-76755926D01*
X131754795Y-76925444D01*
X131676774Y-77113802D01*
X131637000Y-77313761D01*
X131637000Y-77517639D01*
X131676774Y-77717598D01*
X131754795Y-77905956D01*
X131868063Y-78075474D01*
X132012226Y-78219637D01*
X132181744Y-78332905D01*
X132370102Y-78410926D01*
X132570061Y-78450700D01*
X132773939Y-78450700D01*
X132973898Y-78410926D01*
X133028522Y-78388300D01*
X133162471Y-78388300D01*
X133160818Y-78391392D01*
X133078764Y-78661891D01*
X133051057Y-78943200D01*
X133078764Y-79224509D01*
X133160818Y-79495008D01*
X133294068Y-79744301D01*
X133473392Y-79962808D01*
X133691899Y-80142132D01*
X133824858Y-80213200D01*
X133691899Y-80284268D01*
X133473392Y-80463592D01*
X133294068Y-80682099D01*
X133160818Y-80931392D01*
X133078764Y-81201891D01*
X133051057Y-81483200D01*
X133078764Y-81764509D01*
X133160818Y-82035008D01*
X133294068Y-82284301D01*
X133473392Y-82502808D01*
X133691899Y-82682132D01*
X133829682Y-82755779D01*
X133637869Y-82870815D01*
X133429481Y-83059786D01*
X133261963Y-83285780D01*
X133141754Y-83540113D01*
X133101096Y-83674161D01*
X133223085Y-83896200D01*
X134366000Y-83896200D01*
X134366000Y-83876200D01*
X134620000Y-83876200D01*
X134620000Y-83896200D01*
X135762915Y-83896200D01*
X135884904Y-83674161D01*
X135844246Y-83540113D01*
X135724037Y-83285780D01*
X135556519Y-83059786D01*
X135348131Y-82870815D01*
X135156318Y-82755779D01*
X135294101Y-82682132D01*
X135512608Y-82502808D01*
X135691932Y-82284301D01*
X135825182Y-82035008D01*
X135907236Y-81764509D01*
X135934943Y-81483200D01*
X135907236Y-81201891D01*
X135825182Y-80931392D01*
X135691932Y-80682099D01*
X135512608Y-80463592D01*
X135294101Y-80284268D01*
X135161142Y-80213200D01*
X135294101Y-80142132D01*
X135512608Y-79962808D01*
X135691932Y-79744301D01*
X135713901Y-79703200D01*
X136902778Y-79703200D01*
X136940100Y-79706876D01*
X136977422Y-79703200D01*
X136977433Y-79703200D01*
X137089086Y-79692203D01*
X137232347Y-79648746D01*
X137364376Y-79578174D01*
X137480101Y-79483201D01*
X137503904Y-79454197D01*
X138987202Y-77970900D01*
X139012500Y-77970900D01*
X139012500Y-79105377D01*
X139008824Y-79142700D01*
X139012500Y-79180022D01*
X139012500Y-79180032D01*
X139023497Y-79291685D01*
X139046488Y-79367476D01*
X139066954Y-79434946D01*
X139137526Y-79566976D01*
X139177371Y-79615526D01*
X139232499Y-79682701D01*
X139261503Y-79706504D01*
X140712292Y-81157294D01*
X140698764Y-81201891D01*
X140671057Y-81483200D01*
X140698764Y-81764509D01*
X140780818Y-82035008D01*
X140914068Y-82284301D01*
X141093392Y-82502808D01*
X141311899Y-82682132D01*
X141444858Y-82753200D01*
X141311899Y-82824268D01*
X141093392Y-83003592D01*
X140914068Y-83222099D01*
X140780818Y-83471392D01*
X140698764Y-83741891D01*
X140671057Y-84023200D01*
X140698764Y-84304509D01*
X140780818Y-84575008D01*
X140914068Y-84824301D01*
X141093392Y-85042808D01*
X141290658Y-85204700D01*
X135299584Y-85204700D01*
X135348131Y-85175585D01*
X135556519Y-84986614D01*
X135724037Y-84760620D01*
X135844246Y-84506287D01*
X135884904Y-84372239D01*
X135762915Y-84150200D01*
X134620000Y-84150200D01*
X134620000Y-84170200D01*
X134366000Y-84170200D01*
X134366000Y-84150200D01*
X133223085Y-84150200D01*
X133101096Y-84372239D01*
X133141754Y-84506287D01*
X133261963Y-84760620D01*
X133429481Y-84986614D01*
X133637869Y-85175585D01*
X133686416Y-85204700D01*
X130136059Y-85204700D01*
X130131550Y-78455600D01*
X130289639Y-78455600D01*
X130489598Y-78415826D01*
X130677956Y-78337805D01*
X130847474Y-78224537D01*
X130991637Y-78080374D01*
X131104905Y-77910856D01*
X131182926Y-77722498D01*
X131222700Y-77522539D01*
X131222700Y-77318661D01*
X131182926Y-77118702D01*
X131104905Y-76930344D01*
X130991637Y-76760826D01*
X130847474Y-76616663D01*
X130677956Y-76503395D01*
X130673100Y-76501384D01*
X130673100Y-73899900D01*
X130840139Y-73899900D01*
X131040098Y-73860126D01*
X131228456Y-73782105D01*
X131397974Y-73668837D01*
X131542137Y-73524674D01*
X131655405Y-73355156D01*
X131680116Y-73295500D01*
X131684979Y-73295500D01*
X131775053Y-73343646D01*
X131775053Y-73343646D01*
G37*
X131775053Y-73343646D02*
X131918314Y-73387103D01*
X132029967Y-73398100D01*
X132029976Y-73398100D01*
X132067299Y-73401776D01*
X132104622Y-73398100D01*
X133134516Y-73398100D01*
X133078764Y-73581891D01*
X133051057Y-73863200D01*
X133078764Y-74144509D01*
X133160818Y-74415008D01*
X133294068Y-74664301D01*
X133473392Y-74882808D01*
X133691899Y-75062132D01*
X133824858Y-75133200D01*
X133691899Y-75204268D01*
X133473392Y-75383592D01*
X133294068Y-75602099D01*
X133160818Y-75851392D01*
X133078764Y-76121891D01*
X133051057Y-76403200D01*
X133056113Y-76454529D01*
X132973898Y-76420474D01*
X132773939Y-76380700D01*
X132570061Y-76380700D01*
X132370102Y-76420474D01*
X132181744Y-76498495D01*
X132012226Y-76611763D01*
X131868063Y-76755926D01*
X131754795Y-76925444D01*
X131676774Y-77113802D01*
X131637000Y-77313761D01*
X131637000Y-77517639D01*
X131676774Y-77717598D01*
X131754795Y-77905956D01*
X131868063Y-78075474D01*
X132012226Y-78219637D01*
X132181744Y-78332905D01*
X132370102Y-78410926D01*
X132570061Y-78450700D01*
X132773939Y-78450700D01*
X132973898Y-78410926D01*
X133028522Y-78388300D01*
X133162471Y-78388300D01*
X133160818Y-78391392D01*
X133078764Y-78661891D01*
X133051057Y-78943200D01*
X133078764Y-79224509D01*
X133160818Y-79495008D01*
X133294068Y-79744301D01*
X133473392Y-79962808D01*
X133691899Y-80142132D01*
X133824858Y-80213200D01*
X133691899Y-80284268D01*
X133473392Y-80463592D01*
X133294068Y-80682099D01*
X133160818Y-80931392D01*
X133078764Y-81201891D01*
X133051057Y-81483200D01*
X133078764Y-81764509D01*
X133160818Y-82035008D01*
X133294068Y-82284301D01*
X133473392Y-82502808D01*
X133691899Y-82682132D01*
X133829682Y-82755779D01*
X133637869Y-82870815D01*
X133429481Y-83059786D01*
X133261963Y-83285780D01*
X133141754Y-83540113D01*
X133101096Y-83674161D01*
X133223085Y-83896200D01*
X134366000Y-83896200D01*
X134366000Y-83876200D01*
X134620000Y-83876200D01*
X134620000Y-83896200D01*
X135762915Y-83896200D01*
X135884904Y-83674161D01*
X135844246Y-83540113D01*
X135724037Y-83285780D01*
X135556519Y-83059786D01*
X135348131Y-82870815D01*
X135156318Y-82755779D01*
X135294101Y-82682132D01*
X135512608Y-82502808D01*
X135691932Y-82284301D01*
X135825182Y-82035008D01*
X135907236Y-81764509D01*
X135934943Y-81483200D01*
X135907236Y-81201891D01*
X135825182Y-80931392D01*
X135691932Y-80682099D01*
X135512608Y-80463592D01*
X135294101Y-80284268D01*
X135161142Y-80213200D01*
X135294101Y-80142132D01*
X135512608Y-79962808D01*
X135691932Y-79744301D01*
X135713901Y-79703200D01*
X136902778Y-79703200D01*
X136940100Y-79706876D01*
X136977422Y-79703200D01*
X136977433Y-79703200D01*
X137089086Y-79692203D01*
X137232347Y-79648746D01*
X137364376Y-79578174D01*
X137480101Y-79483201D01*
X137503904Y-79454197D01*
X138987202Y-77970900D01*
X139012500Y-77970900D01*
X139012500Y-79105377D01*
X139008824Y-79142700D01*
X139012500Y-79180022D01*
X139012500Y-79180032D01*
X139023497Y-79291685D01*
X139046488Y-79367476D01*
X139066954Y-79434946D01*
X139137526Y-79566976D01*
X139177371Y-79615526D01*
X139232499Y-79682701D01*
X139261503Y-79706504D01*
X140712292Y-81157294D01*
X140698764Y-81201891D01*
X140671057Y-81483200D01*
X140698764Y-81764509D01*
X140780818Y-82035008D01*
X140914068Y-82284301D01*
X141093392Y-82502808D01*
X141311899Y-82682132D01*
X141444858Y-82753200D01*
X141311899Y-82824268D01*
X141093392Y-83003592D01*
X140914068Y-83222099D01*
X140780818Y-83471392D01*
X140698764Y-83741891D01*
X140671057Y-84023200D01*
X140698764Y-84304509D01*
X140780818Y-84575008D01*
X140914068Y-84824301D01*
X141093392Y-85042808D01*
X141290658Y-85204700D01*
X135299584Y-85204700D01*
X135348131Y-85175585D01*
X135556519Y-84986614D01*
X135724037Y-84760620D01*
X135844246Y-84506287D01*
X135884904Y-84372239D01*
X135762915Y-84150200D01*
X134620000Y-84150200D01*
X134620000Y-84170200D01*
X134366000Y-84170200D01*
X134366000Y-84150200D01*
X133223085Y-84150200D01*
X133101096Y-84372239D01*
X133141754Y-84506287D01*
X133261963Y-84760620D01*
X133429481Y-84986614D01*
X133637869Y-85175585D01*
X133686416Y-85204700D01*
X130136059Y-85204700D01*
X130131550Y-78455600D01*
X130289639Y-78455600D01*
X130489598Y-78415826D01*
X130677956Y-78337805D01*
X130847474Y-78224537D01*
X130991637Y-78080374D01*
X131104905Y-77910856D01*
X131182926Y-77722498D01*
X131222700Y-77522539D01*
X131222700Y-77318661D01*
X131182926Y-77118702D01*
X131104905Y-76930344D01*
X130991637Y-76760826D01*
X130847474Y-76616663D01*
X130677956Y-76503395D01*
X130673100Y-76501384D01*
X130673100Y-73899900D01*
X130840139Y-73899900D01*
X131040098Y-73860126D01*
X131228456Y-73782105D01*
X131397974Y-73668837D01*
X131542137Y-73524674D01*
X131655405Y-73355156D01*
X131680116Y-73295500D01*
X131684979Y-73295500D01*
X131775053Y-73343646D01*
M02*
