G04 #@! TF.GenerationSoftware,KiCad,Pcbnew,(5.1.4)-1*
G04 #@! TF.CreationDate,2020-11-29T00:03:58+01:00*
G04 #@! TF.ProjectId,Delay Line,44656c61-7920-44c6-996e-652e6b696361,rev?*
G04 #@! TF.SameCoordinates,Original*
G04 #@! TF.FileFunction,Legend,Bot*
G04 #@! TF.FilePolarity,Positive*
%FSLAX46Y46*%
G04 Gerber Fmt 4.6, Leading zero omitted, Abs format (unit mm)*
G04 Created by KiCad (PCBNEW (5.1.4)-1) date 2020-11-29 00:03:58*
%MOMM*%
%LPD*%
G04 APERTURE LIST*
%ADD10C,0.150000*%
G04 APERTURE END LIST*
D10*
X137558133Y-69755571D02*
X137558133Y-70041285D01*
X137786704Y-69698428D02*
X136986704Y-69898428D01*
X137786704Y-70098428D01*
X137253371Y-70212714D02*
X137253371Y-70441285D01*
X136986704Y-70298428D02*
X137672419Y-70298428D01*
X137748609Y-70327000D01*
X137786704Y-70384142D01*
X137786704Y-70441285D01*
X137786704Y-70898428D02*
X137367657Y-70898428D01*
X137291466Y-70869857D01*
X137253371Y-70812714D01*
X137253371Y-70698428D01*
X137291466Y-70641285D01*
X137748609Y-70898428D02*
X137786704Y-70841285D01*
X137786704Y-70698428D01*
X137748609Y-70641285D01*
X137672419Y-70612714D01*
X137596228Y-70612714D01*
X137520038Y-70641285D01*
X137481942Y-70698428D01*
X137481942Y-70841285D01*
X137443847Y-70898428D01*
X137786704Y-71184142D02*
X137253371Y-71184142D01*
X137405752Y-71184142D02*
X137329561Y-71212714D01*
X137291466Y-71241285D01*
X137253371Y-71298428D01*
X137253371Y-71355571D01*
X137786704Y-71555571D02*
X137253371Y-71555571D01*
X136986704Y-71555571D02*
X137024800Y-71527000D01*
X137062895Y-71555571D01*
X137024800Y-71584142D01*
X136986704Y-71555571D01*
X137062895Y-71555571D01*
X136986704Y-72555571D02*
X136986704Y-72441285D01*
X137024800Y-72384142D01*
X137062895Y-72355571D01*
X137177180Y-72298428D01*
X137329561Y-72269857D01*
X137634323Y-72269857D01*
X137710514Y-72298428D01*
X137748609Y-72327000D01*
X137786704Y-72384142D01*
X137786704Y-72498428D01*
X137748609Y-72555571D01*
X137710514Y-72584142D01*
X137634323Y-72612714D01*
X137443847Y-72612714D01*
X137367657Y-72584142D01*
X137329561Y-72555571D01*
X137291466Y-72498428D01*
X137291466Y-72384142D01*
X137329561Y-72327000D01*
X137367657Y-72298428D01*
X137443847Y-72269857D01*
X136986704Y-72984142D02*
X136986704Y-73041285D01*
X137024800Y-73098428D01*
X137062895Y-73127000D01*
X137139085Y-73155571D01*
X137291466Y-73184142D01*
X137481942Y-73184142D01*
X137634323Y-73155571D01*
X137710514Y-73127000D01*
X137748609Y-73098428D01*
X137786704Y-73041285D01*
X137786704Y-72984142D01*
X137748609Y-72927000D01*
X137710514Y-72898428D01*
X137634323Y-72869857D01*
X137481942Y-72841285D01*
X137291466Y-72841285D01*
X137139085Y-72869857D01*
X137062895Y-72898428D01*
X137024800Y-72927000D01*
X136986704Y-72984142D01*
X136986704Y-73555571D02*
X136986704Y-73612714D01*
X137024800Y-73669857D01*
X137062895Y-73698428D01*
X137139085Y-73727000D01*
X137291466Y-73755571D01*
X137481942Y-73755571D01*
X137634323Y-73727000D01*
X137710514Y-73698428D01*
X137748609Y-73669857D01*
X137786704Y-73612714D01*
X137786704Y-73555571D01*
X137748609Y-73498428D01*
X137710514Y-73469857D01*
X137634323Y-73441285D01*
X137481942Y-73412714D01*
X137291466Y-73412714D01*
X137139085Y-73441285D01*
X137062895Y-73469857D01*
X137024800Y-73498428D01*
X136986704Y-73555571D01*
X136948609Y-74441285D02*
X137977180Y-73927000D01*
X137329561Y-74727000D02*
X137291466Y-74669857D01*
X137253371Y-74641285D01*
X137177180Y-74612714D01*
X137139085Y-74612714D01*
X137062895Y-74641285D01*
X137024800Y-74669857D01*
X136986704Y-74727000D01*
X136986704Y-74841285D01*
X137024800Y-74898428D01*
X137062895Y-74927000D01*
X137139085Y-74955571D01*
X137177180Y-74955571D01*
X137253371Y-74927000D01*
X137291466Y-74898428D01*
X137329561Y-74841285D01*
X137329561Y-74727000D01*
X137367657Y-74669857D01*
X137405752Y-74641285D01*
X137481942Y-74612714D01*
X137634323Y-74612714D01*
X137710514Y-74641285D01*
X137748609Y-74669857D01*
X137786704Y-74727000D01*
X137786704Y-74841285D01*
X137748609Y-74898428D01*
X137710514Y-74927000D01*
X137634323Y-74955571D01*
X137481942Y-74955571D01*
X137405752Y-74927000D01*
X137367657Y-74898428D01*
X137329561Y-74841285D01*
X136986704Y-75327000D02*
X136986704Y-75384142D01*
X137024800Y-75441285D01*
X137062895Y-75469857D01*
X137139085Y-75498428D01*
X137291466Y-75527000D01*
X137481942Y-75527000D01*
X137634323Y-75498428D01*
X137710514Y-75469857D01*
X137748609Y-75441285D01*
X137786704Y-75384142D01*
X137786704Y-75327000D01*
X137748609Y-75269857D01*
X137710514Y-75241285D01*
X137634323Y-75212714D01*
X137481942Y-75184142D01*
X137291466Y-75184142D01*
X137139085Y-75212714D01*
X137062895Y-75241285D01*
X137024800Y-75269857D01*
X136986704Y-75327000D01*
X136986704Y-75898428D02*
X136986704Y-75955571D01*
X137024800Y-76012714D01*
X137062895Y-76041285D01*
X137139085Y-76069857D01*
X137291466Y-76098428D01*
X137481942Y-76098428D01*
X137634323Y-76069857D01*
X137710514Y-76041285D01*
X137748609Y-76012714D01*
X137786704Y-75955571D01*
X137786704Y-75898428D01*
X137748609Y-75841285D01*
X137710514Y-75812714D01*
X137634323Y-75784142D01*
X137481942Y-75755571D01*
X137291466Y-75755571D01*
X137139085Y-75784142D01*
X137062895Y-75812714D01*
X137024800Y-75841285D01*
X136986704Y-75898428D01*
X136986704Y-76298428D02*
X137786704Y-76698428D01*
X136986704Y-76698428D02*
X137786704Y-76298428D01*
X137786704Y-77212714D02*
X137786704Y-76927000D01*
X136986704Y-76927000D01*
X137481942Y-77869857D02*
X137481942Y-78327000D01*
X137710514Y-79412714D02*
X137748609Y-79384142D01*
X137786704Y-79298428D01*
X137786704Y-79241285D01*
X137748609Y-79155571D01*
X137672419Y-79098428D01*
X137596228Y-79069857D01*
X137443847Y-79041285D01*
X137329561Y-79041285D01*
X137177180Y-79069857D01*
X137100990Y-79098428D01*
X137024800Y-79155571D01*
X136986704Y-79241285D01*
X136986704Y-79298428D01*
X137024800Y-79384142D01*
X137062895Y-79412714D01*
X136986704Y-79784142D02*
X136986704Y-79898428D01*
X137024800Y-79955571D01*
X137100990Y-80012714D01*
X137253371Y-80041285D01*
X137520038Y-80041285D01*
X137672419Y-80012714D01*
X137748609Y-79955571D01*
X137786704Y-79898428D01*
X137786704Y-79784142D01*
X137748609Y-79727000D01*
X137672419Y-79669857D01*
X137520038Y-79641285D01*
X137253371Y-79641285D01*
X137100990Y-79669857D01*
X137024800Y-79727000D01*
X136986704Y-79784142D01*
X136986704Y-80555571D02*
X136986704Y-80441285D01*
X137024800Y-80384142D01*
X137062895Y-80355571D01*
X137177180Y-80298428D01*
X137329561Y-80269857D01*
X137634323Y-80269857D01*
X137710514Y-80298428D01*
X137748609Y-80327000D01*
X137786704Y-80384142D01*
X137786704Y-80498428D01*
X137748609Y-80555571D01*
X137710514Y-80584142D01*
X137634323Y-80612714D01*
X137443847Y-80612714D01*
X137367657Y-80584142D01*
X137329561Y-80555571D01*
X137291466Y-80498428D01*
X137291466Y-80384142D01*
X137329561Y-80327000D01*
X137367657Y-80298428D01*
X137443847Y-80269857D01*
X136986704Y-80984142D02*
X136986704Y-81041285D01*
X137024800Y-81098428D01*
X137062895Y-81127000D01*
X137139085Y-81155571D01*
X137291466Y-81184142D01*
X137481942Y-81184142D01*
X137634323Y-81155571D01*
X137710514Y-81127000D01*
X137748609Y-81098428D01*
X137786704Y-81041285D01*
X137786704Y-80984142D01*
X137748609Y-80927000D01*
X137710514Y-80898428D01*
X137634323Y-80869857D01*
X137481942Y-80841285D01*
X137291466Y-80841285D01*
X137139085Y-80869857D01*
X137062895Y-80898428D01*
X137024800Y-80927000D01*
X136986704Y-80984142D01*
X137253371Y-81698428D02*
X137786704Y-81698428D01*
X136948609Y-81555571D02*
X137520038Y-81412714D01*
X137520038Y-81784142D01*
X136986704Y-81955571D02*
X136986704Y-82355571D01*
X137786704Y-82098428D01*
X137062895Y-82555571D02*
X137024800Y-82584142D01*
X136986704Y-82641285D01*
X136986704Y-82784142D01*
X137024800Y-82841285D01*
X137062895Y-82869857D01*
X137139085Y-82898428D01*
X137215276Y-82898428D01*
X137329561Y-82869857D01*
X137786704Y-82527000D01*
X137786704Y-82898428D01*
X139136704Y-72427000D02*
X138336704Y-72427000D01*
X138336704Y-72569857D01*
X138374800Y-72655571D01*
X138450990Y-72712714D01*
X138527180Y-72741285D01*
X138679561Y-72769857D01*
X138793847Y-72769857D01*
X138946228Y-72741285D01*
X139022419Y-72712714D01*
X139098609Y-72655571D01*
X139136704Y-72569857D01*
X139136704Y-72427000D01*
X139098609Y-73255571D02*
X139136704Y-73198428D01*
X139136704Y-73084142D01*
X139098609Y-73027000D01*
X139022419Y-72998428D01*
X138717657Y-72998428D01*
X138641466Y-73027000D01*
X138603371Y-73084142D01*
X138603371Y-73198428D01*
X138641466Y-73255571D01*
X138717657Y-73284142D01*
X138793847Y-73284142D01*
X138870038Y-72998428D01*
X139136704Y-73627000D02*
X139098609Y-73569857D01*
X139022419Y-73541285D01*
X138336704Y-73541285D01*
X139136704Y-74112714D02*
X138717657Y-74112714D01*
X138641466Y-74084142D01*
X138603371Y-74027000D01*
X138603371Y-73912714D01*
X138641466Y-73855571D01*
X139098609Y-74112714D02*
X139136704Y-74055571D01*
X139136704Y-73912714D01*
X139098609Y-73855571D01*
X139022419Y-73827000D01*
X138946228Y-73827000D01*
X138870038Y-73855571D01*
X138831942Y-73912714D01*
X138831942Y-74055571D01*
X138793847Y-74112714D01*
X138603371Y-74341285D02*
X139136704Y-74484142D01*
X138603371Y-74627000D02*
X139136704Y-74484142D01*
X139327180Y-74427000D01*
X139365276Y-74398428D01*
X139403371Y-74341285D01*
X139136704Y-75598428D02*
X139136704Y-75312714D01*
X138336704Y-75312714D01*
X139136704Y-75798428D02*
X138603371Y-75798428D01*
X138336704Y-75798428D02*
X138374800Y-75769857D01*
X138412895Y-75798428D01*
X138374800Y-75827000D01*
X138336704Y-75798428D01*
X138412895Y-75798428D01*
X138603371Y-76084142D02*
X139136704Y-76084142D01*
X138679561Y-76084142D02*
X138641466Y-76112714D01*
X138603371Y-76169857D01*
X138603371Y-76255571D01*
X138641466Y-76312714D01*
X138717657Y-76341285D01*
X139136704Y-76341285D01*
X139098609Y-76855571D02*
X139136704Y-76798428D01*
X139136704Y-76684142D01*
X139098609Y-76627000D01*
X139022419Y-76598428D01*
X138717657Y-76598428D01*
X138641466Y-76627000D01*
X138603371Y-76684142D01*
X138603371Y-76798428D01*
X138641466Y-76855571D01*
X138717657Y-76884142D01*
X138793847Y-76884142D01*
X138870038Y-76598428D01*
X139136704Y-77941285D02*
X138755752Y-77741285D01*
X139136704Y-77598428D02*
X138336704Y-77598428D01*
X138336704Y-77827000D01*
X138374800Y-77884142D01*
X138412895Y-77912714D01*
X138489085Y-77941285D01*
X138603371Y-77941285D01*
X138679561Y-77912714D01*
X138717657Y-77884142D01*
X138755752Y-77827000D01*
X138755752Y-77598428D01*
X139098609Y-78427000D02*
X139136704Y-78369857D01*
X139136704Y-78255571D01*
X139098609Y-78198428D01*
X139022419Y-78169857D01*
X138717657Y-78169857D01*
X138641466Y-78198428D01*
X138603371Y-78255571D01*
X138603371Y-78369857D01*
X138641466Y-78427000D01*
X138717657Y-78455571D01*
X138793847Y-78455571D01*
X138870038Y-78169857D01*
X138603371Y-78655571D02*
X139136704Y-78798428D01*
X138603371Y-78941285D01*
X139060514Y-79169857D02*
X139098609Y-79198428D01*
X139136704Y-79169857D01*
X139098609Y-79141285D01*
X139060514Y-79169857D01*
X139136704Y-79169857D01*
X138717657Y-80112714D02*
X138755752Y-80198428D01*
X138793847Y-80227000D01*
X138870038Y-80255571D01*
X138984323Y-80255571D01*
X139060514Y-80227000D01*
X139098609Y-80198428D01*
X139136704Y-80141285D01*
X139136704Y-79912714D01*
X138336704Y-79912714D01*
X138336704Y-80112714D01*
X138374800Y-80169857D01*
X138412895Y-80198428D01*
X138489085Y-80227000D01*
X138565276Y-80227000D01*
X138641466Y-80198428D01*
X138679561Y-80169857D01*
X138717657Y-80112714D01*
X138717657Y-79912714D01*
M02*
