M48
; DRILL file {KiCad (5.1.4)-1} date 29-11-2020 00:03:56
; FORMAT={-:-/ absolute / inch / decimal}
; #@! TF.CreationDate,2020-11-29T00:03:56+01:00
; #@! TF.GenerationSoftware,Kicad,Pcbnew,(5.1.4)-1
; #@! TF.FileFunction,Plated,1,2,PTH
FMAT,2
INCH
T1C0.0157
T2C0.0315
%
G90
G05
T1
X5.1255Y-3.0481
X5.1472Y-2.8687
X5.1846Y-2.8449
X5.2233Y-3.0479
X5.4458Y-2.901
X5.4704Y-3.029
X5.472Y-2.9857
T2
X5.295Y-2.708
X5.295Y-2.808
X5.295Y-2.908
X5.295Y-3.008
X5.295Y-3.108
X5.295Y-3.208
X5.295Y-3.308
X5.595Y-2.708
X5.595Y-2.808
X5.595Y-2.908
X5.595Y-3.008
X5.595Y-3.108
X5.595Y-3.208
X5.595Y-3.308
T0
M30
